<?xml version="1.0" encoding="UTF-8" standalone="no"?>
<svg
   viewBox="0 0 400.00001 330"
   version="1.1"
   id="svg10232"
   sodipodi:docname="3f-monochrome.svg"
   width="400"
   height="330"
   inkscape:version="1.2.2 (732a01da63, 2022-12-09)"
   xmlns:inkscape="http://www.inkscape.org/namespaces/inkscape"
   xmlns:sodipodi="http://sodipodi.sourceforge.net/DTD/sodipodi-0.dtd"
   xmlns="http://www.w3.org/2000/svg"
   xmlns:svg="http://www.w3.org/2000/svg">
  <sodipodi:namedview
     id="namedview10234"
     pagecolor="#ffffff"
     bordercolor="#000000"
     borderopacity="0.25"
     inkscape:showpageshadow="2"
     inkscape:pageopacity="0.0"
     inkscape:pagecheckerboard="0"
     inkscape:deskcolor="#d1d1d1"
     showgrid="false"
     inkscape:zoom="2.1069208"
     inkscape:cx="181.78187"
     inkscape:cy="140.01475"
     inkscape:window-width="1920"
     inkscape:window-height="974"
     inkscape:window-x="-11"
     inkscape:window-y="-11"
     inkscape:window-maximized="1"
     inkscape:current-layer="svg10232" />
  <defs
     id="defs9707">
    <style
       id="style9705">
      .cls-1, .cls-2, .cls-3, .cls-4, .cls-5, .cls-6, .cls-7, .cls-8, .cls-9, .cls-10, .cls-11, .cls-12, .cls-13 {
        stroke: #231815;
      }

      .cls-1, .cls-3 {
        fill: #865498;
      }

      .cls-1, .cls-3, .cls-4, .cls-5, .cls-6, .cls-8, .cls-9, .cls-10, .cls-12, .cls-13 {
        stroke-miterlimit: 10;
      }

      .cls-1, .cls-9 {
        stroke-width: .25px;
      }

      .cls-14, .cls-15 {
        letter-spacing: -.02em;
      }

      .cls-16 {
        font-size: 5.34px;
        letter-spacing: -.01em;
      }

      .cls-16, .cls-17, .cls-18, .cls-19, .cls-20, .cls-21 {
        font-family: sans-serif;
      }

      .cls-2, .cls-4, .cls-7, .cls-8, .cls-11 {
        fill: none;
      }

      .cls-2, .cls-4, .cls-7, .cls-11 {
        stroke-width: .5px;
      }

      .cls-2, .cls-7, .cls-11 {
        stroke-linejoin: bevel;
      }

      .cls-17 {
        font-size: 7.08px;
        letter-spacing: -.01em;
      }

      .cls-17, .cls-18, .cls-22 {
        fill: #231815;
      }

      .cls-23, .cls-20, .cls-24, .cls-10, .cls-21 {
        fill: #fff;
      }

      .cls-4 {
        stroke-linecap: round;
      }

      .cls-5, .cls-25 {
        fill: #4969aa;
      }

      .cls-18 {
        font-size: 6px;
        letter-spacing: -.01em;
      }

      .cls-26, .cls-27 {
        letter-spacing: -.05em;
      }

      .cls-19 {
        font-size: 6.96px;
        letter-spacing: -.01em;
      }

      .cls-28 {
        font-size: 8.54px;
        letter-spacing: -.14em;
      }

      .cls-6 {
        fill: #727171;
      }

      .cls-29 {
        font-size: 20.81px;
      }

      .cls-27, .cls-30, .cls-31, .cls-24, .cls-15 {
        font-family: MyriadPro-Semibold, 'Myriad Pro';
        font-weight: 600;
      }

      .cls-27, .cls-30, .cls-15 {
        font-size: 15.14px;
      }

      .cls-32 {
        font-size: 33.35px;
        letter-spacing: -.05em;
      }

      .cls-20 {
        font-size: 10.3px;
        letter-spacing: -.01em;
      }

      .cls-7 {
        stroke-dasharray: 2.94 2.94;
      }

      .cls-31 {
        font-size: 13.48px;
        letter-spacing: -.05em;
      }

      .cls-33 {
        fill: #dbdbdb;
      }

      .cls-9, .cls-13 {
        fill: #eb9826;
      }

      .cls-34 {
        font-size: 7.76px;
        letter-spacing: -.01em;
      }

      .cls-11 {
        stroke-dasharray: 2.87 2.87;
      }

      .cls-12 {
        fill: #4bb359;
      }

      .cls-35 {
        fill: #424142;
        fill-rule: evenodd;
      }
    </style>
  </defs>
  <g
     id="_最背景_灰色_"
     data-name="最背景(灰色)"
     transform="matrix(1.1346552,0,0,1.1373428,-81.6044,-23.304153)">
    <rect
       class="cls-33"
       x="71.919998"
       y="20.49"
       width="352.53"
       height="290.14999"
       id="rect9709" />
  </g>
  <g
     id="_路の背景_白_"
     data-name="路の背景(白)"
     transform="matrix(1.1346552,0,0,1.1346552,-81.6044,-23.249085)">
    <rect
       class="cls-23"
       x="116.04"
       y="26.690001"
       width="10.68"
       height="163.87"
       id="rect9712" />
    <polygon
       class="cls-23"
       points="133.42,26.5 124.51,26.5 124.51,180.03 115.71,180.03 115.71,215.82 100.66,215.82 100.66,237.36 76.75,237.36 76.75,284.28 193.01,284.28 193.01,215.82 150.15,215.82 150.15,180.03 140.29,180.03 140.29,164.28 131.91,164.28 131.91,65.74 140.29,65.74 140.29,53.97 339.45,53.97 339.45,95.05 308,95.05 308,200.8 347.96,200.8 347.96,200.8 384.56,200.8 384.56,182.15 418.65,182.15 418.65,163.12 363.53,163.12 363.53,152.76 355.23,152.76 355.23,53.97 355.52,53.97 355.52,26.5 140.29,26.5 "
       id="polygon9714" />
  </g>
  <rect
     class="cls-13"
     x="17.178679"
     y="66.763115"
     width="32.882309"
     height="29.886818"
     id="rect9717"
     style="stroke-width:1.13466;fill:#727171;fill-opacity:1" />
  <rect
     class="cls-3"
     x="67.772949"
     y="24.882986"
     width="35.650867"
     height="29.886818"
     id="rect9719"
     style="stroke-width:1.13466;fill:#727171;fill-opacity:1" />
  <rect
     class="cls-3"
     x="103.42383"
     y="24.882986"
     width="35.650867"
     height="29.886818"
     id="rect9721"
     style="stroke-width:1.13466;fill:#727171;fill-opacity:1" />
  <rect
     class="cls-3"
     x="139.07469"
     y="24.882986"
     width="35.650867"
     height="29.886818"
     id="rect9723"
     style="stroke-width:1.13466;fill:#727171;fill-opacity:1" />
  <rect
     class="cls-3"
     x="174.72556"
     y="24.882986"
     width="35.650867"
     height="29.886818"
     id="rect9725"
     style="stroke-width:1.13466;fill:#727171;fill-opacity:1" />
  <rect
     class="cls-3"
     x="267.86942"
     y="54.76981"
     width="35.650867"
     height="29.886818"
     id="rect9727"
     style="stroke-width:1.13466;fill:#727171;fill-opacity:1" />
  <rect
     class="cls-3"
     x="267.86942"
     y="84.656624"
     width="35.650867"
     height="29.886818"
     id="rect9729"
     style="stroke-width:1.13466;fill:#727171;fill-opacity:1" />
  <rect
     class="cls-3"
     x="267.86942"
     y="114.5321"
     width="35.650867"
     height="29.886818"
     id="rect9731"
     style="stroke-width:1.13466;fill:#727171;fill-opacity:1" />
  <rect
     class="cls-3"
     x="267.86942"
     y="144.56641"
     width="35.650867"
     height="29.886818"
     id="rect9733"
     style="stroke-width:1.13466;fill:#727171;fill-opacity:1" />
  <rect
     class="cls-3"
     x="267.86942"
     y="174.7142"
     width="35.650867"
     height="29.886818"
     id="rect9735"
     style="stroke-width:1.13466;fill:#727171;fill-opacity:1" />
  <rect
     class="cls-3"
     x="210.3764"
     y="24.882986"
     width="35.650867"
     height="29.886818"
     id="rect9737"
     style="stroke-width:1.13466;fill:#727171;fill-opacity:1" />
  <rect
     class="cls-10"
     x="246.02728"
     y="36.751484"
     width="27.86713"
     height="17.870819"
     id="rect9739"
     style="stroke-width:1.13466" />
  <polyline
     class="cls-3"
     points="370.92 163.3 418.4 163.3 418.4 200.8 370.92 200.8"
     id="polyline9741"
     transform="matrix(1.1346552,0,0,1.1346552,-81.6044,-23.249085)"
     style="fill:#727171;fill-opacity:1" />
  <polyline
     class="cls-6"
     points="116.04 79.33 87.06 79.33 87.06 59.4 116.04 59.4"
     id="polyline9743"
     transform="matrix(1.1346552,0,0,1.1346552,-81.6044,-23.249085)" />
  <polyline
     class="cls-6"
     points="339.77 68.64 313.3 68.64 313.3 52.88 339.77 52.88"
     id="polyline9745"
     transform="matrix(1.1346552,0,0,1.1346552,-81.6044,-23.249085)" />
  <polyline
     class="cls-6"
     points="370.92 179.43 370.92 200.8 355.62 200.8 355.62 179.43"
     id="polyline9747"
     transform="matrix(1.1346552,0,0,1.1346552,-81.6044,-23.249085)" />
  <polyline
     class="cls-6"
     points="150.35 227.07 150.35 200.18 168.56 200.18 168.56 227.07"
     id="polyline9749"
     transform="matrix(1.1346552,0,0,1.1346552,-81.6044,-23.249085)" />
  <rect
     class="cls-13"
     x="17.178679"
     y="96.695312"
     width="32.882309"
     height="29.886818"
     id="rect9751"
     style="stroke-width:1.13466;fill:#727171;fill-opacity:1" />
  <rect
     class="cls-13"
     x="17.178679"
     y="126.61617"
     width="32.882309"
     height="29.886818"
     id="rect9753"
     style="stroke-width:1.13466;fill:#727171;fill-opacity:1" />
  <rect
     class="cls-13"
     x="17.178679"
     y="156.54839"
     width="32.882309"
     height="29.886818"
     id="rect9755"
     style="stroke-width:1.13466;fill:#727171;fill-opacity:1" />
  <rect
     class="cls-13"
     x="17.178679"
     y="186.46924"
     width="32.882309"
     height="29.886818"
     id="rect9757"
     style="stroke-width:1.13466;fill:#727171;fill-opacity:1" />
  <rect
     class="cls-13"
     x="17.178679"
     y="216.40144"
     width="32.882309"
     height="29.886818"
     id="rect9759"
     style="stroke-width:1.13466;fill:#727171;fill-opacity:1" />
  <rect
     class="cls-13"
     x="5.7186632"
     y="269.68488"
     width="32.882309"
     height="29.784698"
     id="rect9761"
     style="stroke-width:1.13466;fill:#727171;fill-opacity:1" />
  <rect
     class="cls-13"
     x="38.555588"
     y="269.68488"
     width="32.882309"
     height="29.784698"
     id="rect9763"
     style="stroke-width:1.13466;fill:#727171;fill-opacity:1" />
  <rect
     class="cls-13"
     x="71.437897"
     y="269.68488"
     width="32.882309"
     height="29.784698"
     id="rect9765"
     style="stroke-width:1.13466;fill:#727171;fill-opacity:1" />
  <rect
     class="cls-13"
     x="104.3202"
     y="269.68488"
     width="32.882309"
     height="29.784698"
     id="rect9767"
     style="stroke-width:1.13466;fill:#727171;fill-opacity:1" />
  <rect
     class="cls-13"
     x="109.65308"
     y="203.88618"
     width="27.549429"
     height="30.510878"
     id="rect9769"
     style="stroke-width:1.13466;fill:#727171;fill-opacity:1" />
  <polyline
     class="cls-12"
     points="137.77 200.18 137.77 213.58 150.35 213.58 150.35 200.18"
     id="polyline9771"
     transform="matrix(1.1346552,0,0,1.1346552,-81.6044,-23.249085)"
     style="fill:#727171;fill-opacity:1" />
  <polyline
     class="cls-6"
     points="150.35 227.07 150.35 213.68 137.77 213.68 137.77 227.07"
     id="polyline9773"
     transform="matrix(1.1346552,0,0,1.1346552,-81.6044,-23.249085)" />
  <polyline
     class="cls-5"
     points="355.24 42.3 355.24 26.5 313.3 26.5 313.3 42.3"
     id="polyline9775"
     transform="matrix(1.1346552,0,0,1.1346552,-81.6044,-23.249085)"
     style="fill:#727171;fill-opacity:1" />
  <polyline
     class="cls-8"
     points="87.06 237.54 76.96 237.54 76.96 284.41"
     id="polyline9777"
     transform="matrix(1.1346552,0,0,1.1346552,-81.6044,-23.249085)" />
  <line
     class="cls-8"
     x1="137.2025"
     y1="234.39708"
     x2="137.2025"
     y2="269.68488"
     id="line9779"
     style="stroke-width:1.13466" />
  <line
     class="cls-8"
     x1="303.52029"
     y1="204.58968"
     x2="321.90167"
     y2="204.58968"
     id="line9784"
     style="stroke-width:1.13466" />
  <rect
     class="cls-25"
     x="67.477943"
     y="156.54839"
     width="28.468498"
     height="35.560093"
     id="rect9802"
     style="stroke-width:1.13466;fill:#727171;fill-opacity:1" />
  <polyline
     class="cls-8"
     points="131.68 42.42 131.68 189.67 131.68 158.54 156.77 158.7 156.77 189.88 150.35 189.94 150.35 227.07"
     id="polyline9804"
     transform="matrix(1.1346552,0,0,1.1346552,-81.6044,-23.249085)" />
  <g
     id="_階段-2"
     data-name="階段"
     transform="matrix(1.1346552,0,0,1.1346552,-81.6044,-23.249085)">
    <polygon
       class="cls-23"
       points="330.02,58.35 330.02,60.2 327.31,60.2 327.31,62.05 324.61,62.05 324.61,63.9 321.9,63.9 321.9,65.76 321.02,65.76 321.02,62.91 323.72,62.91 323.72,61.05 326.43,61.05 326.43,59.2 329.14,59.2 329.14,57.36 332.06,57.36 332.06,58.35 "
       id="polygon10047" />
    <g
       id="g10053">
      <polygon
         class="cls-23"
         points="322.84,56.98 322.84,55.94 321.89,55.94 321.89,58.79 324.44,58.79 324.44,57.73 323.51,57.73 325.54,55.45 324.87,54.7 "
         id="polygon10049" />
      <polygon
         class="cls-23"
         points="328.64,63.79 329.56,63.79 327.54,66.07 328.21,66.82 330.23,64.55 330.23,65.58 331.18,65.58 331.18,62.73 328.64,62.73 "
         id="polygon10051" />
    </g>
  </g>
  <g
     id="_階段-3"
     data-name="階段"
     transform="matrix(1.1346552,0,0,1.1346552,-81.6044,-23.249085)">
    <polygon
       class="cls-23"
       points="105.43,66.69 105.43,68.74 102.41,68.74 102.41,70.8 99.4,70.8 99.4,72.87 96.38,72.87 96.38,74.93 95.4,74.93 95.4,71.76 98.41,71.76 98.41,69.69 101.43,69.69 101.43,67.63 104.44,67.63 104.44,65.58 107.7,65.58 107.7,66.69 "
       id="polygon10056" />
    <g
       id="g10062">
      <polygon
         class="cls-23"
         points="97.43,65.15 97.43,64 96.37,64 96.37,67.18 99.21,67.18 99.21,65.99 98.18,65.99 100.44,63.46 99.69,62.62 "
         id="polygon10058" />
      <polygon
         class="cls-23"
         points="103.89,72.74 104.92,72.74 102.66,75.28 103.41,76.12 105.67,73.58 105.67,74.74 106.72,74.74 106.72,71.56 103.89,71.56 "
         id="polygon10060" />
    </g>
  </g>
  <g
     id="_階段-4"
     data-name="階段"
     transform="matrix(1.1346552,0,0,1.1346552,-81.6044,-23.249085)">
    <polygon
       class="cls-23"
       points="366.77,187.76 366.77,189.37 364.13,189.37 364.13,190.98 361.49,190.98 361.49,192.6 358.85,192.6 358.85,194.22 357.99,194.22 357.99,191.73 360.63,191.73 360.63,190.12 363.27,190.12 363.27,188.51 365.91,188.51 365.91,186.9 368.76,186.9 368.76,187.76 "
       id="polygon10065" />
    <g
       id="g10071">
      <polygon
         class="cls-23"
         points="359.77,186.56 359.77,185.66 358.84,185.66 358.84,188.15 361.33,188.15 361.33,187.22 360.42,187.22 362.4,185.24 361.75,184.58 "
         id="polygon10067" />
      <polygon
         class="cls-23"
         points="365.42,192.5 366.33,192.5 364.35,194.49 365,195.14 366.98,193.16 366.98,194.07 367.91,194.07 367.91,191.58 365.42,191.58 "
         id="polygon10069" />
    </g>
  </g>
  <g
     id="_階段-5"
     data-name="階段"
     transform="matrix(1.1346552,0,0,1.1346552,-81.6044,-23.249085)">
    <polygon
       class="cls-23"
       points="163.44,212.15 163.44,214 160.4,214 160.4,215.86 157.36,215.86 157.36,217.73 154.31,217.73 154.31,219.6 153.32,219.6 153.32,216.73 156.36,216.73 156.36,214.86 159.4,214.86 159.4,213 162.45,213 162.45,211.15 165.73,211.15 165.73,212.15 "
       id="polygon10074" />
    <g
       id="g10080">
      <polygon
         class="cls-23"
         points="155.37,210.76 155.37,209.71 154.3,209.71 154.3,212.59 157.17,212.59 157.17,211.52 156.13,211.52 158.4,209.23 157.65,208.47 "
         id="polygon10076" />
      <polygon
         class="cls-23"
         points="161.89,217.62 162.93,217.62 160.65,219.91 161.4,220.67 163.68,218.38 163.68,219.42 164.75,219.42 164.75,216.55 161.89,216.55 "
         id="polygon10078" />
    </g>
  </g>
  <g
     id="_男子-2"
     data-name="男子"
     transform="matrix(1.1346552,0,0,1.1346552,-81.6044,-23.249085)">
    <circle
       class="cls-23"
       cx="334.48001"
       cy="29.370001"
       r="1.03"
       id="circle10083" />
    <path
       class="cls-23"
       d="m 335.72,30.89 h -2.48 c -0.25,0 -0.45,0.21 -0.45,0.46 l 0.11,4.21 c 0,0.16 0.15,0.25 0.29,0.28 l 0.42,0.14 0.19,4.08 c 0.01,0.23 0.25,0.41 0.54,0.41 h 0.29 c 0.29,0 0.53,-0.18 0.54,-0.41 l 0.19,-4.08 0.42,-0.14 c 0.14,-0.03 0.28,-0.12 0.29,-0.28 l 0.11,-4.21 c 0,-0.25 -0.2,-0.46 -0.45,-0.46 z"
       id="path10085" />
  </g>
  <g
     id="EV-2"
     data-name="EV"
     transform="matrix(1.1346552,0,0,1.1346552,-81.6044,-23.249085)">
    <path
       class="cls-23"
       d="m 140.47,218.84 v 6.93 h 7.31 v -6.93 z m 6.61,6.27 h -5.9 v -5.62 h 5.9 z"
       id="path10088" />
    <path
       class="cls-23"
       d="m 144.74,221.09 c 0,0.31 -0.27,0.57 -0.61,0.57 -0.34,0 -0.61,-0.25 -0.61,-0.57 0,-0.32 0.27,-0.57 0.61,-0.57 0.34,0 0.61,0.25 0.61,0.57 z"
       id="path10090" />
    <path
       class="cls-23"
       d="m 144.61,224.58 c 0,0.21 -0.2,0.38 -0.42,0.38 h -0.12 c -0.22,0 -0.41,-0.17 -0.42,-0.38 l -0.11,-2.31 c 0,-0.21 0.17,-0.38 0.39,-0.38 h 0.41 c 0.22,0 0.4,0.17 0.39,0.38 l -0.11,2.31 z"
       id="path10092" />
    <path
       class="cls-23"
       d="m 142.9,221.09 c 0,0.31 -0.27,0.57 -0.61,0.57 -0.34,0 -0.61,-0.25 -0.61,-0.57 0,-0.32 0.27,-0.57 0.61,-0.57 0.34,0 0.61,0.25 0.61,0.57 z"
       id="path10094" />
    <path
       class="cls-23"
       d="m 142.78,224.58 c 0,0.21 -0.2,0.38 -0.42,0.38 h -0.12 c -0.22,0 -0.41,-0.17 -0.42,-0.38 l -0.11,-2.31 c 0,-0.21 0.17,-0.38 0.39,-0.38 h 0.41 c 0.22,0 0.4,0.17 0.39,0.38 l -0.11,2.31 z"
       id="path10096" />
    <path
       class="cls-23"
       d="m 146.57,221.09 c 0,0.31 -0.27,0.57 -0.61,0.57 -0.34,0 -0.61,-0.25 -0.61,-0.57 0,-0.32 0.27,-0.57 0.61,-0.57 0.34,0 0.61,0.25 0.61,0.57 z"
       id="path10098" />
    <path
       class="cls-23"
       d="m 146.44,224.58 c 0,0.21 -0.2,0.38 -0.42,0.38 h -0.12 c -0.22,0 -0.41,-0.17 -0.42,-0.38 l -0.11,-2.31 c 0,-0.21 0.17,-0.38 0.39,-0.38 h 0.41 c 0.22,0 0.4,0.17 0.39,0.38 l -0.11,2.31 z"
       id="path10100" />
    <g
       id="g10106">
      <polygon
         class="cls-23"
         points="142.14,218.25 142.14,216.58 141.62,217.06 141.09,216.56 142.51,215.24 142.57,215.29 143.93,216.57 143.4,217.06 142.89,216.59 142.89,218.25 "
         id="polygon10102" />
      <polygon
         class="cls-23"
         points="145.68,218.22 144.32,216.95 144.85,216.46 145.36,216.93 145.36,215.27 146.12,215.27 146.12,216.94 146.63,216.46 147.16,216.96 145.74,218.28 "
         id="polygon10104" />
    </g>
  </g>
  <g
     id="g10132"
     transform="matrix(1.1346552,0,0,1.1346552,-81.6044,-23.249085)">
    <polyline
       class="cls-6"
       points="354.47 163.3 370.86 163.3 370.86 147.82 354.47 147.82"
       id="polyline10109" />
    <g
       id="EV-3"
       data-name="EV">
      <path
         class="cls-23"
         d="m 358.8,153.86 v 7.97 h 8.18 v -7.97 z m 7.39,7.21 h -6.6 v -6.46 h 6.6 z"
         id="path10111" />
      <path
         class="cls-23"
         d="m 363.57,156.45 c 0,0.36 -0.31,0.65 -0.68,0.65 -0.37,0 -0.68,-0.29 -0.68,-0.65 0,-0.36 0.31,-0.65 0.68,-0.65 0.37,0 0.68,0.29 0.68,0.65 z"
         id="path10113" />
      <path
         class="cls-23"
         d="m 363.43,160.47 c -0.01,0.24 -0.22,0.44 -0.47,0.44 h -0.13 c -0.25,0 -0.46,-0.2 -0.47,-0.44 l -0.12,-2.66 c -0.01,-0.24 0.18,-0.44 0.43,-0.44 h 0.45 c 0.25,0 0.45,0.2 0.43,0.44 z"
         id="path10115" />
      <path
         class="cls-23"
         d="m 361.52,156.45 c 0,0.36 -0.31,0.65 -0.68,0.65 -0.37,0 -0.68,-0.29 -0.68,-0.65 0,-0.36 0.31,-0.65 0.68,-0.65 0.37,0 0.68,0.29 0.68,0.65 z"
         id="path10117" />
      <path
         class="cls-23"
         d="m 361.37,160.47 c -0.01,0.24 -0.22,0.44 -0.47,0.44 h -0.13 c -0.25,0 -0.46,-0.2 -0.47,-0.44 l -0.12,-2.66 c -0.01,-0.24 0.18,-0.44 0.43,-0.44 h 0.45 c 0.25,0 0.45,0.2 0.43,0.44 z"
         id="path10119" />
      <path
         class="cls-23"
         d="m 365.62,156.45 c 0,0.36 -0.31,0.65 -0.68,0.65 -0.37,0 -0.68,-0.29 -0.68,-0.65 0,-0.36 0.31,-0.65 0.68,-0.65 0.37,0 0.68,0.29 0.68,0.65 z"
         id="path10121" />
      <path
         class="cls-23"
         d="m 365.48,160.47 c -0.01,0.24 -0.22,0.44 -0.47,0.44 h -0.13 c -0.25,0 -0.46,-0.2 -0.47,-0.44 l -0.12,-2.66 c -0.01,-0.24 0.18,-0.44 0.43,-0.44 h 0.45 c 0.25,0 0.45,0.2 0.43,0.44 z"
         id="path10123" />
      <g
         id="g10129">
        <polygon
           class="cls-23"
           points="360.66,153.18 360.66,151.26 360.08,151.81 359.49,151.24 361.08,149.72 361.14,149.78 362.67,151.25 362.07,151.82 361.5,151.27 361.5,153.18 "
           id="polygon10125" />
        <polygon
           class="cls-23"
           points="364.63,153.15 363.1,151.69 363.7,151.12 364.27,151.66 364.27,149.75 365.11,149.75 365.11,151.67 365.68,151.12 366.28,151.69 364.69,153.22 "
           id="polygon10127" />
      </g>
    </g>
  </g>
  <g
     id="g10164"
     transform="matrix(1.1346552,0,0,1.1346552,-81.6044,-23.249085)">
    <g
       id="g10154">
      <path
         class="cls-23"
         d="m 146.28,204.52 c -0.4,0 -0.75,-0.14 -0.99,-0.41 -0.25,-0.27 -0.38,-0.65 -0.38,-1.09 0,-0.45 0.13,-0.82 0.38,-1.09 0.25,-0.27 0.59,-0.41 0.99,-0.41 0.48,0 0.88,0.22 1.07,0.58 l 0.03,0.05 -0.57,0.29 -0.03,-0.03 c -0.11,-0.12 -0.29,-0.2 -0.44,-0.2 -0.39,0 -0.65,0.32 -0.65,0.81 0,0.49 0.26,0.81 0.65,0.81 0.15,0 0.33,-0.08 0.44,-0.2 l 0.03,-0.03 0.57,0.29 -0.03,0.05 c -0.19,0.36 -0.59,0.58 -1.07,0.58 z"
         id="path10150" />
      <polygon
         class="cls-23"
         points="142.97,204.52 143.66,204.52 144.47,201.51 143.79,201.51 143.32,203.26 142.85,201.51 142.19,201.51 141.72,203.26 141.25,201.51 140.56,201.51 141.38,204.52 142.06,204.52 142.52,202.83 "
         id="polygon10152" />
    </g>
    <g
       id="g10162">
      <path
         class="cls-23"
         d="m 145.44,210.7 c -0.34,0.53 -0.94,0.89 -1.61,0.89 -1.06,0 -1.92,-0.86 -1.92,-1.92 0,-0.8 0.5,-1.5 1.2,-1.78 v -0.7 c -1.07,0.31 -1.86,1.31 -1.86,2.48 0,1.42 1.16,2.58 2.58,2.58 0.98,0 1.83,-0.55 2.27,-1.35 l -0.65,-0.2 z"
         id="path10156" />
      <path
         class="cls-23"
         d="m 144.81,205.8 c 0,0.38 -0.31,0.69 -0.69,0.69 -0.38,0 -0.69,-0.31 -0.69,-0.69 0,-0.38 0.31,-0.69 0.69,-0.69 0.38,0 0.69,0.31 0.69,0.69 z"
         id="path10158" />
      <path
         class="cls-23"
         d="m 147.47,210.55 -0.89,-1.21 c -0.09,-0.12 -0.23,-0.19 -0.37,-0.19 h -1.47 v -1.9 c 0,-0.31 -0.26,-0.57 -0.57,-0.57 h -0.07 c -0.31,0 -0.57,0.26 -0.57,0.57 v 2.26 c 0,0.16 0.06,0.3 0.17,0.4 0.09,0.1 0.21,0.17 0.36,0.17 h 1.93 l 0.75,1.02 c 0.09,0.12 0.23,0.19 0.37,0.19 0.1,0 0.19,-0.03 0.27,-0.09 0.21,-0.15 0.25,-0.44 0.1,-0.65 z"
         id="path10160" />
    </g>
  </g>
  <polyline
     class="cls-8"
     points="116.04 59.78 116.04 26.69 355.26 26.47 354.97 147.85 370.93 147.79 370.91 163.3 418.4 163.3"
     id="polyline10166"
     transform="matrix(1.1346552,0,0,1.1346552,-81.6044,-23.249085)" />
  <g
     id="_男子-3"
     data-name="男子"
     transform="matrix(1.1346552,0,0,1.1346552,-81.6044,-23.249085)">
    <ellipse
       class="cls-23"
       cx="144.60001"
       cy="165.03999"
       rx="1.6799999"
       ry="1.6900001"
       id="ellipse10215" />
    <path
       class="cls-23"
       d="m 146.62,167.54 h -4.05 c -0.41,0 -0.74,0.34 -0.73,0.75 l 0.19,6.87 c 0,0.25 0.24,0.4 0.47,0.46 l 0.69,0.22 0.3,6.67 c 0.02,0.37 0.41,0.67 0.88,0.67 h 0.47 c 0.47,0 0.86,-0.3 0.88,-0.67 l 0.3,-6.67 0.69,-0.22 c 0.22,-0.06 0.46,-0.2 0.47,-0.46 l 0.19,-6.87 c 0,-0.41 -0.32,-0.75 -0.73,-0.75 z"
       id="path10217" />
  </g>
  <g
     id="_1F"
     data-name="1F"
     transform="matrix(1.1346552,0,0,1.1346552,-81.6044,-23.249085)">
    <g
       id="g10229">
      <ellipse
         class="cls-22"
         cx="386.76001"
         cy="46.299999"
         rx="19.57"
         ry="19.620001"
         id="ellipse10221" />
      <text
         class="cls-24"
         transform="translate(374.05,57.03)"
         id="text10227"><tspan
           class="cls-32"
           x="0"
           y="0"
           id="tspan10223">3</tspan><tspan
           class="cls-29"
           x="16.209999"
           y="0.56999999"
           id="tspan10225">F</tspan></text>
    </g>
  </g>
</svg>
