<?xml version="1.0" encoding="UTF-8" standalone="no"?>
<svg
   viewBox="0 0 400.00001 330"
   version="1.1"
   id="svg453"
   sodipodi:docname="4-5f-monochrome.svg"
   width="400"
   height="330"
   inkscape:version="1.2.2 (732a01da63, 2022-12-09)"
   xmlns:inkscape="http://www.inkscape.org/namespaces/inkscape"
   xmlns:sodipodi="http://sodipodi.sourceforge.net/DTD/sodipodi-0.dtd"
   xmlns="http://www.w3.org/2000/svg"
   xmlns:svg="http://www.w3.org/2000/svg">
  <sodipodi:namedview
     id="namedview455"
     pagecolor="#ffffff"
     bordercolor="#000000"
     borderopacity="0.25"
     inkscape:showpageshadow="2"
     inkscape:pageopacity="0.0"
     inkscape:pagecheckerboard="0"
     inkscape:deskcolor="#d1d1d1"
     showgrid="false"
     inkscape:zoom="2.1069208"
     inkscape:cx="224.97286"
     inkscape:cy="157.1013"
     inkscape:window-width="1920"
     inkscape:window-height="974"
     inkscape:window-x="-11"
     inkscape:window-y="-11"
     inkscape:window-maximized="1"
     inkscape:current-layer="svg453" />
  <defs
     id="defs4">
    <style
       id="style2">
      .cls-1 {
        stroke-width: .25px;
      }

      .cls-1, .cls-2, .cls-3, .cls-4, .cls-5, .cls-6, .cls-7, .cls-8, .cls-9, .cls-10, .cls-11, .cls-12 {
        stroke-miterlimit: 10;
      }

      .cls-1, .cls-3 {
        fill: #865498;
      }

      .cls-1, .cls-3, .cls-4, .cls-5, .cls-6, .cls-7, .cls-8, .cls-9, .cls-10, .cls-11 {
        stroke: #231815;
      }

      .cls-13, .cls-14 {
        letter-spacing: -.02em;
      }

      .cls-15 {
        font-size: 8.03px;
        letter-spacing: -.01em;
      }

      .cls-15, .cls-16, .cls-17, .cls-18, .cls-19, .cls-20 {
        font-family: sans-serif;
      }

      .cls-15, .cls-21, .cls-19, .cls-22, .cls-10, .cls-20 {
        fill: #fff;
      }

      .cls-16 {
        font-size: 7.08px;
        letter-spacing: -.01em;
      }

      .cls-16, .cls-17, .cls-23, .cls-24 {
        fill: #231815;
      }

      .cls-2 {
        stroke: #c30d23;
        stroke-width: 2px;
      }

      .cls-2, .cls-4, .cls-5, .cls-6, .cls-9, .cls-11, .cls-12 {
        fill: none;
      }

      .cls-25 {
        fill: #515151;
      }

      .cls-26 {
        fill: #c30d23;
        font-family: sans-serif;
        font-size: 8.19px;
      }

      .cls-4 {
        stroke-dasharray: 2.93 2.93;
      }

      .cls-4, .cls-5, .cls-6, .cls-11 {
        stroke-width: .5px;
      }

      .cls-6 {
        stroke-linecap: round;
      }

      .cls-7 {
        fill: #4969aa;
      }

      .cls-17 {
        font-size: 6px;
        letter-spacing: -.01em;
      }

      .cls-27 {
        letter-spacing: -.05em;
      }

      .cls-18 {
        font-size: 6.96px;
        letter-spacing: -.01em;
      }

      .cls-28 {
        font-size: 8.54px;
        letter-spacing: -.14em;
      }

      .cls-8 {
        fill: #727171;
      }

      .cls-29 {
        font-size: 20.81px;
      }

      .cls-30 {
        font-size: 33.35px;
        letter-spacing: -.05em;
      }

      .cls-31, .cls-22, .cls-14 {
        font-family: MyriadPro-Semibold, 'Myriad Pro';
        font-weight: 600;
      }

      .cls-31, .cls-14 {
        font-size: 15.14px;
      }

      .cls-19 {
        font-size: 9.48px;
        letter-spacing: -.01em;
      }

      .cls-24 {
        font-family: MOBO-Bold, 'MOBO Bold-90ms-RKSJ-H';
        font-size: 6.53px;
        font-weight: 700;
        letter-spacing: -.05em;
      }

      .cls-32 {
        fill: #dbdbdb;
      }

      .cls-33 {
        fill: #9d1f24;
      }

      .cls-34 {
        font-size: 7.76px;
        letter-spacing: -.01em;
      }

      .cls-11 {
        stroke-dasharray: 2.98 2.98;
      }

      .cls-35 {
        fill: #424142;
        fill-rule: evenodd;
      }

      .cls-12 {
        stroke: #515151;
        stroke-width: .75px;
      }
    </style>
  </defs>
  <g
     id="_最背景_灰色_"
     data-name="最背景(灰色)"
     transform="matrix(1.1346552,0,0,1.1373428,-81.6044,-23.304153)">
    <rect
       class="cls-32"
       x="71.919998"
       y="20.49"
       width="352.53"
       height="290.14999"
       id="rect6" />
  </g>
  <g
     id="_路の背景_白_"
     data-name="路の背景(白)"
     transform="matrix(1.1346552,0,0,1.1346552,-81.6044,-23.249085)">
    <polygon
       class="cls-21"
       points="124.51,26.5 124.51,26.69 116.04,26.69 116.04,90.75 116.04,91.97 116.04,100.97 131.65,100.97 131.65,91.97 131.91,91.97 131.91,65.74 140.29,65.74 140.29,53.97 339.45,53.97 339.45,95.05 308,95.05 308,200.8 347.96,200.8 347.96,200.8 384.56,200.8 384.56,182.15 418.65,182.15 418.65,163.12 363.53,163.12 363.53,152.76 355.23,152.76 355.23,53.97 355.52,53.97 355.52,26.5 140.29,26.5 133.42,26.5 "
       id="polygon9" />
    <polygon
       class="cls-21"
       points="192.18,229.77 192.18,211.66 177.13,211.66 177.13,281.77 185.81,281.77 192.18,281.77 208.57,281.77 208.57,229.77 "
       id="polygon11" />
  </g>
  <rect
     class="cls-3"
     x="67.772949"
     y="24.882986"
     width="35.650867"
     height="29.886818"
     id="rect14"
     style="stroke-width:1.13466;fill:#727171;fill-opacity:1" />
  <rect
     class="cls-3"
     x="103.42383"
     y="24.882986"
     width="35.650867"
     height="29.886818"
     id="rect16"
     style="stroke-width:1.13466;fill:#727171;fill-opacity:1" />
  <rect
     class="cls-3"
     x="139.07469"
     y="24.882986"
     width="35.650867"
     height="29.886818"
     id="rect18"
     style="stroke-width:1.13466;fill:#727171;fill-opacity:1" />
  <g
     id="g30"
     transform="matrix(1.1346552,0,0,1.1346552,-81.6044,-23.249085)">
    <line
       class="cls-5"
       x1="208.63"
       y1="271.09"
       x2="210.13"
       y2="271.09"
       id="line20" />
    <line
       class="cls-11"
       x1="213.11"
       y1="271.09"
       x2="360.57999"
       y2="271.09"
       id="line22" />
    <polyline
       class="cls-5"
       points="362.07 271.09 363.57 271.09 363.57 269.59"
       id="polyline24" />
    <line
       class="cls-4"
       x1="363.57001"
       y1="266.66"
       x2="363.57001"
       y2="203.77"
       id="line26" />
    <line
       class="cls-5"
       x1="363.57001"
       y1="202.3"
       x2="363.57001"
       y2="200.8"
       id="line28" />
  </g>
  <rect
     class="cls-3"
     x="174.72556"
     y="24.882986"
     width="35.650867"
     height="29.886818"
     id="rect32"
     style="stroke-width:1.13466;fill:#727171;fill-opacity:1" />
  <rect
     class="cls-3"
     x="267.86942"
     y="54.76981"
     width="35.650867"
     height="29.886818"
     id="rect34"
     style="stroke-width:1.13466;fill:#727171;fill-opacity:1" />
  <rect
     class="cls-3"
     x="267.86942"
     y="84.656624"
     width="35.650867"
     height="29.886818"
     id="rect36"
     style="stroke-width:1.13466;fill:#727171;fill-opacity:1" />
  <rect
     class="cls-3"
     x="267.86942"
     y="114.5321"
     width="35.650867"
     height="29.886818"
     id="rect38"
     style="stroke-width:1.13466;fill:#727171;fill-opacity:1" />
  <rect
     class="cls-3"
     x="267.86942"
     y="144.56641"
     width="35.650867"
     height="29.886818"
     id="rect40"
     style="stroke-width:1.13466;fill:#727171;fill-opacity:1" />
  <rect
     class="cls-3"
     x="267.86942"
     y="174.7142"
     width="35.650867"
     height="29.886818"
     id="rect42"
     style="stroke-width:1.13466;fill:#727171;fill-opacity:1" />
  <rect
     class="cls-3"
     x="210.3764"
     y="24.882986"
     width="35.650867"
     height="29.886818"
     id="rect44"
     style="stroke-width:1.13466;fill:#727171;fill-opacity:1" />
  <rect
     class="cls-10"
     x="246.02728"
     y="36.751484"
     width="27.86713"
     height="17.870819"
     id="rect46"
     style="stroke-width:1.13466" />
  <polyline
     class="cls-3"
     points="370.92 163.3 418.4 163.3 418.4 200.8 370.92 200.8"
     id="polyline48"
     transform="matrix(1.1346552,0,0,1.1346552,-81.6044,-23.249085)"
     style="fill:#727171;fill-opacity:1" />
  <polyline
     class="cls-8"
     points="116.04 79.33 87.06 79.33 87.06 59.4 116.04 59.4"
     id="polyline50"
     transform="matrix(1.1346552,0,0,1.1346552,-81.6044,-23.249085)" />
  <polyline
     class="cls-8"
     points="339.77 68.64 313.3 68.64 313.3 52.88 339.77 52.88"
     id="polyline52"
     transform="matrix(1.1346552,0,0,1.1346552,-81.6044,-23.249085)" />
  <polyline
     class="cls-8"
     points="370.92 179.43 370.92 200.8 355.62 200.8 355.62 179.43"
     id="polyline54"
     transform="matrix(1.1346552,0,0,1.1346552,-81.6044,-23.249085)" />
  <polyline
     class="cls-7"
     points="355.24 42.3 355.24 26.5 313.3 26.5 313.3 42.3"
     id="polyline56"
     transform="matrix(1.1346552,0,0,1.1346552,-81.6044,-23.249085)"
     style="fill:#727171;fill-opacity:1" />
  <polyline
     class="cls-7"
     points="208.57 260.56 218.63 260.56 218.63 244.38 208.57 244.38"
     id="polyline58"
     transform="matrix(1.1346552,0,0,1.1346552,-81.6044,-23.249085)"
     style="fill:#727171;fill-opacity:1" />
  <line
     class="cls-9"
     x1="303.52029"
     y1="204.58968"
     x2="321.90167"
     y2="204.58968"
     id="line60"
     style="stroke-width:1.13466" />
  <rect
     class="cls-3"
     x="69.87207"
     y="253.91315"
     width="49.516354"
     height="42.560913"
     id="rect62"
     style="stroke-width:1.13466;fill:#727171;fill-opacity:1" />
  <rect
     class="cls-3"
     x="69.87207"
     y="216.91203"
     width="49.516354"
     height="36.989758"
     id="rect64"
     style="stroke-width:1.13466;fill:#727171;fill-opacity:1" />
  <rect
     class="cls-3"
     x="69.87207"
     y="168.89342"
     width="66.581566"
     height="48.018608"
     id="rect66"
     style="stroke-width:1.13466;fill:#727171;fill-opacity:1" />
  <polyline
     class="cls-8"
     points="208.63 260.4 208.63 281.78 193.33 281.78 193.33 260.4"
     id="polyline68"
     transform="matrix(1.1346552,0,0,1.1346552,-81.6044,-23.249085)" />
  <line
     class="cls-9"
     x1="119.37708"
     y1="296.47406"
     x2="137.7585"
     y2="296.47406"
     id="line70"
     style="stroke-width:1.13466" />
  <line
     class="cls-9"
     x1="67.772949"
     y1="54.76981"
     x2="67.772949"
     y2="81.105156"
     id="line72"
     style="stroke-width:1.13466" />
  <line
     class="cls-9"
     x1="50.060989"
     y1="66.28656"
     x2="50.060989"
     y2="81.105156"
     id="line74"
     style="stroke-width:1.13466" />
  <line
     class="cls-9"
     x1="136.45363"
     y1="216.91203"
     x2="136.45363"
     y2="237.01813"
     id="line76"
     style="stroke-width:1.13466" />
  <g
     id="_階段-2"
     data-name="階段"
     transform="matrix(1.1346552,0,0,1.1346552,-81.6044,-23.249085)">
    <polygon
       class="cls-21"
       points="330.02,58.35 330.02,60.2 327.31,60.2 327.31,62.05 324.61,62.05 324.61,63.9 321.9,63.9 321.9,65.76 321.02,65.76 321.02,62.91 323.72,62.91 323.72,61.05 326.43,61.05 326.43,59.2 329.14,59.2 329.14,57.36 332.06,57.36 332.06,58.35 "
       id="polygon215" />
    <g
       id="g221">
      <polygon
         class="cls-21"
         points="322.84,56.98 322.84,55.94 321.89,55.94 321.89,58.79 324.44,58.79 324.44,57.73 323.51,57.73 325.54,55.45 324.87,54.7 "
         id="polygon217" />
      <polygon
         class="cls-21"
         points="328.64,63.79 329.56,63.79 327.54,66.07 328.21,66.82 330.23,64.55 330.23,65.58 331.18,65.58 331.18,62.73 328.64,62.73 "
         id="polygon219" />
    </g>
  </g>
  <g
     id="_階段-3"
     data-name="階段"
     transform="matrix(1.1346552,0,0,1.1346552,-81.6044,-23.249085)">
    <polygon
       class="cls-21"
       points="105.43,66.69 105.43,68.74 102.41,68.74 102.41,70.8 99.4,70.8 99.4,72.87 96.38,72.87 96.38,74.93 95.4,74.93 95.4,71.76 98.41,71.76 98.41,69.69 101.43,69.69 101.43,67.63 104.44,67.63 104.44,65.58 107.7,65.58 107.7,66.69 "
       id="polygon224" />
    <g
       id="g230">
      <polygon
         class="cls-21"
         points="97.43,65.15 97.43,64 96.37,64 96.37,67.18 99.21,67.18 99.21,65.99 98.18,65.99 100.44,63.46 99.69,62.62 "
         id="polygon226" />
      <polygon
         class="cls-21"
         points="103.89,72.74 104.92,72.74 102.66,75.28 103.41,76.12 105.67,73.58 105.67,74.74 106.72,74.74 106.72,71.56 103.89,71.56 "
         id="polygon228" />
    </g>
  </g>
  <g
     id="_階段-4"
     data-name="階段"
     transform="matrix(1.1346552,0,0,1.1346552,-81.6044,-23.249085)">
    <polygon
       class="cls-21"
       points="366.77,187.76 366.77,189.37 364.13,189.37 364.13,190.98 361.49,190.98 361.49,192.6 358.85,192.6 358.85,194.22 357.99,194.22 357.99,191.73 360.63,191.73 360.63,190.12 363.27,190.12 363.27,188.51 365.91,188.51 365.91,186.9 368.76,186.9 368.76,187.76 "
       id="polygon233" />
    <g
       id="g239">
      <polygon
         class="cls-21"
         points="359.77,186.56 359.77,185.66 358.84,185.66 358.84,188.15 361.33,188.15 361.33,187.22 360.42,187.22 362.4,185.24 361.75,184.58 "
         id="polygon235" />
      <polygon
         class="cls-21"
         points="365.42,192.5 366.33,192.5 364.35,194.49 365,195.14 366.98,193.16 366.98,194.07 367.91,194.07 367.91,191.58 365.42,191.58 "
         id="polygon237" />
    </g>
  </g>
  <g
     id="_男子-2"
     data-name="男子"
     transform="matrix(1.1346552,0,0,1.1346552,-81.6044,-23.249085)">
    <circle
       class="cls-21"
       cx="334.48001"
       cy="29.370001"
       r="1.03"
       id="circle242" />
    <path
       class="cls-21"
       d="m 335.72,30.89 h -2.48 c -0.25,0 -0.45,0.21 -0.45,0.46 l 0.11,4.21 c 0,0.16 0.15,0.25 0.29,0.28 l 0.42,0.14 0.19,4.08 c 0.01,0.23 0.25,0.41 0.54,0.41 h 0.29 c 0.29,0 0.53,-0.18 0.54,-0.41 l 0.19,-4.08 0.42,-0.14 c 0.14,-0.03 0.28,-0.12 0.29,-0.28 l 0.11,-4.21 c 0,-0.25 -0.2,-0.46 -0.45,-0.46 z"
       id="path244" />
  </g>
  <g
     id="_男子-3"
     data-name="男子"
     transform="matrix(1.1346552,0,0,1.1346552,-81.6044,-23.249085)">
    <circle
       class="cls-21"
       cx="213.60001"
       cy="247.44"
       r="1.03"
       id="circle247" />
    <path
       class="cls-21"
       d="m 214.84,248.96 h -2.48 c -0.25,0 -0.45,0.21 -0.45,0.46 l 0.11,4.21 c 0,0.16 0.15,0.25 0.29,0.28 l 0.42,0.14 0.19,4.08 c 0.01,0.23 0.25,0.41 0.54,0.41 h 0.29 c 0.29,0 0.53,-0.18 0.54,-0.41 l 0.19,-4.08 0.42,-0.14 c 0.14,-0.03 0.28,-0.12 0.29,-0.28 l 0.11,-4.21 c 0,-0.25 -0.2,-0.46 -0.45,-0.46 z"
       id="path249" />
  </g>
  <g
     id="g275"
     transform="matrix(1.1346552,0,0,1.1346552,-81.6044,-23.249085)">
    <polyline
       class="cls-8"
       points="354.47 163.3 370.86 163.3 370.86 147.82 354.47 147.82"
       id="polyline252" />
    <g
       id="EV-2"
       data-name="EV">
      <path
         class="cls-21"
         d="m 358.8,153.86 v 7.97 h 8.18 v -7.97 z m 7.39,7.21 h -6.6 v -6.46 h 6.6 z"
         id="path254" />
      <path
         class="cls-21"
         d="m 363.57,156.45 c 0,0.36 -0.31,0.65 -0.68,0.65 -0.37,0 -0.68,-0.29 -0.68,-0.65 0,-0.36 0.31,-0.65 0.68,-0.65 0.37,0 0.68,0.29 0.68,0.65 z"
         id="path256" />
      <path
         class="cls-21"
         d="m 363.43,160.47 c -0.01,0.24 -0.22,0.44 -0.47,0.44 h -0.13 c -0.25,0 -0.46,-0.2 -0.47,-0.44 l -0.12,-2.66 c -0.01,-0.24 0.18,-0.44 0.43,-0.44 h 0.45 c 0.25,0 0.45,0.2 0.43,0.44 z"
         id="path258" />
      <path
         class="cls-21"
         d="m 361.52,156.45 c 0,0.36 -0.31,0.65 -0.68,0.65 -0.37,0 -0.68,-0.29 -0.68,-0.65 0,-0.36 0.31,-0.65 0.68,-0.65 0.37,0 0.68,0.29 0.68,0.65 z"
         id="path260" />
      <path
         class="cls-21"
         d="m 361.37,160.47 c -0.01,0.24 -0.22,0.44 -0.47,0.44 h -0.13 c -0.25,0 -0.46,-0.2 -0.47,-0.44 l -0.12,-2.66 c -0.01,-0.24 0.18,-0.44 0.43,-0.44 h 0.45 c 0.25,0 0.45,0.2 0.43,0.44 z"
         id="path262" />
      <path
         class="cls-21"
         d="m 365.62,156.45 c 0,0.36 -0.31,0.65 -0.68,0.65 -0.37,0 -0.68,-0.29 -0.68,-0.65 0,-0.36 0.31,-0.65 0.68,-0.65 0.37,0 0.68,0.29 0.68,0.65 z"
         id="path264" />
      <path
         class="cls-21"
         d="m 365.48,160.47 c -0.01,0.24 -0.22,0.44 -0.47,0.44 h -0.13 c -0.25,0 -0.46,-0.2 -0.47,-0.44 l -0.12,-2.66 c -0.01,-0.24 0.18,-0.44 0.43,-0.44 h 0.45 c 0.25,0 0.45,0.2 0.43,0.44 z"
         id="path266" />
      <g
         id="g272">
        <polygon
           class="cls-21"
           points="360.66,153.18 360.66,151.26 360.08,151.81 359.49,151.24 361.08,149.72 361.14,149.78 362.67,151.25 362.07,151.82 361.5,151.27 361.5,153.18 "
           id="polygon268" />
        <polygon
           class="cls-21"
           points="364.63,153.15 363.1,151.69 363.7,151.12 364.27,151.66 364.27,149.75 365.11,149.75 365.11,151.67 365.68,151.12 366.28,151.69 364.69,153.22 "
           id="polygon270" />
      </g>
    </g>
  </g>
  <g
     id="_階段-5"
     data-name="階段"
     transform="matrix(1.1346552,0,0,1.1346552,-81.6044,-23.249085)">
    <polygon
       class="cls-21"
       points="204.48,268.74 204.48,270.34 201.84,270.34 201.84,271.95 199.2,271.95 199.2,273.57 196.56,273.57 196.56,275.19 195.7,275.19 195.7,272.71 198.34,272.71 198.34,271.09 200.98,271.09 200.98,269.48 203.62,269.48 203.62,267.87 206.47,267.87 206.47,268.74 "
       id="polygon293" />
    <g
       id="g299">
      <polygon
         class="cls-21"
         points="197.48,267.54 197.48,266.63 196.55,266.63 196.55,269.12 199.04,269.12 199.04,268.19 198.13,268.19 200.11,266.21 199.46,265.55 "
         id="polygon295" />
      <polygon
         class="cls-21"
         points="203.13,273.48 204.04,273.48 202.06,275.46 202.71,276.11 204.69,274.13 204.69,275.04 205.62,275.04 205.62,272.55 203.13,272.55 "
         id="polygon297" />
    </g>
  </g>
  <g
     id="g325"
     transform="matrix(1.1346552,0,0,1.1346552,-81.6044,-23.249085)">
    <polyline
       class="cls-8"
       points="192.18 244.27 208.57 244.27 208.57 228.79 192.18 228.79"
       id="polyline302" />
    <g
       id="EV-3"
       data-name="EV">
      <path
         class="cls-21"
         d="m 196.51,234.83 v 7.97 h 8.18 v -7.97 z m 7.39,7.21 h -6.6 v -6.46 h 6.6 z"
         id="path304" />
      <path
         class="cls-21"
         d="m 201.28,237.42 c 0,0.36 -0.31,0.65 -0.68,0.65 -0.37,0 -0.68,-0.29 -0.68,-0.65 0,-0.36 0.31,-0.65 0.68,-0.65 0.37,0 0.68,0.29 0.68,0.65 z"
         id="path306" />
      <path
         class="cls-21"
         d="m 201.13,241.44 c -0.01,0.24 -0.22,0.44 -0.47,0.44 h -0.13 c -0.25,0 -0.46,-0.2 -0.47,-0.44 l -0.12,-2.66 c -0.01,-0.24 0.18,-0.44 0.43,-0.44 h 0.45 c 0.25,0 0.45,0.2 0.43,0.44 z"
         id="path308" />
      <path
         class="cls-21"
         d="m 199.23,237.42 c 0,0.36 -0.31,0.65 -0.68,0.65 -0.37,0 -0.68,-0.29 -0.68,-0.65 0,-0.36 0.31,-0.65 0.68,-0.65 0.37,0 0.68,0.29 0.68,0.65 z"
         id="path310" />
      <path
         class="cls-21"
         d="m 199.08,241.44 c -0.01,0.24 -0.22,0.44 -0.47,0.44 h -0.13 c -0.25,0 -0.46,-0.2 -0.47,-0.44 l -0.12,-2.66 c -0.01,-0.24 0.18,-0.44 0.43,-0.44 h 0.45 c 0.25,0 0.45,0.2 0.43,0.44 z"
         id="path312" />
      <path
         class="cls-21"
         d="m 203.33,237.42 c 0,0.36 -0.31,0.65 -0.68,0.65 -0.37,0 -0.68,-0.29 -0.68,-0.65 0,-0.36 0.31,-0.65 0.68,-0.65 0.37,0 0.68,0.29 0.68,0.65 z"
         id="path314" />
      <path
         class="cls-21"
         d="m 203.19,241.44 c -0.01,0.24 -0.22,0.44 -0.47,0.44 h -0.13 c -0.25,0 -0.46,-0.2 -0.47,-0.44 L 202,238.78 c -0.01,-0.24 0.18,-0.44 0.43,-0.44 h 0.45 c 0.25,0 0.45,0.2 0.43,0.44 z"
         id="path316" />
      <g
         id="g322">
        <polygon
           class="cls-21"
           points="198.37,234.15 198.37,232.24 197.79,232.79 197.2,232.21 198.79,230.69 198.85,230.75 200.38,232.22 199.78,232.79 199.21,232.24 199.21,234.15 "
           id="polygon318" />
        <polygon
           class="cls-21"
           points="202.34,234.12 200.81,232.66 201.41,232.09 201.98,232.64 201.98,230.73 202.82,230.73 202.82,232.64 203.39,232.09 203.99,232.67 202.4,234.19 "
           id="polygon320" />
      </g>
    </g>
  </g>
  <polyline
     class="cls-9"
     points="116.04 59.78 116.04 26.69 355.26 26.47 354.97 147.85 370.93 147.79 370.91 163.3 418.4 163.3"
     id="polyline343"
     transform="matrix(1.1346552,0,0,1.1346552,-81.6044,-23.249085)" />
  <line
     class="cls-2"
     x1="53.124557"
     y1="89.660454"
     x2="64.709381"
     y2="78.07563"
     id="line374"
     style="fill:#717272;fill-opacity:1;stroke:#000000;stroke-opacity:1" />
  <line
     class="cls-2"
     x1="64.709381"
     y1="89.660454"
     x2="53.124557"
     y2="78.07563"
     id="line376"
     style="fill:#717272;fill-opacity:1;stroke:#000000;stroke-opacity:1" />
  <g
     id="_1F"
     data-name="1F"
     transform="matrix(1.1346552,0,0,1.1346552,-81.6044,-23.249085)">
    <g
       id="g440">
      <ellipse
         class="cls-23"
         cx="386.76001"
         cy="46.299999"
         rx="19.57"
         ry="19.620001"
         id="ellipse432" />
      <text
         class="cls-22"
         transform="translate(374.05,57.03)"
         id="text438"><tspan
           class="cls-30"
           x="0"
           y="0"
           id="tspan434">4</tspan><tspan
           class="cls-29"
           x="16.209999"
           y="0.56999999"
           id="tspan436">F</tspan></text>
    </g>
    <g
       id="g450">
      <ellipse
         class="cls-23"
         cx="105.14"
         cy="188.66"
         rx="19.57"
         ry="19.620001"
         id="ellipse442" />
      <text
         class="cls-22"
         transform="translate(92.42,199.39)"
         id="text448"><tspan
           class="cls-30"
           x="0"
           y="0"
           id="tspan444">5</tspan><tspan
           class="cls-29"
           x="16.209999"
           y="0.56999999"
           id="tspan446">F</tspan></text>
    </g>
  </g>
</svg>
