<?xml version="1.0" encoding="UTF-8" standalone="no"?>
<svg
   viewBox="0 0 400.00001 501.8123"
   version="1.1"
   id="svg367"
   sodipodi:docname="entire_map.svg"
   width="400"
   height="501.81229"
   inkscape:version="1.2.2 (732a01da63, 2022-12-09)"
   xmlns:inkscape="http://www.inkscape.org/namespaces/inkscape"
   xmlns:sodipodi="http://sodipodi.sourceforge.net/DTD/sodipodi-0.dtd"
   xmlns="http://www.w3.org/2000/svg"
   xmlns:svg="http://www.w3.org/2000/svg">
  <sodipodi:namedview
     id="namedview369"
     pagecolor="#ffffff"
     bordercolor="#000000"
     borderopacity="0.25"
     inkscape:showpageshadow="2"
     inkscape:pageopacity="0.0"
     inkscape:pagecheckerboard="0"
     inkscape:deskcolor="#d1d1d1"
     showgrid="false"
     inkscape:zoom="2.1311948"
     inkscape:cx="239.30239"
     inkscape:cy="274.02469"
     inkscape:window-width="1920"
     inkscape:window-height="974"
     inkscape:window-x="-11"
     inkscape:window-y="-11"
     inkscape:window-maximized="1"
     inkscape:current-layer="svg367" />
  <defs
     id="defs51">
    <style
       id="style2">
      .cls-1 {
        fill: #939393;
      }

      .cls-2 {
        opacity: .85;
      }

      .cls-3 {
        fill: #8e58a1;
      }

      .cls-4 {
        letter-spacing: -.53em;
      }

      .cls-5 {
        letter-spacing: .25em;
      }

      .cls-6 {
        letter-spacing: -.53em;
      }

      .cls-7 {
        fill: #686868;
        stroke: #eaeaea;
        stroke-width: 1.5px;
      }

      .cls-7, .cls-8, .cls-9, .cls-10 {
        stroke-miterlimit: 10;
      }

      .cls-11, .cls-12, .cls-13 {
        font-size: 9px;
      }

      .cls-14 {
        letter-spacing: -.02em;
      }

      .cls-15 {
        letter-spacing: -.17em;
      }

      .cls-15, .cls-16, .cls-17, .cls-18, .cls-19, .cls-20 {
        font-size: 10px;
      }

      .cls-12, .cls-21, .cls-22, .cls-23, .cls-24, .cls-13, .cls-25, .cls-26, .cls-27, .cls-28, .cls-29 {
        font-family: sans-serif;
      }

      .cls-12, .cls-22, .cls-30, .cls-25, .cls-26, .cls-27, .cls-28 {
        fill: #231815;
      }

      .cls-8, .cls-9 {
        stroke-width: 2px;
      }

      .cls-8, .cls-9, .cls-31, .cls-10 {
        fill: none;
      }

      .cls-8, .cls-10 {
        stroke: #231815;
      }

      .cls-32 {
        fill: url(#_6_lpi_50_);
      }

      .cls-9 {
        stroke: #424142;
      }

      .cls-21, .cls-23, .cls-33, .cls-29 {
        font-size: 14px;
      }

      .cls-21, .cls-34 {
        letter-spacing: -.03em;
      }

      .cls-35 {
        letter-spacing: -.03em;
      }

      .cls-36, .cls-24, .cls-27 {
        letter-spacing: -.03em;
      }

      .cls-22, .cls-24, .cls-37, .cls-27, .cls-28 {
        font-size: 20px;
      }

      .cls-22, .cls-25 {
        glyph-orientation-vertical: 0deg;
        text-orientation: upright;
        writing-mode: tb;
      }

      .cls-38 {
        fill: #919191;
        stroke: #c9c9c9;
        stroke-width: 6px;
      }

      .cls-39 {
        letter-spacing: -.11em;
      }

      .cls-40 {
        letter-spacing: -.8em;
      }

      .cls-41 {
        fill: #2c69b3;
      }

      .cls-16, .cls-17 {
        letter-spacing: -.1em;
      }

      .cls-42 {
        letter-spacing: -.2em;
      }

      .cls-43 {
        fill: #eaeaea;
      }

      .cls-44 {
        fill: #767777;
        opacity: .4;
      }

      .cls-45 {
        fill: #0c945c;
      }

      .cls-33, .cls-46, .cls-17, .cls-20 {
        font-family: sans-serif;
      }

      .cls-47 {
        opacity: .69;
      }

      .cls-47, .cls-48, .cls-49, .cls-50, .cls-51, .cls-52 {
        fill: #fff;
      }

      .cls-48 {
        opacity: .8;
      }

      .cls-53 {
        letter-spacing: -.05em;
      }

      .cls-13, .cls-54, .cls-55, .cls-56, .cls-57 {
        fill: #424142;
      }

      .cls-58 {
        letter-spacing: -.05em;
      }

      .cls-59, .cls-46, .cls-55 {
        font-size: 11px;
      }

      .cls-54 {
        font-size: 16px;
      }

      .cls-54, .cls-55 {
        font-family: sans-serif;
      }

      .cls-10 {
        stroke-linecap: round;
      }

      .cls-60 {
        letter-spacing: -.52em;
      }

      .cls-61 {
        fill: #deebb5;
      }

      .cls-62 {
        letter-spacing: -.52em;
      }

      .cls-63 {
        letter-spacing: -.55em;
      }

      .cls-64 {
        letter-spacing: -.03em;
      }

      .cls-65 {
        letter-spacing: -.52em;
      }

      .cls-66 {
        letter-spacing: -.3em;
      }

      .cls-67 {
        letter-spacing: -.38em;
      }

      .cls-67, .cls-68 {
        font-size: 14.69px;
      }

      .cls-49 {
        opacity: .71;
      }

      .cls-18 {
        letter-spacing: -.49em;
      }

      .cls-69 {
        letter-spacing: -.5em;
      }

      .cls-70 {
        fill: #51b9eb;
      }

      .cls-71 {
        letter-spacing: -.13em;
      }

      .cls-50 {
        opacity: .7;
      }

      .cls-19 {
        letter-spacing: 0em;
      }

      .cls-51 {
        opacity: .65;
      }

      .cls-72 {
        fill: #e6952b;
      }

      .cls-73 {
        letter-spacing: -.2em;
      }

      .cls-57 {
        fill-rule: evenodd;
      }

      .cls-74 {
        letter-spacing: -.4em;
      }

      .cls-20 {
        letter-spacing: -.4em;
      }

      .cls-52 {
        opacity: .57;
      }

      .cls-29 {
        letter-spacing: -.35em;
      }
    </style>
    <pattern
       id="_6_lpi_50_"
       data-name="6 lpi 50%"
       x="0"
       y="0"
       width="72"
       height="72"
       patternTransform="translate(-1801.98 -7828.04) rotate(-45) scale(.55)"
       patternUnits="userSpaceOnUse"
       viewBox="0 0 72 72">
      <g
         id="g48">
        <rect
           class="cls-31"
           width="72"
           height="72"
           id="rect4" />
        <g
           id="g18">
          <line
             class="cls-38"
             x1="71.75"
             y1="66"
             x2="144.25"
             y2="66"
             id="line6" />
          <line
             class="cls-38"
             x1="71.75"
             y1="42"
             x2="144.25"
             y2="42"
             id="line8" />
          <line
             class="cls-38"
             x1="71.75"
             y1="18"
             x2="144.25"
             y2="18"
             id="line10" />
          <line
             class="cls-38"
             x1="71.75"
             y1="54"
             x2="144.25"
             y2="54"
             id="line12" />
          <line
             class="cls-38"
             x1="71.75"
             y1="30"
             x2="144.25"
             y2="30"
             id="line14" />
          <line
             class="cls-38"
             x1="71.75"
             y1="6"
             x2="144.25"
             y2="6"
             id="line16" />
        </g>
        <g
           id="g32">
          <line
             class="cls-38"
             x1="-.25"
             y1="66"
             x2="72.25"
             y2="66"
             id="line20" />
          <line
             class="cls-38"
             x1="-.25"
             y1="42"
             x2="72.25"
             y2="42"
             id="line22" />
          <line
             class="cls-38"
             x1="-.25"
             y1="18"
             x2="72.25"
             y2="18"
             id="line24" />
          <line
             class="cls-38"
             x1="-.25"
             y1="54"
             x2="72.25"
             y2="54"
             id="line26" />
          <line
             class="cls-38"
             x1="-.25"
             y1="30"
             x2="72.25"
             y2="30"
             id="line28" />
          <line
             class="cls-38"
             x1="-.25"
             y1="6"
             x2="72.25"
             y2="6"
             id="line30" />
        </g>
        <g
           id="g46">
          <line
             class="cls-38"
             x1="-72.25"
             y1="66"
             x2=".25"
             y2="66"
             id="line34" />
          <line
             class="cls-38"
             x1="-72.25"
             y1="42"
             x2=".25"
             y2="42"
             id="line36" />
          <line
             class="cls-38"
             x1="-72.25"
             y1="18"
             x2=".25"
             y2="18"
             id="line38" />
          <line
             class="cls-38"
             x1="-72.25"
             y1="54"
             x2=".25"
             y2="54"
             id="line40" />
          <line
             class="cls-38"
             x1="-72.25"
             y1="30"
             x2=".25"
             y2="30"
             id="line42" />
          <line
             class="cls-38"
             x1="-72.25"
             y1="6"
             x2=".25"
             y2="6"
             id="line44" />
        </g>
      </g>
    </pattern>
  </defs>
  <g
     id="_背景"
     data-name="背景"
     transform="scale(0.6890849)">
    <rect
       class="cls-43"
       width="580.10999"
       height="728.22998"
       id="rect53"
       x="0"
       y="0" />
  </g>
  <g
     id="_路"
     data-name="路"
     transform="scale(0.6890849)">
    <rect
       class="cls-32"
       x="279.14999"
       y="389.73001"
       width="31.139999"
       height="21.940001"
       id="rect56" />
    <polygon
       class="cls-1"
       points="182.75,65.09 206.77,65.09 206.77,41.53 158.73,41.53 158.73,65.09 158.73,86.26 159.19,86.26 159.19,90.01 182.75,90.01 "
       id="polygon58" />
    <g
       id="_グループ正門_"
       data-name="&amp;lt;グループ正門&amp;gt;">
      <line
         class="cls-9"
         x1="489.72"
         y1="684.96997"
         x2="448.26999"
         y2="684.96997"
         id="line60" />
      <line
         class="cls-9"
         x1="538.64001"
         y1="684.81"
         x2="573.71997"
         y2="684.81"
         id="line62" />
      <line
         class="cls-9"
         x1="298.20001"
         y1="685.19"
         x2="6.9699998"
         y2="685.19"
         id="line64" />
      <rect
         id="_通用右_"
         data-name="&amp;lt;通用右&amp;gt;"
         class="cls-56"
         x="527.66998"
         y="677.40997"
         width="15.56"
         height="15.56"
         transform="rotate(180,535.45,685.185)" />
      <rect
         id="_通用左_"
         data-name="&amp;lt;通用左&amp;gt;"
         class="cls-56"
         x="481.94"
         y="677.03998"
         width="15.56"
         height="15.56"
         transform="rotate(180,489.725,684.815)" />
      <rect
         id="_正門右_"
         data-name="&amp;lt;正門右&amp;gt;"
         class="cls-56"
         x="440.48999"
         y="677.03998"
         width="15.56"
         height="15.56"
         transform="rotate(180,448.265,684.815)" />
      <rect
         id="_正門左_"
         data-name="&amp;lt;正門左&amp;gt;"
         class="cls-56"
         x="291.17999"
         y="677.19"
         width="15.56"
         height="15.56"
         transform="rotate(180,298.955,684.97)" />
      <text
         class="cls-54"
         transform="translate(358.93,690.89)"
         id="text72"><tspan
           x="0"
           y="0"
           id="tspan70">正門</tspan></text>
    </g>
    <g
       id="_グループ西門_"
       data-name="&amp;lt;グループ西門&amp;gt;">
      <line
         class="cls-9"
         x1="134.25999"
         y1="6.6399999"
         x2="134.25999"
         y2="183.39999"
         id="line75" />
      <line
         class="cls-9"
         x1="86.260002"
         y1="183.77"
         x2="7.1199999"
         y2="183.77"
         id="line77" />
      <text
         class="cls-55"
         transform="translate(99.03,187.63)"
         id="text81"><tspan
           x="0"
           y="0"
           id="tspan79">西門</tspan></text>
      <rect
         id="_正門左_-2"
         data-name="&amp;lt;正門左&amp;gt;"
         class="cls-56"
         x="81.400002"
         y="178.53999"
         width="9.7299995"
         height="9.7299995"
         transform="rotate(180,86.26,183.4)" />
      <rect
         id="_正門左_-3"
         data-name="&amp;lt;正門左&amp;gt;"
         class="cls-56"
         x="129.39"
         y="178.53999"
         width="9.7299995"
         height="9.7299995"
         transform="rotate(180,134.255,183.4)" />
    </g>
    <g
       id="_交通機関案内"
       data-name="交通機関案内">
      <text
         class="cls-13"
         transform="translate(39.29,704.71)"
         id="text110"><tspan
           x="0"
           y="0"
           id="tspan86">車道</tspan><tspan
           class="cls-74"
           x="18"
           y="0"
           id="tspan88">駅</tspan><tspan
           x="23.4"
           y="0"
           id="tspan90">（桜通線</tspan><tspan
           class="cls-69"
           x="59.400002"
           y="0"
           id="tspan92">）</tspan><tspan
           x="0"
           y="12"
           id="tspan94">千種</tspan><tspan
           class="cls-74"
           x="18"
           y="12"
           id="tspan96">駅</tspan><tspan
           x="23.4"
           y="12"
           id="tspan98">（東山</tspan><tspan
           class="cls-42"
           x="50.400002"
           y="12"
           id="tspan100">線・</tspan><tspan
           x="64.800003"
           y="12"
           id="tspan102">J</tspan><tspan
           class="cls-5"
           x="69.82"
           y="12"
           id="tspan104">R</tspan><tspan
           x="78.660004"
           y="12"
           id="tspan106">線</tspan><tspan
           class="cls-69"
           x="87.660004"
           y="12"
           id="tspan108">）</tspan></text>
      <polygon
         class="cls-57"
         points="10.53,707.35 10.4,707.35 20.6,697.25 25.8,697.26 17.67,705.32 34.94,705.35 34.93,709.44 17.6,709.4 25.76,717.56 20.59,717.55 10.4,707.37 10.52,707.37 "
         id="polygon112" />
    </g>
    <polygon
       class="cls-32"
       points="127.61,281.88 127.61,258.03 141.22,258.03 141.22,257.99 142.22,257.99 142.22,224.75 141.22,224.75 133.29,224.75 127.61,224.75 127.61,191.18 94.33,191.18 94.33,224.75 81.48,224.75 81.48,258.03 94.33,258.03 94.33,281.88 94.33,291.6 94.33,315.16 277.01,315.16 277.01,330.55 310.29,330.55 310.29,315.16 396.27,315.16 396.27,400.7 395.42,400.7 395.42,549.52 98.11,549.52 98.11,668.62 395.42,668.62 395.42,668.41 455.91,668.41 455.91,207.38 396.27,207.38 396.27,281.88 310.29,281.88 310.29,266.49 277.01,266.49 277.01,281.88 "
       id="polygon115" />
  </g>
  <rect
     class="cls-1"
     x="-273.06366"
     y="-143.32277"
     width="53.066429"
     height="64.443214"
     transform="scale(-1)"
     id="rect118"
     style="stroke-width:0.689085" />
  <rect
     class="cls-1"
     x="-460.59125"
     y="314.16068"
     width="101.47464"
     height="28.65904"
     transform="rotate(-90)"
     id="rect120"
     style="stroke-width:0.689085" />
  <rect
     class="cls-41"
     x="-272.47794"
     y="-378.66592"
     width="66.992836"
     height="39.098679"
     transform="scale(-1)"
     id="rect122"
     style="stroke-width:0.689085" />
  <rect
     class="cls-70"
     x="-272.47794"
     y="-324.45563"
     width="104.96142"
     height="40.780045"
     transform="scale(-1)"
     id="rect124"
     style="stroke-width:0.689085" />
  <rect
     class="cls-45"
     x="-272.47794"
     y="-268.56396"
     width="104.96142"
     height="40.780045"
     transform="scale(-1)"
     id="rect126"
     style="stroke-width:0.689085" />
  <rect
     class="cls-61"
     x="-392.30981"
     y="-350.51682"
     width="78.149124"
     height="187.18303"
     transform="scale(-1)"
     id="rect128"
     style="stroke-width:0.689085" />
  <polygon
     class="cls-72"
     points="396.42,266.49 396.42,207.31 201.4,207.31 201.4,85.17 142.22,85.17 142.22,207.31 142.22,232.66 142.22,266.49 "
     id="polygon130"
     transform="scale(0.6890849)" />
  <rect
     class="cls-72"
     x="-56.146637"
     y="-227.78391"
     width="47.174751"
     height="82.993385"
     transform="scale(-1)"
     id="rect132"
     style="stroke-width:0.689085" />
  <polygon
     class="cls-3"
     points="455.54,59.89 455.54,26.06 201.34,26.06 201.34,85.24 396.37,85.24 396.37,207.38 455.54,207.38 455.54,185.16 513.2,185.16 513.2,137.2 455.54,137.2 455.54,85.24 "
     id="polygon134"
     transform="scale(0.6890849)" />
  <rect
     class="cls-1"
     x="245.28665"
     y="401.64001"
     width="25.565048"
     height="36.597298"
     id="rect136"
     style="stroke-width:0.689085" />
  <g
     id="_高校校舎セット"
     data-name="高校校舎セット"
     transform="scale(0.6890849)">
    <rect
       id="_長方形高校_"
       data-name="&amp;lt;長方形高校&amp;gt;"
       class="cls-52"
       x="224.38"
       y="226.13"
       width="94.510002"
       height="22.07" />
    <text
       class="cls-27"
       transform="translate(232.65,244.63)"
       id="text144"><tspan
         x="0"
         y="0"
         id="tspan142">高校校舎</tspan></text>
  </g>
  <g
     id="_中学校舎セット"
     data-name="中学校舎セット"
     transform="scale(0.6890849)">
    <rect
       id="_長方形_"
       data-name="&amp;lt;長方形&amp;gt;"
       class="cls-50"
       x="262.94"
       y="43.919998"
       width="94.510002"
       height="22.07" />
    <text
       class="cls-27"
       transform="translate(271.21,62.42)"
       id="text150"><tspan
         x="0"
         y="0"
         id="tspan148">中学校舎</tspan></text>
  </g>
  <g
     id="_食堂セット"
     data-name="食堂セット"
     transform="scale(0.6890849)">
    <rect
       id="_長方形食堂_"
       data-name="&amp;lt;長方形食堂&amp;gt;"
       class="cls-47"
       x="268.89999"
       y="349.10999"
       width="99.970001"
       height="22.07" />
    <text
       class="cls-28"
       transform="translate(274.79,367.61)"
       id="text160"><tspan
         class="cls-36"
         x="0"
         y="0"
         id="tspan154">食</tspan><tspan
         class="cls-66"
         x="19.32"
         y="0"
         id="tspan156">堂・</tspan><tspan
         class="cls-64"
         x="47.32"
         y="0"
         id="tspan158">講堂</tspan></text>
  </g>
  <g
     id="_管理棟セット"
     data-name="管理棟セット"
     transform="scale(0.6890849)">
    <rect
       id="_長方形_-2"
       data-name="&amp;lt;長方形&amp;gt;"
       class="cls-50"
       x="325.14001"
       y="150.2"
       width="65.260002"
       height="22.07" />
    <text
       class="cls-28"
       transform="translate(328.28,168.7)"
       id="text168"><tspan
         class="cls-36"
         x="0"
         y="0"
         id="tspan164">管理</tspan><tspan
         class="cls-66"
         x="38.639999"
         y="0"
         id="tspan166">棟</tspan></text>
  </g>
  <g
     id="_体育館セット"
     data-name="体育館セット"
     transform="scale(0.6890849)">
    <rect
       id="_長方形_-3"
       data-name="&amp;lt;長方形&amp;gt;"
       class="cls-50"
       x="14.62"
       y="259.29999"
       width="65.260002"
       height="22.07" />
    <text
       class="cls-27"
       transform="translate(17.76,277.8)"
       id="text174"><tspan
         x="0"
         y="0"
         id="tspan172">体育館</tspan></text>
  </g>
  <g
     id="_管理棟_中庭セット"
     data-name="管理棟・中庭セット"
     transform="scale(0.6890849)">
    <text
       class="cls-27"
       transform="translate(242.91,158.15)"
       id="text179"><tspan
         x="0"
         y="0"
         id="tspan177">中庭</tspan></text>
  </g>
  <g
     id="_百志館セット"
     data-name="百志館セット"
     transform="scale(0.6890849)">
    <rect
       id="_長方形百志_"
       data-name="&amp;lt;長方形百志&amp;gt;"
       class="cls-52"
       x="286.17999"
       y="430.22"
       width="66.129997"
       height="22.07" />
    <text
       class="cls-27"
       transform="translate(289.93,448.72)"
       id="text185"><tspan
         x="0"
         y="0"
         id="tspan183">百志館</tspan></text>
  </g>
  <g
     id="_中学グラセット"
     data-name="中学グラセット"
     transform="scale(0.6890849)">
    <rect
       id="_長方形_-4"
       data-name="&amp;lt;長方形&amp;gt;"
       class="cls-52"
       x="463.85999"
       y="356.54001"
       width="98.68"
       height="38.57" />
    <text
       class="cls-26"
       transform="translate(476.72,377.41)"
       id="text203"><tspan
         class="cls-37"
         id="tspan195"><tspan
           class="cls-39"
           x="0"
           y="0"
           id="tspan189">ステ</tspan><tspan
           class="cls-71"
           x="35.439999"
           y="0"
           id="tspan191">ー</tspan><tspan
           class="cls-58"
           x="52.759998"
           y="0"
           id="tspan193">ジ</tspan></tspan><tspan
         class="cls-59"
         id="tspan201"><tspan
           class="cls-35"
           x="9.7299995"
           y="12.08"
           id="tspan197">（晴天時</tspan><tspan
           class="cls-6"
           x="52.23"
           y="12.08"
           id="tspan199">）</tspan></tspan></text>
  </g>
  <g
     id="_模擬店セット"
     data-name="模擬店セット"
     transform="scale(0.6890849)">
    <rect
       id="_長方形_-5"
       data-name="&amp;lt;長方形&amp;gt;"
       class="cls-51"
       x="123.55"
       y="575.96997"
       width="129.12"
       height="66.889999" />
    <text
       class="cls-30"
       transform="translate(158.79,607.35)"
       id="text217"><tspan
         class="cls-24"
         id="tspan209"><tspan
           x="0"
           y="0"
           id="tspan207">模擬店</tspan></tspan><tspan
         class="cls-33"
         id="tspan215"><tspan
           class="cls-53"
           x="2.3699999"
           y="14.72"
           id="tspan211">（屋外</tspan><tspan
           class="cls-63"
           x="42.27"
           y="14.72"
           id="tspan213">）</tspan></tspan></text>
  </g>
  <g
     id="_明照殿セット"
     data-name="明照殿セット"
     transform="scale(0.6890849)">
    <rect
       id="_長方形明照殿_"
       data-name="&amp;lt;長方形明照殿&amp;gt;"
       class="cls-49"
       x="313.73999"
       y="510.12"
       width="66.129997"
       height="22.07" />
    <text
       class="cls-27"
       transform="translate(317.49,528.62)"
       id="text223"><tspan
         x="0"
         y="0"
         id="tspan221">明照殿</tspan></text>
  </g>
  <g
     id="_本館セット"
     data-name="本館セット"
     transform="scale(0.6890849)">
    <path
       id="_長方形本館_"
       class="cls-49"
       style="opacity:0.71;fill:#ffffff"
       d="m 464.70999,570.59998 h 24 v 48.36999 h -24 z" />
    <g
       aria-label="本館"
       transform="translate(476.62,574.14)"
       id="text229"
       class="cls-22"
       style="font-size:20px;writing-mode:tb-rl;text-orientation:upright;fill:#231815">
      <path
         d="M 8.125,15.859375 Q 3.359375,12.890625 0.703125,8.28125 v 4.921875 H 3.90625 V 14.6875 H 0.703125 v 4.21875 h -1.5625 V 14.6875 H -3.90625 v -1.484375 h 3.046875 V 8.28125 q -2.265625,5 -7.34375,7.96875 L -9.0625,14.609375 Q -3.75,11.71875 -1.484375,6.171875 H -8.28125 V 4.6875 h 7.421875 V 1.171875 H 0.625 Q 1.25,1.25 0.703125,1.640625 V 4.6875 h 7.5 V 6.171875 H 1.25 Q 3.90625,10.9375 8.984375,14.0625 Z"
         id="path998" />
      <path
         d="m -7.5,27.578125 -0.859375,0.9375 L -9.375,27.1875 q 2.890625,-2.65625 3.984375,-6.09375 l 1.5625,0.234375 q 0.3125,0.234375 -0.234375,0.546875 1.71875,1.40625 2.890625,2.578125 L -2.03125,25.9375 Q -3.75,23.984375 -4.609375,23.203125 q -1.09375,2.421875 -2.1875,3.59375 h 1.5625 V 24.84375 H -3.75 q 0.546875,0.07813 0.078125,0.46875 v 1.484375 h 2.03125 v 6.25 h -4.53125 v 3.28125 l 3.125,-0.703125 q -0.3125,-0.546875 -0.9375,-1.484375 L -2.65625,33.4375 q 1.25,1.640625 2.34375,3.828125 L -1.875,38.125 Q -2.265625,37.1875 -2.578125,36.71875 L -7.8125,38.359375 Q -7.890625,38.75 -8.28125,38.515625 l -0.625,-1.5625 1.40625,-0.3125 z M 7.1875,31.40625 H 5.625 v -0.3125 H 2.109375 v 1.71875 h 5.78125 v 5.703125 h -1.5625 v -0.625 h -4.21875 v 1.015625 h -1.5625 V 26.875 h -1.5625 v -3.4375 h 4.21875 V 21.328125 H 4.6875 q 0.78125,0 0.078125,0.46875 V 23.4375 H 9.0625 V 26.875 H 7.5 V 24.6875 H 0.546875 v 1.875 H 7.1875 Z m -5.078125,5.234375 h 4.21875 V 34.0625 h -4.21875 z m 0,-8.828125 v 2.03125 H 5.625 V 27.8125 Z m -8.28125,2.65625 v 1.328125 H -2.96875 V 30.46875 Z m 0,-2.421875 v 1.171875 h 3.203125 v -1.171875 z"
         id="path1000" />
    </g>
  </g>
  <g
     aria-label="駐輪場"
     id="text234"
     style="font-size:20px;writing-mode:tb-rl;text-orientation:upright;fill:#231815;stroke-width:0.689085"
     class="cls-22"
     transform="matrix(0.71626328,0,0,0.71626328,104.62792,111.86734)">
    <path
       d="m 363.98437,417.17587 q -0.15625,-1.40625 -0.625,-3.28125 l 0.9375,-0.23437 q 0.625,1.875 0.78125,3.28125 z m 2.73438,-0.625 -0.9375,0.23438 q -0.15625,-1.48438 -0.625,-3.125 l 0.9375,-0.23438 q 0.46875,1.48438 0.625,2.96875 l 0.15625,-3.67187 h -6.25 v -10.39063 h 7.34375 v 1.25 h -2.73438 v 1.71875 h 2.1875 v 1.25 h -2.1875 v 1.71875 h 2.1875 v 1.25 h -2.1875 v 1.95313 h 2.96875 l -0.3125,5.9375 q -0.0781,1.875 -1.40625,1.875 h -1.64062 l -0.15625,-1.48438 h 1.25 q 0.625,0 0.70312,-0.46875 z m 5.625,-15.07812 q 1.32812,1.25 2.10937,2.5 l -1.40625,1.09375 q -0.85937,-1.32813 -2.03125,-2.57813 z m -10.85938,12.42187 q -0.23437,2.1875 -0.625,4.0625 l -1.17187,-0.3125 q 0.39062,-1.71875 0.625,-3.98437 z m 0.46875,-10.3125 v 1.71875 h 1.95313 v -1.71875 z m 0,2.96875 v 1.71875 h 1.95313 v -1.71875 z m 0,2.96875 v 1.95313 h 1.95313 v -1.95313 z m 10.39063,-2.65625 h -3.4375 V 405.379 H 377.5 v 1.48437 h -3.59375 v 4.0625 h 3.04687 v 1.48438 h -3.04687 v 4.6875 h 3.90625 v 1.48437 H 368.75 v -1.48437 h 3.59375 v -4.6875 h -2.8125 v -1.48438 h 2.8125 z m -9.45313,6.95313 q 0.23438,1.64062 0.3125,3.59375 l -1.09375,0.23437 q 0,-2.03125 -0.15625,-3.59375 z"
       id="path990" />
    <path
       d="m 371.95312,423.26962 q -1.40625,2.73438 -4.375,4.60938 l -0.625,-1.48438 q 3.20313,-1.875 4.29688,-5.07812 l 1.64062,0.23437 q 0.3125,0.3125 -0.23437,0.39063 l -0.0781,0.23437 q 1.95313,2.57813 5.07813,3.90625 l -0.625,1.64063 q -3.35938,-1.71875 -5.07813,-4.45313 z m -2.34375,3.20313 h 5.23438 v 1.25 h -5.23438 z m 5.85938,7.8125 h -1.17188 v 4.45312 h -1.32812 v -4.45312 h -1.17188 v 4.45312 h -1.32812 v -4.45312 h -1.17188 v 4.92187 h -1.32812 v -10.23437 h 8.82812 v 9.0625 q 0,1.17187 -0.9375,1.17187 H 375 l -0.23438,-1.25 h 0.39063 q 0.3125,0 0.3125,-0.3125 z m -5,-4.0625 h -1.17188 v 2.8125 h 1.17188 z m 2.5,0 h -1.17188 v 2.8125 h 1.17188 z m 2.5,0 h -1.17188 v 2.8125 h 1.17188 z m -8.75,2.96875 h -2.57813 v 1.40625 h 2.89063 v 1.25 h -2.89063 v 3.4375 h -1.32812 v -3.4375 h -2.96875 v -1.25 h 2.96875 v -1.40625 h -1.25 -1.32813 v -6.875 h 2.57813 v -1.32813 h -2.73438 v -1.25 h 2.73438 v -2.42187 h 1.25 q 0.625,0.0781 0.0781,0.46875 v 1.95312 h 2.73438 v 1.25 h -2.73438 v 1.32813 h 2.57813 z m -3.90625,-5.625 h -1.25 v 1.71875 h 1.25 z m 2.57812,0 h -1.25 v 1.71875 h 1.25 z m -2.57812,2.65625 h -1.25 v 1.71875 h 1.25 z m 2.57812,0 h -1.25 v 1.71875 h 1.25 z"
       id="path992" />
    <path
       d="m 363.90625,453.03525 1.95312,-0.70313 0.39063,1.01563 q 1.79687,-1.17188 2.65625,-2.73438 h -3.125 V 449.129 h 11.79687 v 1.48437 h -7.10937 q -0.3125,0.625 -0.625,1.01563 h 7.26562 l -0.46875,5.70312 q -0.15625,1.79688 -1.5625,1.79688 h -1.875 l -0.23437,-1.48438 h 1.48437 q 0.54688,0 0.625,-0.54687 l 0.39063,-3.98438 h -0.85938 q -1.40625,5.3125 -7.89062,6.40625 L 366.25,458.03525 q 5.54687,-1.01563 6.79687,-4.92188 h -1.32812 q -1.40625,3.35938 -5.23438,4.0625 l -0.46875,-1.25 q 3.125,-0.78125 4.14063,-2.8125 h -1.17188 q -1.64062,1.48438 -2.57812,1.95313 l -0.625,-1.17188 -4.92188,1.95313 q -0.0781,0.54687 -0.39062,0.23437 l -0.625,-1.71875 2.5,-0.70312 v -5.9375 h -2.42188 v -1.48438 h 2.42188 v -4.45312 h 1.48437 q 0.625,0.0781 0.0781,0.46875 v 3.98437 H 366.25 v 1.48438 h -2.34375 z m 3.4375,-4.84375 v -6.32813 h 8.20312 v 6.32813 z m 1.5625,-3.67188 h 5.07812 v -1.40625 h -5.07812 z m 0,2.42188 h 5.07812 v -1.17188 h -5.07812 z"
       id="path994" />
  </g>
  <text
     class="cls-30"
     id="text286"
     x="8.9649944"
     y="264.88425"
     style="font-size:11px;stroke-width:0.689085"><tspan
       class="cls-34"
       x="8.9649944"
       y="264.88425"
       id="tspan236"
       style="font-size:11px;stroke-width:0.689085">各建物は、<tspan
   class="cls-34"
   x="8.9649944"
   y="288.31314"
   id="tspan252"
   style="font-size:11px;stroke-width:0.689085" /></tspan></text>
  <g
     id="_ピクトグラム"
     data-name="ピクトグラム"
     transform="scale(0.6890849)">
    <g
       id="_駐輪場"
       data-name="駐輪場">
      <path
         class="cls-30"
         d="m 533.86,558.28 h -3.56 c 0,0 -0.03,0 -0.04,0 v 3.69 c 0,0 0.03,0 0.04,0 h 3.56 c 0.69,0 1.27,-0.58 1.27,-1.27 v -1.15 c 0,-0.69 -0.58,-1.27 -1.27,-1.27 z"
         id="path289" />
      <path
         d="m 536.29,569.85 -0.57,1.27 c 0.05,0.08 0.08,0.18 0.08,0.28 0,0.3 -0.24,0.55 -0.55,0.55 -0.31,0 -0.55,-0.24 -0.55,-0.55 0,-0.27 0.19,-0.49 0.44,-0.54 l 0.57,-1.27 c -0.15,-0.04 -0.31,-0.06 -0.47,-0.06 -1.03,0 -1.86,0.84 -1.86,1.86 0,1.02 0.84,1.86 1.86,1.86 1.02,0 1.86,-0.84 1.86,-1.86 0,-0.62 -0.31,-1.2 -0.82,-1.55 z"
         id="path291" />
      <polygon
         points="539.34,570.71 540.18,567.97 537.14,567.97 536.96,568.37 "
         id="polygon293" />
      <path
         d="m 542.3,570.99 -0.64,-1.02 c -0.31,0.26 -0.53,0.63 -0.62,1.02 z"
         id="path295" />
      <path
         d="m 541.3,569.37 -0.6,-0.96 -0.79,2.58 h 0.42 c 0.1,-0.64 0.45,-1.22 0.96,-1.62 z"
         id="path297" />
      <path
         d="m 542.87,569.53 c -0.23,0 -0.45,0.04 -0.66,0.12 l 0.75,1.21 c 0.26,0.04 0.45,0.27 0.45,0.54 0,0.3 -0.24,0.55 -0.55,0.55 -0.22,0 -0.41,-0.13 -0.5,-0.32 h -1.35 c 0.11,0.93 0.9,1.64 1.85,1.64 1.03,0 1.86,-0.84 1.86,-1.86 0,-1.02 -0.84,-1.86 -1.86,-1.86 z"
         id="path299" />
      <path
         d="m 545.34,552.51 h -19.78 c -0.84,0 -1.52,0.68 -1.52,1.52 v 19.78 c 0,0.84 0.68,1.52 1.52,1.52 h 19.78 c 0.84,0 1.52,-0.68 1.52,-1.52 v -19.78 c 0,-0.84 -0.68,-1.52 -1.52,-1.52 z m -15.09,12.22 v 6.65 h -3.2 v -15.86 h 6.81 c 2.22,0 4.03,1.81 4.03,4.03 v 1.15 c 0,2.22 -1.81,4.03 -4.03,4.03 h -3.56 c 0,0 -0.03,0 -0.04,0 z m 12.62,9.22 c -0.67,0 -1.3,-0.26 -1.78,-0.72 -0.45,-0.43 -0.72,-1 -0.77,-1.62 h -0.83 c 0,0 0,0 0,0 -0.01,0 -0.02,0 -0.03,0 v 0 c 0,0 -0.01,0 -0.02,0 v 0 c 0,0 -0.02,0 -0.02,0 v 0 c 0,0 -0.01,0 -0.02,0 0,0 0,0 -0.01,0 0,0 0,0 -0.01,0 0,0 -0.01,0 -0.02,0 v 0 c 0,0 -0.01,-0.01 -0.02,-0.02 0,0 0,0 -0.01,0 0,0 -0.01,0 -0.01,-0.01 0,0 -0.01,0 -0.01,0 v 0 c 0,0 -2.58,-2.54 -2.58,-2.54 l -0.1,0.23 c 0.76,0.46 1.23,1.29 1.23,2.19 0,1.41 -1.15,2.56 -2.56,2.56 -1.41,0 -2.56,-1.15 -2.56,-2.56 0,-1.41 1.15,-2.56 2.56,-2.56 0.26,0 0.51,0.04 0.76,0.11 l 0.59,-1.3 -0.63,-0.53 c -0.07,-0.06 -0.11,-0.15 -0.11,-0.24 v -0.6 c 0,-0.17 0.14,-0.31 0.31,-0.31 h 0.99 c 0.17,0 0.31,0.14 0.31,0.31 0,0.17 -0.14,0.31 -0.31,0.31 h -0.68 v 0.14 l 0.67,0.57 c 0,0 0.03,0.03 0.04,0.04 h 3.09 v -0.18 h -0.22 c -0.34,0 -0.59,-0.15 -0.59,-0.35 0,-0.22 0.29,-0.36 0.58,-0.39 l 1.07,-0.08 c 0,0 0.04,0 0.06,0 0.3,0 0.53,0.17 0.53,0.4 0,0.24 -0.26,0.43 -0.59,0.43 h -0.22 v 0.4 l 0.92,1.48 c 0.33,-0.14 0.67,-0.22 1.03,-0.22 1.41,0 2.56,1.15 2.56,2.56 0,1.41 -1.15,2.56 -2.56,2.56 z"
         id="path301" />
    </g>
  </g>
  <g
     id="_線"
     data-name="線"
     transform="scale(0.6890849)">
    <g
       id="_巨大布絵"
       data-name="巨大布絵">
      <g
         id="g309">
        <polyline
           class="cls-10"
           points="454.94 553.46 472.43 541.09 501.72 541.09"
           id="polyline305" />
        <path
           class="cls-30"
           d="m 457.26,556.42 c -1.7,1.2 -4.04,0.8 -5.24,-0.9 -1.2,-1.7 -0.8,-4.04 0.9,-5.24 1.7,-1.2 4.04,-0.8 5.24,0.9 1.2,1.7 0.8,4.04 -0.9,5.24 z"
           id="path307" />
      </g>
      <text
         class="cls-12"
         transform="translate(503.67,544.31)"
         id="text313"><tspan
           x="0"
           y="0"
           id="tspan311">巨大布絵</tspan></text>
    </g>
    <g
       id="_物販"
       data-name="物販">
      <g
         id="g320">
        <polyline
           class="cls-10"
           points="454.72 639.94 472.43 655.31 501.72 655.31"
           id="polyline316" />
        <path
           class="cls-30"
           d="m 452.4,642.91 c -1.57,-1.36 -1.74,-3.74 -0.38,-5.3 1.36,-1.57 3.74,-1.74 5.3,-0.38 1.57,1.36 1.74,3.74 0.38,5.3 -1.36,1.57 -3.74,1.74 -5.3,0.38 z"
           id="path318" />
      </g>
      <text
         class="cls-26"
         transform="translate(503.67,658.54)"
         id="text330"><tspan
           class="cls-15"
           id="tspan324"><tspan
             x="0"
             y="0"
             id="tspan322">インフォメーション</tspan></tspan><tspan
           class="cls-11"
           id="tspan328"><tspan
             x="0"
             y="11.12"
             id="tspan326">物販</tspan></tspan></text>
    </g>
    <g
       id="_モザイク"
       data-name="モザイク">
      <g
         id="g337">
        <polyline
           class="cls-10"
           points="424.61 536.44 442.11 524.07 501.72 524.07"
           id="polyline333" />
        <path
           class="cls-30"
           d="m 426.94,539.4 c -1.7,1.2 -4.04,0.8 -5.24,-0.9 -1.2,-1.7 -0.8,-4.04 0.9,-5.24 1.7,-1.2 4.04,-0.8 5.24,0.9 1.2,1.7 0.8,4.04 -0.9,5.24 z"
           id="path335" />
      </g>
      <text
         class="cls-12"
         transform="translate(503.67,527.3)"
         id="text341"><tspan
           x="0"
           y="0"
           id="tspan339">モザイク画</tspan></text>
    </g>
    <g
       id="_北を指すやつ"
       data-name="北を指すやつ">
      <polyline
         class="cls-8"
         points="499.06 38.22 565.88 27.86 535.67 18.26 540.14 47.23"
         id="polyline344" />
      <line
         class="cls-8"
         x1="524.96997"
         y1="18.809999"
         x2="529.63"
         y2="48.860001"
         id="line346" />
    </g>
  </g>
  <rect
     class="cls-44"
     x="272.63644"
     y="142.81973"
     width="20.321114"
     height="216.17282"
     id="rect350"
     style="stroke-width:0.689085" />
  <g
     id="_大回廊セット"
     data-name="大回廊セット"
     class="cls-2"
     transform="scale(0.6890849)">
    <path
       id="rect352"
       class="cls-48"
       style="opacity:0.8;fill:#ffffff"
       d="m 402.95999,301.38 h 14.74 v 118.67 h -14.74 z" />
    <g
       aria-label="大回廊（２階連絡通路）"
       transform="translate(410.33,304.77)"
       id="_回廊"
       class="cls-25"
       style="writing-mode:tb-rl;text-orientation:upright;fill:#231815">
      <path
         d="m -6.4268748,12.337304 q 5.2792186,-1.83625 5.56613264,-7.0580858 H -6.0251951 V 4.0167964 h 5.27921856 V 0.97550738 H 0.5164453 Q 1.0902734,1.090273 0.57382811,1.4345699 V 4.0167964 H 6.082578 V 5.2792182 H 0.68859373 Q 1.8936328,10.041991 6.5416404,12.05039 L 5.7956639,13.427577 Q 1.7788671,11.591327 0.11476562,7.2302338 -0.86074216,11.935624 -5.9104295,13.714491 Z"
         style="font-size:14.69px"
         id="path505" />
      <path
         d="m -1.6067187,23.354805 h 3.2134374 v -3.041289 h -3.2134374 z m 3.2134374,1.664101 v -0.573828 h -3.2134374 v 0.631211 h -1.1476562 v -5.853047 h 5.5087498 v 5.795664 z m -6.2547264,1.606719 h 9.2386326 v -9.353398 h -9.2386326 z m 9.2386326,1.606718 v -0.516445 h -9.2386326 v 0.80336 H -5.7956639 V 16.181953 h 11.533945 v 12.05039 z"
         style="font-size:14.69px"
         id="path507" />
      <path
         d="m -5.5661327,31.273632 h 5.0496874 V 30.01121 h 1.09027341 q 0.45906249,0.05738 0.0573828,0.344297 v 0.918125 H 6.1973436 v 1.090273 h -10.61582 v 5.853047 q 0,3.041289 -1.2050391,5.10707 l -0.9755077,-0.975508 q 1.0328905,-1.951016 1.0328905,-4.131562 z m 3.1560546,9.984609 1.8936328,-0.40168 -0.6885937,-1.319805 0.97550776,-0.401679 Q 0.74597654,40.454881 1.3198046,42.0616 l -1.14765617,0.516445 -0.28691405,-0.803359 -3.50035148,0.918125 q -0.057383,0.40168 -0.286914,0.172148 l -0.4016797,-1.262422 0.7459765,-0.114765 v -7.459766 h 1.6641015 v -1.319804 h 1.09027345 q 0.45906248,0.05738 0.0573828,0.344297 v 0.975507 h 1.6067187 v 4.648008 H -2.4100781 Z m 7.1154686,-4.188946 q 1.7788671,1.377188 1.7788671,2.983907 0,1.721484 -1.4345702,1.721484 H 3.7872655 v -1.090274 h 0.9755078 q 0.4590625,0 0.4590625,-0.918124 0,-0.975508 -1.7214843,-2.524844 L 4.4758592,34.429686 H 2.9265234 v 8.894336 H 1.7788671 v -9.984609 h 3.0986718 l 0.1147656,-0.172149 1.0902735,0.688594 -0.1721485,0.172148 z m -4.99230455,0.688594 V 36.782381 H -2.4100781 v 0.975508 z m 0,-1.893633 V 34.946131 H -2.4100781 v 0.918125 z"
         style="font-size:14.69px;letter-spacing:-0.38em"
         id="path509" />
      <path
         d="M 2.3046875,45.784687 Q 3.203125,46.214375 4.140625,47.23 L 3.75,47.659687 Q 2.8515625,46.683125 2.03125,46.2925 1.1328125,45.862812 -0.1171875,45.862812 q -1.0546875,0 -1.9921875,0.429688 -0.859375,0.390625 -1.9140625,1.367187 L -4.453125,47.23 q 1.09375,-0.976563 2.0703125,-1.445313 1.0546875,-0.507812 2.265625,-0.507812 1.3671875,0 2.421875,0.507812 z"
         style="font-size:10px;letter-spacing:-0.1em"
         id="path511" />
      <path
         d="M 1.9921875,49.82375 Q 2.5,50.331562 2.5,50.995625 2.5,52.01125 1.484375,52.675312 0.3515625,53.4175 -0.3515625,53.964375 -0.859375,54.355 -1.4453125,55.097187 h 4.140625 v 0.859375 h -5.234375 V 55.13625 q 0.234375,-0.507813 0.8203125,-1.09375 0.703125,-0.703125 2.5,-1.953125 0.7421875,-0.507813 0.7421875,-1.054688 0,-0.390625 -0.2734375,-0.664062 -0.3125,-0.3125 -1.015625,-0.3125 -0.78125,0 -1.1328125,0.351562 -0.4296875,0.429688 -0.46875,1.289063 H -2.421875 q 0.078125,-1.171875 0.703125,-1.796875 0.703125,-0.703125 1.9140625,-0.703125 1.171875,0 1.796875,0.625 z"
         style="font-size:10px;letter-spacing:0em"
         id="path513" />
      <path
         d="m 4.4921875,60.526875 q 0.039063,1.40625 -0.78125,1.40625 h -1.484375 q -0.703125,0 -0.703125,-0.664063 V 57.94875 H 2.265625 q 0.3125,0.03906 0.039063,0.234375 v 1.25 l 1.5625,-0.78125 0.4296875,0.625 q 0.15625,0.234375 -0.15625,0.195312 L 2.3046875,60.13625 v 0.742187 q 0,0.3125 0.2734375,0.3125 H 3.4375 q 0.234375,0 0.234375,-0.234375 l 0.039063,-0.625 z m -6.71875,3.710937 q 0.234375,-1.40625 -0.8203125,-2.617187 l 0.78125,-2.617188 h -1.1328125 v 7.929688 h -0.78125 v -8.554688 h 2.0703125 l 0.1171875,-0.195312 0.703125,0.429687 q 0.1171875,0.07813 -0.078125,0.195313 l -0.9375,2.695312 q 1.2109375,1.5625 0.78125,3.28125 -0.1171875,0.46875 -0.7421875,0.46875 H -3.0078125 L -3.0859375,64.51125 H -2.5 q 0.234375,0 0.2734375,-0.273438 z m 1.953125,-5.039062 h 1.328125 v 0.742187 h -1.328125 V 61.23 Q 0.390625,61.07375 1.09375,60.839375 L 1.25,61.503437 -1.328125,62.245625 q -0.078125,0.195312 -0.15625,0.07813 l -0.3125,-0.78125 0.7421875,-0.15625 v -3.4375 H -0.3125 Q 0,57.987812 -0.2734375,58.183125 Z m 1.171875,2.65625 0.78125,0.195312 Q 2.03125,62.1675 1.6015625,62.284687 L 1.3671875,62.7925 H 3.75 V 66.855 H 2.96875 v -0.390625 h -3.0078125 v 0.46875 h -0.78125 V 62.7925 h 1.484375 z m -0.9375,2.421875 H 2.96875 V 63.4175 h -3.0078125 z m 0,1.5625 H 2.96875 v -0.9375 h -3.0078125 z"
         style="font-size:10px;letter-spacing:0em"
         id="path515" />
      <path
         d="M 4.53125,75.956562 4.375,76.69875 h -4.609375 q -1.5625,0 -2.5,-1.09375 l -1.25,1.25 L -4.5703125,76.034687 -3.125,75.13625 v -2.421875 h -1.25 v -0.742188 h 2.03125 v 3.125 Q -1.4453125,75.956562 0,75.956562 Z M 0.7421875,72.128437 H -0.625 v 0.742188 h 1.3671875 z m 0.78125,1.367188 v 0.585937 H 4.296875 V 74.82375 H 1.5234375 v 0.820312 h -0.78125 V 74.82375 h -2.65625 v -0.742188 h 2.65625 v -0.585937 h -1.015625 -1.015625 v -3.320313 h 2.03125 v -0.625 h -2.578125 v -0.742187 h 2.578125 V 67.94875 H 1.484375 q 0.3125,0.03906 0.039063,0.234375 v 0.625 h 2.578125 v 0.742187 h -2.578125 v 0.625 h 2.109375 v 3.320313 z M 2.96875,70.800312 H 1.5234375 v 0.703125 H 2.96875 Z m 0,1.328125 H 1.5234375 v 0.742188 H 2.96875 Z M 0.7421875,70.800312 H -0.625 v 0.703125 H 0.7421875 Z M -3.515625,68.4175 q 0.8203125,0.507812 1.3671875,1.328125 L -2.8125,70.409687 q -0.5859375,-0.78125 -1.2890625,-1.328125 z"
         style="font-size:10px;letter-spacing:0em"
         id="path517" />
      <path
         d="m -0.78125,80.683125 q 1.0546875,-1.09375 1.5234375,-2.773438 l 0.78125,0.15625 q 0.15625,0.15625 -0.1171875,0.195313 L 1.2109375,78.769062 H 2.96875 L 3.0859375,78.57375 3.75,78.964375 q 0.15625,0.15625 -0.1171875,0.195312 -0.4296875,1.054688 -1.2890625,2.148438 0.9375,0.9375 2.3046875,1.445312 L 4.375,83.495625 Q 3.046875,83.026875 1.8359375,81.855 q -0.9375,1.054687 -2.3828125,1.835937 L -0.9375,83.026875 q 1.328125,-0.625 2.3046875,-1.71875 -0.46875,-0.585938 -0.78125,-1.171875 -0.390625,0.585937 -0.8984375,1.132812 z m -2.4609375,3.203125 q -0.078125,1.132812 -0.46875,2.226562 L -4.375,85.76125 q 0.390625,-1.015625 0.46875,-2.226563 l 0.7421875,0.117188 q 0.1171875,0.117187 -0.078125,0.234375 z m 2.3828125,-4.0625 q -0.625,0.9375 -1.9140625,2.34375 l 1.5625,-0.15625 -0.3515625,-0.546875 0.546875,-0.351563 q 0.5859375,0.703125 0.7421875,1.25 L -0.859375,82.7925 -0.9765625,82.558125 -1.953125,82.714375 v 4.21875 H -2.6171875 V 82.7925 L -4.140625,82.987812 Q -4.1796875,83.26125 -4.3359375,83.105 l -0.15625,-0.898438 h 0.859375 L -2.96875,81.38625 q -0.6640625,-0.703125 -1.484375,-1.171875 l 0.4296875,-0.585938 0.46875,0.3125 q 0.546875,-0.742187 1.09375,-1.914062 l 0.6640625,0.429687 q 0.1171875,0.195313 -0.1171875,0.15625 -0.390625,0.78125 -1.171875,1.71875 L -2.5,80.800312 q 0.78125,-1.015625 1.09375,-1.601562 l 0.6640625,0.46875 Q -0.625,79.862812 -0.859375,79.82375 Z m 1.0546875,3.476562 h 3.4375 v 3.4375 H 2.96875 V 86.38625 H 0.859375 v 0.507812 H 0.1953125 Z M 0.859375,85.76125 H 2.96875 V 83.925312 H 0.859375 Z M -0.9375,83.378437 q 0.3515625,0.78125 0.46875,1.992188 l -0.7421875,0.15625 q -0.078125,-1.054688 -0.390625,-1.992188 z M 0.9765625,79.394062 Q 1.25,80.214375 1.8359375,80.76125 2.421875,79.98 2.6953125,79.394062 Z"
         style="font-size:10px;letter-spacing:0em"
         id="path519" />
      <path
         d="m -0.5078125,96.776875 q -1.2109375,0 -2.2265625,-0.9375 -0.46875,0.546875 -1.4453125,1.09375 l -0.3125,-0.976563 Q -4.0625,95.839375 -3.1640625,95.253437 V 92.714375 H -4.375 v -0.742188 h 1.9921875 v 3.242188 q 0.78125,0.703125 2.03125,0.703125 h 4.84375 l -0.15625,0.859375 z m 0.546875,-7.578125 q 0.9765625,0.234375 1.25,0.351562 L 2.03125,89.003437 H -1.5625 V 88.26125 H 2.890625 L 3.0859375,88.144062 3.671875,88.57375 q 0.234375,0.195312 -0.1953125,0.234375 l -1.5234375,1.015625 0.5078125,0.234375 -0.46875,0.46875 H 3.75 V 94.98 q 0,0.546875 -0.546875,0.546875 H 2.34375 L 2.3046875,94.784687 H 2.8125 q 0.15625,0 0.15625,-0.15625 V 93.88625 H 1.484375 v 1.523437 H 0.703125 V 93.88625 h -1.40625 v 1.679687 h -0.78125 V 90.526875 H 1.40625 q -1.640625,-0.664063 -1.953125,-0.742188 z m 1.4453125,1.953125 v 0.742187 H 2.96875 v -0.742187 z m -2.1875,0 v 0.742187 h 1.40625 v -0.742187 z m 1.40625,1.367187 h -1.40625 v 0.742188 h 1.40625 z m 2.265625,0 H 1.484375 V 93.26125 H 2.96875 Z m -6.3671875,-4.335937 q 1.0546875,0.664062 1.4453125,1.289062 l -0.6640625,0.703125 q -0.625,-0.78125 -1.328125,-1.328125 z"
         style="font-size:10px;letter-spacing:0em"
         id="path521" />
      <path
         d="m 2.9296875,105.72219 v -1.75782 h -1.953125 v 1.75782 z m 0.78125,1.05468 h -0.78125 v -0.42968 h -1.953125 v 0.54687 h -0.78125 v -3.55469 h 3.515625 z M 0.9375,99.51125 q 0.1953125,0.54687 0.9765625,1.40625 Q 2.6171875,99.98 2.8125,99.51125 Z m 0.9765625,2.5 q -1.3671875,1.25 -2.5390625,1.67969 l -0.3515625,-0.78125 q 1.09375,-0.35157 2.3828125,-1.48438 -0.3125,-0.3125 -0.8203125,-1.13281 -0.390625,0.89844 -0.78125,1.28906 L -0.78125,100.99562 q 0.9375,-1.249995 1.4453125,-3.124995 L 1.484375,98.105 q 0.15625,0.15625 -0.1171875,0.195312 L 1.171875,98.769062 H 3.1640625 L 3.28125,98.57375 l 0.625,0.507812 Q 4.0625,99.19875 3.75,99.315937 q -0.546875,1.250003 -1.2890625,2.109373 1.328125,1.01563 2.265625,1.32813 l -0.3125,0.85937 q -0.9375,-0.3125 -2.5,-1.60156 z M -0.9375,98.495625 v 2.890625 h -0.9765625 v 1.44531 h 0.8984375 v 0.74219 h -0.8984375 v 1.79687 l 1.3671875,-0.42968 0.15625,0.70312 -3.59375,1.01563 q -0.039063,0.3125 -0.1953125,0.15625 l -0.3125,-0.85938 0.46875,-0.0781 v -3.63282 H -3.28125 q 0.3125,0.0391 0.039063,0.23438 v 3.20312 l 0.546875,-0.11718 v -4.17969 H -3.3984375 -4.0625 v -2.890625 z m -0.78125,2.265625 v -1.640625 h -1.5625 v 1.640625 z"
         style="font-size:10px;letter-spacing:0em"
         id="path523" />
      <path
         d="M -2.3828125,110.73625 Q -3.359375,110.2675 -4.453125,109.29094 l 0.4296875,-0.42969 q 1.0546875,0.97656 1.9140625,1.36719 0.9375,0.42969 1.9921875,0.42969 1.25,0 2.1484375,-0.42969 0.8203125,-0.39063 1.71875,-1.36719 l 0.390625,0.42969 q -0.9375,1.01562 -1.8359375,1.44531 -1.0546875,0.50781 -2.421875,0.50781 -1.2109375,0 -2.265625,-0.50781 z"
         style="font-size:10px;letter-spacing:-0.49em"
         id="path525" />
    </g>
  </g>
  <text
     class="cls-30"
     id="text286-0"
     x="8.9649944"
     y="279.57425"
     style="font-size:11px;fill:#231815;stroke-width:0.689085"><tspan
       class="cls-34"
       x="8.9649944"
       y="279.57425"
       id="tspan236-2"
       style="font-size:11px;stroke-width:0.689085">全て大回廊（２階連絡通路）で</tspan></text>
  <text
     class="cls-30"
     id="text286-0-3"
     x="9.0079632"
     y="270.54056"
     style="font-size:11px;fill:#231815;stroke-width:0.689085"><tspan
       class="cls-34"
       x="9.0079632"
       y="270.54056"
       id="tspan236-2-0"
       style="font-size:11px;stroke-width:0.689085"><tspan
         class="cls-34"
         x="9.0079632"
         y="293.96945"
         id="tspan252-6-1"
         style="font-size:11px;stroke-width:0.689085">接続しています。</tspan></tspan></text>
  <text
     class="cls-30"
     id="text286-0-2"
     x="8.7501507"
     y="293.34576"
     style="font-size:11px;fill:#231815;stroke-width:0.689085"><tspan
       class="cls-34"
       x="8.7501507"
       y="293.34576"
       id="tspan236-2-5"
       style="font-size:11px;stroke-width:0.689085"><tspan
         class="cls-34"
         x="8.7501507"
         y="316.77466"
         id="tspan252-6-3"
         style="font-size:11px;stroke-width:0.689085">一部の建物は、１階でも</tspan></tspan></text>
  <text
     class="cls-30"
     id="text286-0-2-0"
     x="9.0079632"
     y="307.69617"
     style="font-size:11px;fill:#231815;stroke-width:0.689085"><tspan
       sodipodi:role="line"
       id="tspan1374"
       x="9.0079632"
       y="331.12506"><tspan
         class="cls-34"
         x="9.0079632"
         y="307.69617"
         id="tspan236-2-5-3"
         style="font-size:11px;stroke-width:0.689085"><tspan
           class="cls-34"
           x="9.0079632"
           y="331.12506"
           id="tspan252-6-3-9"
           style="font-size:11px;stroke-width:0.689085">接続しています。</tspan></tspan></tspan><tspan
       sodipodi:role="line"
       id="tspan1376"
       x="9.0079632"
       y="344.87506" /></text>
  <text
     class="cls-30"
     id="text286-0-2-5-0"
     x="7.8595262"
     y="327.2121"
     style="font-size:8px;fill:#231815;stroke-width:0.689085"><tspan
       class="cls-34"
       x="7.8595262"
       y="327.2121"
       id="tspan236-2-5-37-5"
       style="font-size:8px;stroke-width:0.689085"><tspan
         class="cls-34"
         x="7.8595262"
         y="350.64099"
         id="tspan252-6-3-4-4"
         style="font-size:8px;stroke-width:0.689085">ご不明な点・道案内等は、</tspan></tspan></text>
  <text
     class="cls-30"
     id="text286-0-2-5-0-1"
     x="8.9532757"
     y="337.97287"
     style="font-size:8px;fill:#231815;stroke-width:0.689085"><tspan
       sodipodi:role="line"
       id="tspan1444"
       x="8.9532757"
       y="361.40176"><tspan
         class="cls-34"
         x="8.9532757"
         y="337.97287"
         id="tspan236-2-5-37-5-7"
         style="font-size:8px;stroke-width:0.689085"><tspan
           class="cls-34"
           x="8.9532757"
           y="361.40176"
           id="tspan252-6-3-4-4-4"
           style="font-size:8px;stroke-width:0.689085"></tspan></tspan></tspan><tspan
       sodipodi:role="line"
       id="tspan1446"
       x="8.9532757"
       y="361.40176"><tspan
         class="cls-34"
         x="8.9532757"
         y="337.97287"
         style="font-size:8px;stroke-width:0.689085"
         id="tspan1448"><tspan
           class="cls-34"
           x="8.9532757"
           y="361.40176"
           style="font-size:8px;stroke-width:0.689085"
           id="tspan1450">法被を着たスタッフまでお気軽にお声がけください。</tspan></tspan></tspan></text>
</svg>
