<?xml version="1.0" encoding="UTF-8" standalone="no"?>
<svg
   viewBox="0 0 400.00001 330"
   version="1.1"
   id="svg10232"
   sodipodi:docname="校舎地図3階.svg"
   width="400"
   height="330"
   inkscape:version="1.2.2 (732a01da63, 2022-12-09)"
   xmlns:inkscape="http://www.inkscape.org/namespaces/inkscape"
   xmlns:sodipodi="http://sodipodi.sourceforge.net/DTD/sodipodi-0.dtd"
   xmlns="http://www.w3.org/2000/svg"
   xmlns:svg="http://www.w3.org/2000/svg">
  <sodipodi:namedview
     id="namedview10234"
     pagecolor="#ffffff"
     bordercolor="#000000"
     borderopacity="0.25"
     inkscape:showpageshadow="2"
     inkscape:pageopacity="0.0"
     inkscape:pagecheckerboard="0"
     inkscape:deskcolor="#d1d1d1"
     showgrid="false"
     inkscape:zoom="1.0534604"
     inkscape:cx="195.0714"
     inkscape:cy="264.84147"
     inkscape:window-width="1920"
     inkscape:window-height="974"
     inkscape:window-x="-11"
     inkscape:window-y="-11"
     inkscape:window-maximized="1"
     inkscape:current-layer="svg10232" />
  <defs
     id="defs9707">
    <style
       id="style9705">
      .cls-1, .cls-2, .cls-3, .cls-4, .cls-5, .cls-6, .cls-7, .cls-8, .cls-9, .cls-10, .cls-11, .cls-12, .cls-13 {
        stroke: #231815;
      }

      .cls-1, .cls-3 {
        fill: #865498;
      }

      .cls-1, .cls-3, .cls-4, .cls-5, .cls-6, .cls-8, .cls-9, .cls-10, .cls-12, .cls-13 {
        stroke-miterlimit: 10;
      }

      .cls-1, .cls-9 {
        stroke-width: .25px;
      }

      .cls-14, .cls-15 {
        letter-spacing: -.02em;
      }

      .cls-16 {
        font-size: 5.34px;
        letter-spacing: -.01em;
      }

      .cls-16, .cls-17, .cls-18, .cls-19, .cls-20, .cls-21 {
        font-family: HeiseiKakuGoStd-W7-90ms-RKSJ-H, 'Heisei Kaku Gothic Std';
      }

      .cls-2, .cls-4, .cls-7, .cls-8, .cls-11 {
        fill: none;
      }

      .cls-2, .cls-4, .cls-7, .cls-11 {
        stroke-width: .5px;
      }

      .cls-2, .cls-7, .cls-11 {
        stroke-linejoin: bevel;
      }

      .cls-17 {
        font-size: 7.08px;
        letter-spacing: -.01em;
      }

      .cls-17, .cls-18, .cls-22 {
        fill: #231815;
      }

      .cls-23, .cls-20, .cls-24, .cls-10, .cls-21 {
        fill: #fff;
      }

      .cls-4 {
        stroke-linecap: round;
      }

      .cls-5, .cls-25 {
        fill: #4969aa;
      }

      .cls-18 {
        font-size: 6px;
        letter-spacing: -.01em;
      }

      .cls-26, .cls-27 {
        letter-spacing: -.05em;
      }

      .cls-19 {
        font-size: 6.96px;
        letter-spacing: -.01em;
      }

      .cls-28 {
        font-size: 8.54px;
        letter-spacing: -.14em;
      }

      .cls-6 {
        fill: #727171;
      }

      .cls-29 {
        font-size: 20.81px;
      }

      .cls-27, .cls-30, .cls-31, .cls-24, .cls-15 {
        font-family: MyriadPro-Semibold, 'Myriad Pro';
        font-weight: 600;
      }

      .cls-27, .cls-30, .cls-15 {
        font-size: 15.14px;
      }

      .cls-32 {
        font-size: 33.35px;
        letter-spacing: -.05em;
      }

      .cls-20 {
        font-size: 10.3px;
        letter-spacing: -.01em;
      }

      .cls-7 {
        stroke-dasharray: 2.94 2.94;
      }

      .cls-31 {
        font-size: 13.48px;
        letter-spacing: -.05em;
      }

      .cls-33 {
        fill: #dbdbdb;
      }

      .cls-9, .cls-13 {
        fill: #eb9826;
      }

      .cls-34 {
        font-size: 7.76px;
        letter-spacing: -.01em;
      }

      .cls-11 {
        stroke-dasharray: 2.87 2.87;
      }

      .cls-12 {
        fill: #4bb359;
      }

      .cls-35 {
        fill: #424142;
        fill-rule: evenodd;
      }
    </style>
  </defs>
  <g
     id="_最背景_灰色_"
     data-name="最背景(灰色)"
     transform="matrix(1.1346552,0,0,1.1373428,-81.6044,-23.304153)">
    <rect
       class="cls-33"
       x="71.919998"
       y="20.49"
       width="352.53"
       height="290.14999"
       id="rect9709" />
  </g>
  <g
     id="_路の背景_白_"
     data-name="路の背景(白)"
     transform="matrix(1.1346552,0,0,1.1346552,-81.6044,-23.249085)">
    <rect
       class="cls-23"
       x="116.04"
       y="26.690001"
       width="10.68"
       height="163.87"
       id="rect9712" />
    <polygon
       class="cls-23"
       points="133.42,26.5 124.51,26.5 124.51,180.03 115.71,180.03 115.71,215.82 100.66,215.82 100.66,237.36 76.75,237.36 76.75,284.28 193.01,284.28 193.01,215.82 150.15,215.82 150.15,180.03 140.29,180.03 140.29,164.28 131.91,164.28 131.91,65.74 140.29,65.74 140.29,53.97 339.45,53.97 339.45,95.05 308,95.05 308,200.8 347.96,200.8 347.96,200.8 384.56,200.8 384.56,182.15 418.65,182.15 418.65,163.12 363.53,163.12 363.53,152.76 355.23,152.76 355.23,53.97 355.52,53.97 355.52,26.5 140.29,26.5 "
       id="polygon9714" />
  </g>
  <g
     id="_枠本体"
     data-name="枠本体"
     transform="matrix(1.1346552,0,0,1.1346552,-81.6044,-23.249085)">
    <rect
       class="cls-13"
       x="87.059998"
       y="79.330002"
       width="28.98"
       height="26.34"
       id="rect9717" />
    <rect
       class="cls-3"
       x="131.64999"
       y="42.419998"
       width="31.42"
       height="26.34"
       id="rect9719" />
    <rect
       class="cls-3"
       x="163.07001"
       y="42.419998"
       width="31.42"
       height="26.34"
       id="rect9721" />
    <rect
       class="cls-3"
       x="194.49001"
       y="42.419998"
       width="31.42"
       height="26.34"
       id="rect9723" />
    <rect
       class="cls-3"
       x="225.91"
       y="42.419998"
       width="31.42"
       height="26.34"
       id="rect9725" />
    <rect
       class="cls-3"
       x="308"
       y="68.760002"
       width="31.42"
       height="26.34"
       id="rect9727" />
    <rect
       class="cls-3"
       x="308"
       y="95.099998"
       width="31.42"
       height="26.34"
       id="rect9729" />
    <rect
       class="cls-3"
       x="308"
       y="121.43"
       width="31.42"
       height="26.34"
       id="rect9731" />
    <rect
       class="cls-3"
       x="308"
       y="147.89999"
       width="31.42"
       height="26.34"
       id="rect9733" />
    <rect
       class="cls-3"
       x="308"
       y="174.47"
       width="31.42"
       height="26.34"
       id="rect9735" />
    <rect
       class="cls-3"
       x="257.32999"
       y="42.419998"
       width="31.42"
       height="26.34"
       id="rect9737" />
    <rect
       class="cls-10"
       x="288.75"
       y="52.880001"
       width="24.559999"
       height="15.75"
       id="rect9739" />
    <polyline
       class="cls-3"
       points="370.92 163.3 418.4 163.3 418.4 200.8 370.92 200.8"
       id="polyline9741" />
    <polyline
       class="cls-6"
       points="116.04 79.33 87.06 79.33 87.06 59.4 116.04 59.4"
       id="polyline9743" />
    <polyline
       class="cls-6"
       points="339.77 68.64 313.3 68.64 313.3 52.88 339.77 52.88"
       id="polyline9745" />
    <polyline
       class="cls-6"
       points="370.92 179.43 370.92 200.8 355.62 200.8 355.62 179.43"
       id="polyline9747" />
    <polyline
       class="cls-6"
       points="150.35 227.07 150.35 200.18 168.56 200.18 168.56 227.07"
       id="polyline9749" />
    <rect
       class="cls-13"
       x="87.059998"
       y="105.71"
       width="28.98"
       height="26.34"
       id="rect9751" />
    <rect
       class="cls-13"
       x="87.059998"
       y="132.08"
       width="28.98"
       height="26.34"
       id="rect9753" />
    <rect
       class="cls-13"
       x="87.059998"
       y="158.46001"
       width="28.98"
       height="26.34"
       id="rect9755" />
    <rect
       class="cls-13"
       x="87.059998"
       y="184.83"
       width="28.98"
       height="26.34"
       id="rect9757" />
    <rect
       class="cls-13"
       x="87.059998"
       y="211.21001"
       width="28.98"
       height="26.34"
       id="rect9759" />
    <rect
       class="cls-13"
       x="76.959999"
       y="258.17001"
       width="28.98"
       height="26.25"
       id="rect9761" />
    <rect
       class="cls-13"
       x="105.9"
       y="258.17001"
       width="28.98"
       height="26.25"
       id="rect9763" />
    <rect
       class="cls-13"
       x="134.88"
       y="258.17001"
       width="28.98"
       height="26.25"
       id="rect9765" />
    <rect
       class="cls-13"
       x="163.86"
       y="258.17001"
       width="28.98"
       height="26.25"
       id="rect9767" />
    <rect
       class="cls-13"
       x="168.56"
       y="200.17999"
       width="24.280001"
       height="26.889999"
       id="rect9769" />
    <polyline
       class="cls-12"
       points="137.77 200.18 137.77 213.58 150.35 213.58 150.35 200.18"
       id="polyline9771" />
    <polyline
       class="cls-6"
       points="150.35 227.07 150.35 213.68 137.77 213.68 137.77 227.07"
       id="polyline9773" />
    <polyline
       class="cls-5"
       points="355.24 42.3 355.24 26.5 313.3 26.5 313.3 42.3"
       id="polyline9775" />
    <polyline
       class="cls-8"
       points="87.06 237.54 76.96 237.54 76.96 284.41"
       id="polyline9777" />
    <line
       class="cls-8"
       x1="192.84"
       y1="227.07001"
       x2="192.84"
       y2="258.17001"
       id="line9779" />
    <g
       id="_装飾のボード"
       data-name="装飾のボード">
      <polyline
         class="cls-4"
         points="159.53 200.18 166.4 190.19 174.89 190.26"
         id="polyline9781" />
    </g>
    <line
       class="cls-8"
       x1="339.42001"
       y1="200.8"
       x2="355.62"
       y2="200.8"
       id="line9784" />
    <g
       id="g9800">
      <line
         class="cls-2"
         x1="200.24001"
         y1="242.62"
         x2="201.74001"
         y2="242.62"
         id="line9786" />
      <line
         class="cls-7"
         x1="204.67999"
         y1="242.62"
         x2="344.54999"
         y2="242.62"
         id="line9788" />
      <polyline
         class="cls-2"
         points="346.02 242.62 347.52 242.62 347.52 241.12"
         id="polyline9790" />
      <line
         class="cls-11"
         x1="347.51999"
         y1="238.25"
         x2="347.51999"
         y2="211"
         id="line9792" />
      <line
         class="cls-2"
         x1="347.51999"
         y1="209.56"
         x2="347.51999"
         y2="208.06"
         id="line9794" />
      <polygon
         class="cls-22"
         points="200.43,242.62 202.23,240.94 201.89,240.57 199.69,242.62 201.89,244.66 202.23,244.3 "
         id="polygon9796" />
      <polygon
         class="cls-22"
         points="347.52,208.25 345.85,210.06 345.48,209.72 347.52,207.52 349.57,209.72 349.2,210.06 "
         id="polygon9798" />
    </g>
    <rect
       class="cls-25"
       x="131.39"
       y="158.46001"
       width="25.09"
       height="31.34"
       id="rect9802" />
    <polyline
       class="cls-8"
       points="131.68 42.42 131.68 189.67 131.68 158.54 156.77 158.7 156.77 189.88 150.35 189.94 150.35 227.07"
       id="polyline9804" />
  </g>
  <text
     class="cls-22"
     id="text9855"
     x="25.790716"
     y="77.372139"
     style="font-size:13.6159px;stroke-width:1.13466"><tspan
       class="cls-19"
       id="tspan9849"
       style="stroke-width:1.13466"><tspan
         x="25.790716"
         y="77.372139"
         id="tspan9847"
         style="stroke-width:1.13466">高校</tspan></tspan><tspan
       class="cls-27"
       id="tspan9853"
       style="stroke-width:1.13466"><tspan
         x="23.997959"
         y="92.701332"
         id="tspan9851"
         style="stroke-width:1.13466">2A</tspan></tspan></text>
  <text
     class="cls-23"
     id="text9865"
     x="77.996208"
     y="35.537403"
     style="font-size:13.6159px;stroke-width:1.13466"><tspan
       class="cls-19"
       id="tspan9859"
       style="stroke-width:1.13466"><tspan
         x="77.996208"
         y="35.537403"
         id="tspan9857"
         style="stroke-width:1.13466">中学</tspan></tspan><tspan
       class="cls-15"
       id="tspan9863"
       style="stroke-width:1.13466"><tspan
         x="79.187599"
         y="50.866596"
         id="tspan9861"
         style="stroke-width:1.13466">2I</tspan></tspan></text>
  <text
     class="cls-23"
     id="text9877"
     x="113.42014"
     y="35.537403"
     style="font-size:13.6159px;stroke-width:1.13466"><tspan
       class="cls-19"
       id="tspan9869"
       style="stroke-width:1.13466"><tspan
         x="113.42014"
         y="35.537403"
         id="tspan9867"
         style="stroke-width:1.13466">中学</tspan></tspan><tspan
       class="cls-30"
       id="tspan9875"
       style="stroke-width:1.13466"><tspan
         class="cls-26"
         x="111.32102"
         y="50.866596"
         id="tspan9871"
         style="stroke-width:1.13466">2</tspan><tspan
         class="cls-14"
         x="119.67209"
         y="50.866596"
         id="tspan9873"
         style="stroke-width:1.13466">H</tspan></tspan></text>
  <text
     class="cls-23"
     id="text9887"
     x="149.07101"
     y="35.537403"
     style="font-size:13.6159px;stroke-width:1.13466"><tspan
       class="cls-19"
       id="tspan9881"
       style="stroke-width:1.13466"><tspan
         x="149.07101"
         y="35.537403"
         id="tspan9879"
         style="stroke-width:1.13466">中学</tspan></tspan><tspan
       class="cls-15"
       id="tspan9885"
       style="stroke-width:1.13466"><tspan
         x="146.8017"
         y="50.866596"
         id="tspan9883"
         style="stroke-width:1.13466">2G</tspan></tspan></text>
  <text
     class="cls-23"
     id="text9897"
     x="184.72188"
     y="35.537403"
     style="font-size:13.6159px;stroke-width:1.13466"><tspan
       class="cls-19"
       id="tspan9891"
       style="stroke-width:1.13466"><tspan
         x="184.72188"
         y="35.537403"
         id="tspan9889"
         style="stroke-width:1.13466">中学</tspan></tspan><tspan
       class="cls-15"
       id="tspan9895"
       style="stroke-width:1.13466"><tspan
         x="183.80281"
         y="50.866596"
         id="tspan9893"
         style="stroke-width:1.13466">2F</tspan></tspan></text>
  <text
     class="cls-23"
     id="text9907"
     x="277.87708"
     y="65.424225"
     style="font-size:13.6159px;stroke-width:1.13466"><tspan
       class="cls-19"
       id="tspan9901"
       style="stroke-width:1.13466"><tspan
         x="277.87708"
         y="65.424225"
         id="tspan9899"
         style="stroke-width:1.13466">中学</tspan></tspan><tspan
       class="cls-15"
       id="tspan9905"
       style="stroke-width:1.13466"><tspan
         x="276.9126"
         y="80.753418"
         id="tspan9903"
         style="stroke-width:1.13466">2E</tspan></tspan></text>
  <text
     class="cls-23"
     id="text9917"
     x="277.87708"
     y="95.299698"
     style="font-size:13.6159px;stroke-width:1.13466"><tspan
       class="cls-19"
       id="tspan9911"
       style="stroke-width:1.13466"><tspan
         x="277.87708"
         y="95.299698"
         id="tspan9909"
         style="stroke-width:1.13466">中学</tspan></tspan><tspan
       class="cls-15"
       id="tspan9915"
       style="stroke-width:1.13466"><tspan
         x="275.46024"
         y="110.62888"
         id="tspan9913"
         style="stroke-width:1.13466">2D</tspan></tspan></text>
  <text
     class="cls-23"
     id="text9927"
     x="277.87708"
     y="125.18652"
     style="font-size:13.6159px;stroke-width:1.13466"><tspan
       class="cls-19"
       id="tspan9921"
       style="stroke-width:1.13466"><tspan
         x="277.87708"
         y="125.18652"
         id="tspan9919"
         style="stroke-width:1.13466">中学</tspan></tspan><tspan
       class="cls-15"
       id="tspan9925"
       style="stroke-width:1.13466"><tspan
         x="276.27719"
         y="140.5157"
         id="tspan9923"
         style="stroke-width:1.13466">2C</tspan></tspan></text>
  <text
     class="cls-23"
     id="text9937"
     x="277.87708"
     y="155.22083"
     style="font-size:13.6159px;stroke-width:1.13466"><tspan
       class="cls-19"
       id="tspan9931"
       style="stroke-width:1.13466"><tspan
         x="277.87708"
         y="155.22083"
         id="tspan9929"
         style="stroke-width:1.13466">中学</tspan></tspan><tspan
       class="cls-15"
       id="tspan9935"
       style="stroke-width:1.13466"><tspan
         x="276.3793"
         y="170.55002"
         id="tspan9933"
         style="stroke-width:1.13466">2B</tspan></tspan></text>
  <text
     class="cls-23"
     id="text9947"
     x="277.87708"
     y="185.35727"
     style="font-size:13.6159px;stroke-width:1.13466"><tspan
       class="cls-19"
       id="tspan9941"
       style="stroke-width:1.13466"><tspan
         x="277.87708"
         y="185.35727"
         id="tspan9939"
         style="stroke-width:1.13466">中学</tspan></tspan><tspan
       class="cls-15"
       id="tspan9945"
       style="stroke-width:1.13466"><tspan
         x="275.86871"
         y="200.68646"
         id="tspan9943"
         style="stroke-width:1.13466">2A</tspan></tspan></text>
  <text
     class="cls-22"
     id="text9957"
     x="25.790716"
     y="107.79224"
     style="font-size:13.6159px;stroke-width:1.13466"><tspan
       class="cls-19"
       id="tspan9951"
       style="stroke-width:1.13466"><tspan
         x="25.790716"
         y="107.79224"
         id="tspan9949"
         style="stroke-width:1.13466">高校</tspan></tspan><tspan
       class="cls-27"
       id="tspan9955"
       style="stroke-width:1.13466"><tspan
         x="24.508551"
         y="123.12144"
         id="tspan9953"
         style="stroke-width:1.13466">2B</tspan></tspan></text>
  <text
     class="cls-22"
     id="text9967"
     x="25.790716"
     y="137.16847"
     style="font-size:13.6159px;stroke-width:1.13466"><tspan
       class="cls-19"
       id="tspan9961"
       style="stroke-width:1.13466"><tspan
         x="25.790716"
         y="137.16847"
         id="tspan9959"
         style="stroke-width:1.13466">高校</tspan></tspan><tspan
       class="cls-27"
       id="tspan9965"
       style="stroke-width:1.13466"><tspan
         x="24.406437"
         y="152.49765"
         id="tspan9963"
         style="stroke-width:1.13466">2C</tspan></tspan></text>
  <text
     class="cls-22"
     id="text9977"
     x="25.790716"
     y="167.07797"
     style="font-size:13.6159px;stroke-width:1.13466"><tspan
       class="cls-19"
       id="tspan9971"
       style="stroke-width:1.13466"><tspan
         x="25.790716"
         y="167.07797"
         id="tspan9969"
         style="stroke-width:1.13466">高校</tspan></tspan><tspan
       class="cls-27"
       id="tspan9975"
       style="stroke-width:1.13466"><tspan
         x="23.589483"
         y="182.40717"
         id="tspan9973"
         style="stroke-width:1.13466">2D</tspan></tspan></text>
  <text
     class="cls-22"
     id="text9987"
     x="25.790716"
     y="196.88536"
     style="font-size:13.6159px;stroke-width:1.13466"><tspan
       class="cls-19"
       id="tspan9981"
       style="stroke-width:1.13466"><tspan
         x="25.790716"
         y="196.88536"
         id="tspan9979"
         style="stroke-width:1.13466">高校</tspan></tspan><tspan
       class="cls-27"
       id="tspan9985"
       style="stroke-width:1.13466"><tspan
         x="25.04184"
         y="212.21457"
         id="tspan9983"
         style="stroke-width:1.13466">2E</tspan></tspan></text>
  <text
     class="cls-22"
     id="text9997"
     x="25.790716"
     y="226.79488"
     style="font-size:13.6159px;stroke-width:1.13466"><tspan
       class="cls-19"
       id="tspan9991"
       style="stroke-width:1.13466"><tspan
         x="25.790716"
         y="226.79488"
         id="tspan9989"
         style="stroke-width:1.13466">高校</tspan></tspan><tspan
       class="cls-27"
       id="tspan9995"
       style="stroke-width:1.13466"><tspan
         x="25.087227"
         y="242.12407"
         id="tspan9993"
         style="stroke-width:1.13466">2F</tspan></tspan></text>
  <text
     class="cls-22"
     id="text10007"
     x="14.330701"
     y="280.15771"
     style="font-size:13.6159px;stroke-width:1.13466"><tspan
       class="cls-19"
       id="tspan10001"
       style="stroke-width:1.13466"><tspan
         x="14.330701"
         y="280.15771"
         id="tspan9999"
         style="stroke-width:1.13466">高校</tspan></tspan><tspan
       class="cls-27"
       id="tspan10005"
       style="stroke-width:1.13466"><tspan
         x="12.276969"
         y="295.48694"
         id="tspan10003"
         style="stroke-width:1.13466">2G</tspan></tspan></text>
  <text
     class="cls-22"
     id="text10017"
     x="47.167618"
     y="280.15771"
     style="font-size:13.6159px;stroke-width:1.13466"><tspan
       class="cls-19"
       id="tspan10011"
       style="stroke-width:1.13466"><tspan
         x="47.167618"
         y="280.15771"
         id="tspan10009"
         style="stroke-width:1.13466">高校</tspan></tspan><tspan
       class="cls-27"
       id="tspan10015"
       style="stroke-width:1.13466"><tspan
         x="45.068508"
         y="295.48694"
         id="tspan10013"
         style="stroke-width:1.13466">2H</tspan></tspan></text>
  <text
     class="cls-22"
     id="text10027"
     x="80.049927"
     y="280.15771"
     style="font-size:13.6159px;stroke-width:1.13466"><tspan
       class="cls-19"
       id="tspan10021"
       style="stroke-width:1.13466"><tspan
         x="80.049927"
         y="280.15771"
         id="tspan10019"
         style="stroke-width:1.13466">高校</tspan></tspan><tspan
       class="cls-27"
       id="tspan10025"
       style="stroke-width:1.13466"><tspan
         x="81.456909"
         y="295.48694"
         id="tspan10023"
         style="stroke-width:1.13466">2I</tspan></tspan></text>
  <text
     class="cls-22"
     id="text10039"
     x="112.93223"
     y="280.15771"
     style="font-size:13.6159px;stroke-width:1.13466"><tspan
       class="cls-19"
       id="tspan10031"
       style="stroke-width:1.13466"><tspan
         x="112.93223"
         y="280.15771"
         id="tspan10029"
         style="stroke-width:1.13466">高校</tspan></tspan><tspan
       class="cls-30"
       id="tspan10037"
       style="stroke-width:1.13466"><tspan
         x="112.80742"
         y="295.48694"
         id="tspan10033"
         style="stroke-width:1.13466">2</tspan><tspan
         class="cls-26"
         x="122.02083"
         y="295.48694"
         id="tspan10035"
         style="stroke-width:1.13466">J</tspan></tspan></text>
  <text
     class="cls-20"
     id="text10045"
     x="351.05481"
     y="179.19456"
     style="stroke-width:1.13466"><tspan
       x="351.05481"
       y="179.19456"
       id="tspan10041"
       style="stroke-width:1.13466">美術室</tspan><tspan
       x="351.05481"
       y="195.07974"
       id="tspan10043"
       style="stroke-width:1.13466">工作室</tspan></text>
  <g
     id="_階段-2"
     data-name="階段"
     transform="matrix(1.1346552,0,0,1.1346552,-81.6044,-23.249085)">
    <polygon
       class="cls-23"
       points="330.02,58.35 330.02,60.2 327.31,60.2 327.31,62.05 324.61,62.05 324.61,63.9 321.9,63.9 321.9,65.76 321.02,65.76 321.02,62.91 323.72,62.91 323.72,61.05 326.43,61.05 326.43,59.2 329.14,59.2 329.14,57.36 332.06,57.36 332.06,58.35 "
       id="polygon10047" />
    <g
       id="g10053">
      <polygon
         class="cls-23"
         points="322.84,56.98 322.84,55.94 321.89,55.94 321.89,58.79 324.44,58.79 324.44,57.73 323.51,57.73 325.54,55.45 324.87,54.7 "
         id="polygon10049" />
      <polygon
         class="cls-23"
         points="328.64,63.79 329.56,63.79 327.54,66.07 328.21,66.82 330.23,64.55 330.23,65.58 331.18,65.58 331.18,62.73 328.64,62.73 "
         id="polygon10051" />
    </g>
  </g>
  <g
     id="_階段-3"
     data-name="階段"
     transform="matrix(1.1346552,0,0,1.1346552,-81.6044,-23.249085)">
    <polygon
       class="cls-23"
       points="105.43,66.69 105.43,68.74 102.41,68.74 102.41,70.8 99.4,70.8 99.4,72.87 96.38,72.87 96.38,74.93 95.4,74.93 95.4,71.76 98.41,71.76 98.41,69.69 101.43,69.69 101.43,67.63 104.44,67.63 104.44,65.58 107.7,65.58 107.7,66.69 "
       id="polygon10056" />
    <g
       id="g10062">
      <polygon
         class="cls-23"
         points="97.43,65.15 97.43,64 96.37,64 96.37,67.18 99.21,67.18 99.21,65.99 98.18,65.99 100.44,63.46 99.69,62.62 "
         id="polygon10058" />
      <polygon
         class="cls-23"
         points="103.89,72.74 104.92,72.74 102.66,75.28 103.41,76.12 105.67,73.58 105.67,74.74 106.72,74.74 106.72,71.56 103.89,71.56 "
         id="polygon10060" />
    </g>
  </g>
  <g
     id="_階段-4"
     data-name="階段"
     transform="matrix(1.1346552,0,0,1.1346552,-81.6044,-23.249085)">
    <polygon
       class="cls-23"
       points="366.77,187.76 366.77,189.37 364.13,189.37 364.13,190.98 361.49,190.98 361.49,192.6 358.85,192.6 358.85,194.22 357.99,194.22 357.99,191.73 360.63,191.73 360.63,190.12 363.27,190.12 363.27,188.51 365.91,188.51 365.91,186.9 368.76,186.9 368.76,187.76 "
       id="polygon10065" />
    <g
       id="g10071">
      <polygon
         class="cls-23"
         points="359.77,186.56 359.77,185.66 358.84,185.66 358.84,188.15 361.33,188.15 361.33,187.22 360.42,187.22 362.4,185.24 361.75,184.58 "
         id="polygon10067" />
      <polygon
         class="cls-23"
         points="365.42,192.5 366.33,192.5 364.35,194.49 365,195.14 366.98,193.16 366.98,194.07 367.91,194.07 367.91,191.58 365.42,191.58 "
         id="polygon10069" />
    </g>
  </g>
  <g
     id="_階段-5"
     data-name="階段"
     transform="matrix(1.1346552,0,0,1.1346552,-81.6044,-23.249085)">
    <polygon
       class="cls-23"
       points="163.44,212.15 163.44,214 160.4,214 160.4,215.86 157.36,215.86 157.36,217.73 154.31,217.73 154.31,219.6 153.32,219.6 153.32,216.73 156.36,216.73 156.36,214.86 159.4,214.86 159.4,213 162.45,213 162.45,211.15 165.73,211.15 165.73,212.15 "
       id="polygon10074" />
    <g
       id="g10080">
      <polygon
         class="cls-23"
         points="155.37,210.76 155.37,209.71 154.3,209.71 154.3,212.59 157.17,212.59 157.17,211.52 156.13,211.52 158.4,209.23 157.65,208.47 "
         id="polygon10076" />
      <polygon
         class="cls-23"
         points="161.89,217.62 162.93,217.62 160.65,219.91 161.4,220.67 163.68,218.38 163.68,219.42 164.75,219.42 164.75,216.55 161.89,216.55 "
         id="polygon10078" />
    </g>
  </g>
  <g
     id="_男子-2"
     data-name="男子"
     transform="matrix(1.1346552,0,0,1.1346552,-81.6044,-23.249085)">
    <circle
       class="cls-23"
       cx="334.48001"
       cy="29.370001"
       r="1.03"
       id="circle10083" />
    <path
       class="cls-23"
       d="m 335.72,30.89 h -2.48 c -0.25,0 -0.45,0.21 -0.45,0.46 l 0.11,4.21 c 0,0.16 0.15,0.25 0.29,0.28 l 0.42,0.14 0.19,4.08 c 0.01,0.23 0.25,0.41 0.54,0.41 h 0.29 c 0.29,0 0.53,-0.18 0.54,-0.41 l 0.19,-4.08 0.42,-0.14 c 0.14,-0.03 0.28,-0.12 0.29,-0.28 l 0.11,-4.21 c 0,-0.25 -0.2,-0.46 -0.45,-0.46 z"
       id="path10085" />
  </g>
  <g
     id="EV-2"
     data-name="EV"
     transform="matrix(1.1346552,0,0,1.1346552,-81.6044,-23.249085)">
    <path
       class="cls-23"
       d="m 140.47,218.84 v 6.93 h 7.31 v -6.93 z m 6.61,6.27 h -5.9 v -5.62 h 5.9 z"
       id="path10088" />
    <path
       class="cls-23"
       d="m 144.74,221.09 c 0,0.31 -0.27,0.57 -0.61,0.57 -0.34,0 -0.61,-0.25 -0.61,-0.57 0,-0.32 0.27,-0.57 0.61,-0.57 0.34,0 0.61,0.25 0.61,0.57 z"
       id="path10090" />
    <path
       class="cls-23"
       d="m 144.61,224.58 c 0,0.21 -0.2,0.38 -0.42,0.38 h -0.12 c -0.22,0 -0.41,-0.17 -0.42,-0.38 l -0.11,-2.31 c 0,-0.21 0.17,-0.38 0.39,-0.38 h 0.41 c 0.22,0 0.4,0.17 0.39,0.38 l -0.11,2.31 z"
       id="path10092" />
    <path
       class="cls-23"
       d="m 142.9,221.09 c 0,0.31 -0.27,0.57 -0.61,0.57 -0.34,0 -0.61,-0.25 -0.61,-0.57 0,-0.32 0.27,-0.57 0.61,-0.57 0.34,0 0.61,0.25 0.61,0.57 z"
       id="path10094" />
    <path
       class="cls-23"
       d="m 142.78,224.58 c 0,0.21 -0.2,0.38 -0.42,0.38 h -0.12 c -0.22,0 -0.41,-0.17 -0.42,-0.38 l -0.11,-2.31 c 0,-0.21 0.17,-0.38 0.39,-0.38 h 0.41 c 0.22,0 0.4,0.17 0.39,0.38 l -0.11,2.31 z"
       id="path10096" />
    <path
       class="cls-23"
       d="m 146.57,221.09 c 0,0.31 -0.27,0.57 -0.61,0.57 -0.34,0 -0.61,-0.25 -0.61,-0.57 0,-0.32 0.27,-0.57 0.61,-0.57 0.34,0 0.61,0.25 0.61,0.57 z"
       id="path10098" />
    <path
       class="cls-23"
       d="m 146.44,224.58 c 0,0.21 -0.2,0.38 -0.42,0.38 h -0.12 c -0.22,0 -0.41,-0.17 -0.42,-0.38 l -0.11,-2.31 c 0,-0.21 0.17,-0.38 0.39,-0.38 h 0.41 c 0.22,0 0.4,0.17 0.39,0.38 l -0.11,2.31 z"
       id="path10100" />
    <g
       id="g10106">
      <polygon
         class="cls-23"
         points="142.14,218.25 142.14,216.58 141.62,217.06 141.09,216.56 142.51,215.24 142.57,215.29 143.93,216.57 143.4,217.06 142.89,216.59 142.89,218.25 "
         id="polygon10102" />
      <polygon
         class="cls-23"
         points="145.68,218.22 144.32,216.95 144.85,216.46 145.36,216.93 145.36,215.27 146.12,215.27 146.12,216.94 146.63,216.46 147.16,216.96 145.74,218.28 "
         id="polygon10104" />
    </g>
  </g>
  <g
     id="g10132"
     transform="matrix(1.1346552,0,0,1.1346552,-81.6044,-23.249085)">
    <polyline
       class="cls-6"
       points="354.47 163.3 370.86 163.3 370.86 147.82 354.47 147.82"
       id="polyline10109" />
    <g
       id="EV-3"
       data-name="EV">
      <path
         class="cls-23"
         d="m 358.8,153.86 v 7.97 h 8.18 v -7.97 z m 7.39,7.21 h -6.6 v -6.46 h 6.6 z"
         id="path10111" />
      <path
         class="cls-23"
         d="m 363.57,156.45 c 0,0.36 -0.31,0.65 -0.68,0.65 -0.37,0 -0.68,-0.29 -0.68,-0.65 0,-0.36 0.31,-0.65 0.68,-0.65 0.37,0 0.68,0.29 0.68,0.65 z"
         id="path10113" />
      <path
         class="cls-23"
         d="m 363.43,160.47 c -0.01,0.24 -0.22,0.44 -0.47,0.44 h -0.13 c -0.25,0 -0.46,-0.2 -0.47,-0.44 l -0.12,-2.66 c -0.01,-0.24 0.18,-0.44 0.43,-0.44 h 0.45 c 0.25,0 0.45,0.2 0.43,0.44 z"
         id="path10115" />
      <path
         class="cls-23"
         d="m 361.52,156.45 c 0,0.36 -0.31,0.65 -0.68,0.65 -0.37,0 -0.68,-0.29 -0.68,-0.65 0,-0.36 0.31,-0.65 0.68,-0.65 0.37,0 0.68,0.29 0.68,0.65 z"
         id="path10117" />
      <path
         class="cls-23"
         d="m 361.37,160.47 c -0.01,0.24 -0.22,0.44 -0.47,0.44 h -0.13 c -0.25,0 -0.46,-0.2 -0.47,-0.44 l -0.12,-2.66 c -0.01,-0.24 0.18,-0.44 0.43,-0.44 h 0.45 c 0.25,0 0.45,0.2 0.43,0.44 z"
         id="path10119" />
      <path
         class="cls-23"
         d="m 365.62,156.45 c 0,0.36 -0.31,0.65 -0.68,0.65 -0.37,0 -0.68,-0.29 -0.68,-0.65 0,-0.36 0.31,-0.65 0.68,-0.65 0.37,0 0.68,0.29 0.68,0.65 z"
         id="path10121" />
      <path
         class="cls-23"
         d="m 365.48,160.47 c -0.01,0.24 -0.22,0.44 -0.47,0.44 h -0.13 c -0.25,0 -0.46,-0.2 -0.47,-0.44 l -0.12,-2.66 c -0.01,-0.24 0.18,-0.44 0.43,-0.44 h 0.45 c 0.25,0 0.45,0.2 0.43,0.44 z"
         id="path10123" />
      <g
         id="g10129">
        <polygon
           class="cls-23"
           points="360.66,153.18 360.66,151.26 360.08,151.81 359.49,151.24 361.08,149.72 361.14,149.78 362.67,151.25 362.07,151.82 361.5,151.27 361.5,153.18 "
           id="polygon10125" />
        <polygon
           class="cls-23"
           points="364.63,153.15 363.1,151.69 363.7,151.12 364.27,151.66 364.27,149.75 365.11,149.75 365.11,151.67 365.68,151.12 366.28,151.69 364.69,153.22 "
           id="polygon10127" />
      </g>
    </g>
  </g>
  <g
     id="g10164"
     transform="matrix(1.1346552,0,0,1.1346552,-81.6044,-23.249085)">
    <g
       id="g10154">
      <path
         class="cls-23"
         d="m 146.28,204.52 c -0.4,0 -0.75,-0.14 -0.99,-0.41 -0.25,-0.27 -0.38,-0.65 -0.38,-1.09 0,-0.45 0.13,-0.82 0.38,-1.09 0.25,-0.27 0.59,-0.41 0.99,-0.41 0.48,0 0.88,0.22 1.07,0.58 l 0.03,0.05 -0.57,0.29 -0.03,-0.03 c -0.11,-0.12 -0.29,-0.2 -0.44,-0.2 -0.39,0 -0.65,0.32 -0.65,0.81 0,0.49 0.26,0.81 0.65,0.81 0.15,0 0.33,-0.08 0.44,-0.2 l 0.03,-0.03 0.57,0.29 -0.03,0.05 c -0.19,0.36 -0.59,0.58 -1.07,0.58 z"
         id="path10150" />
      <polygon
         class="cls-23"
         points="142.97,204.52 143.66,204.52 144.47,201.51 143.79,201.51 143.32,203.26 142.85,201.51 142.19,201.51 141.72,203.26 141.25,201.51 140.56,201.51 141.38,204.52 142.06,204.52 142.52,202.83 "
         id="polygon10152" />
    </g>
    <g
       id="g10162">
      <path
         class="cls-23"
         d="m 145.44,210.7 c -0.34,0.53 -0.94,0.89 -1.61,0.89 -1.06,0 -1.92,-0.86 -1.92,-1.92 0,-0.8 0.5,-1.5 1.2,-1.78 v -0.7 c -1.07,0.31 -1.86,1.31 -1.86,2.48 0,1.42 1.16,2.58 2.58,2.58 0.98,0 1.83,-0.55 2.27,-1.35 l -0.65,-0.2 z"
         id="path10156" />
      <path
         class="cls-23"
         d="m 144.81,205.8 c 0,0.38 -0.31,0.69 -0.69,0.69 -0.38,0 -0.69,-0.31 -0.69,-0.69 0,-0.38 0.31,-0.69 0.69,-0.69 0.38,0 0.69,0.31 0.69,0.69 z"
         id="path10158" />
      <path
         class="cls-23"
         d="m 147.47,210.55 -0.89,-1.21 c -0.09,-0.12 -0.23,-0.19 -0.37,-0.19 h -1.47 v -1.9 c 0,-0.31 -0.26,-0.57 -0.57,-0.57 h -0.07 c -0.31,0 -0.57,0.26 -0.57,0.57 v 2.26 c 0,0.16 0.06,0.3 0.17,0.4 0.09,0.1 0.21,0.17 0.36,0.17 h 1.93 l 0.75,1.02 c 0.09,0.12 0.23,0.19 0.37,0.19 0.1,0 0.19,-0.03 0.27,-0.09 0.21,-0.15 0.25,-0.44 0.1,-0.65 z"
         id="path10160" />
    </g>
  </g>
  <polyline
     class="cls-8"
     points="116.04 59.78 116.04 26.69 355.26 26.47 354.97 147.85 370.93 147.79 370.91 163.3 418.4 163.3"
     id="polyline10166"
     transform="matrix(1.1346552,0,0,1.1346552,-81.6044,-23.249085)" />
  <g
     id="g10177"
     transform="matrix(1.1346552,0,0,1.1346552,-81.6044,-23.249085)">
    <text
       class="cls-17"
       transform="translate(376.84,91.33)"
       id="text10173"><tspan
         x="0"
         y="0"
         id="tspan10171">中学校舎</tspan></text>
    <rect
       class="cls-1"
       x="369.01999"
       y="85.349998"
       width="6.5700002"
       height="6.5700002"
       id="rect10175" />
  </g>
  <g
     id="g10185"
     transform="matrix(1.1346552,0,0,1.1346552,-81.6044,-23.249085)">
    <text
       class="cls-17"
       transform="translate(376.84,80.87)"
       id="text10181"><tspan
         x="0"
         y="0"
         id="tspan10179">高校校舎</tspan></text>
    <rect
       class="cls-9"
       x="369.01999"
       y="74.900002"
       width="6.5700002"
       height="6.5700002"
       id="rect10183" />
  </g>
  <text
     class="cls-22"
     id="text10195"
     x="112.31953"
     y="221.29181"
     style="font-size:13.6159px;stroke-width:1.13466"><tspan
       class="cls-31"
       id="tspan10189"
       style="stroke-width:1.13466"><tspan
         x="112.31953"
         y="221.29181"
         id="tspan10187"
         style="stroke-width:1.13466">301</tspan></tspan><tspan
       class="cls-16"
       id="tspan10193"
       style="stroke-width:1.13466"><tspan
         x="111.85431"
         y="227.96356"
         id="tspan10191"
         style="stroke-width:1.13466">補助教室</tspan></tspan></text>
  <text
     class="cls-18"
     id="text10199"
     x="118.27477"
     y="194.44579"
     style="stroke-width:1.13466"><tspan
       x="118.27477"
       y="194.44579"
       id="tspan10197"
       style="stroke-width:1.13466">この階まで</tspan></text>
  <text
     class="cls-18"
     id="text10203"
     x="181.6655"
     y="264.44153"
     style="stroke-width:1.13466"><tspan
       x="181.6655"
       y="264.44153"
       id="tspan10201"
       style="stroke-width:1.13466">１階または２階経由でご移動下さい</tspan></text>
  <text
     class="cls-21"
     id="text10213"
     x="218.43246"
     y="37.97691"
     style="font-size:13.6159px;stroke-width:1.13466"><tspan
       class="cls-28"
       x="218.43246"
       y="37.97691"
       id="tspan10205"
       style="stroke-width:1.13466">３</tspan><tspan
       class="cls-34"
       x="226.76083"
       y="37.647861"
       id="tspan10207"
       style="stroke-width:1.13466">階</tspan><tspan
       class="cls-34"
       id="tspan10211"
       style="stroke-width:1.13466"><tspan
         x="215.11929"
         y="49.539051"
         id="tspan10209"
         style="stroke-width:1.13466">学習室</tspan></tspan></text>
  <g
     id="_男子-3"
     data-name="男子"
     transform="matrix(1.1346552,0,0,1.1346552,-81.6044,-23.249085)">
    <ellipse
       class="cls-23"
       cx="144.60001"
       cy="165.03999"
       rx="1.6799999"
       ry="1.6900001"
       id="ellipse10215" />
    <path
       class="cls-23"
       d="m 146.62,167.54 h -4.05 c -0.41,0 -0.74,0.34 -0.73,0.75 l 0.19,6.87 c 0,0.25 0.24,0.4 0.47,0.46 l 0.69,0.22 0.3,6.67 c 0.02,0.37 0.41,0.67 0.88,0.67 h 0.47 c 0.47,0 0.86,-0.3 0.88,-0.67 l 0.3,-6.67 0.69,-0.22 c 0.22,-0.06 0.46,-0.2 0.47,-0.46 l 0.19,-6.87 c 0,-0.41 -0.32,-0.75 -0.73,-0.75 z"
       id="path10217" />
  </g>
  <g
     id="_1F"
     data-name="1F"
     transform="matrix(1.1346552,0,0,1.1346552,-81.6044,-23.249085)">
    <g
       id="g10229">
      <ellipse
         class="cls-22"
         cx="386.76001"
         cy="46.299999"
         rx="19.57"
         ry="19.620001"
         id="ellipse10221" />
      <text
         class="cls-24"
         transform="translate(374.05,57.03)"
         id="text10227"><tspan
           class="cls-32"
           x="0"
           y="0"
           id="tspan10223">3</tspan><tspan
           class="cls-29"
           x="16.209999"
           y="0.56999999"
           id="tspan10225">F</tspan></text>
    </g>
  </g>
</svg>
