<?xml version="1.0" encoding="UTF-8" standalone="no"?>
<svg
   viewBox="0 0 400.00001 330"
   version="1.1"
   id="svg453"
   sodipodi:docname="校舎地図4-5階.svg"
   width="400"
   height="330"
   inkscape:version="1.2.2 (732a01da63, 2022-12-09)"
   xmlns:inkscape="http://www.inkscape.org/namespaces/inkscape"
   xmlns:sodipodi="http://sodipodi.sourceforge.net/DTD/sodipodi-0.dtd"
   xmlns="http://www.w3.org/2000/svg"
   xmlns:svg="http://www.w3.org/2000/svg">
  <sodipodi:namedview
     id="namedview455"
     pagecolor="#ffffff"
     bordercolor="#000000"
     borderopacity="0.25"
     inkscape:showpageshadow="2"
     inkscape:pageopacity="0.0"
     inkscape:pagecheckerboard="0"
     inkscape:deskcolor="#d1d1d1"
     showgrid="false"
     inkscape:zoom="2.1069208"
     inkscape:cx="198.15647"
     inkscape:cy="166.59383"
     inkscape:window-width="1920"
     inkscape:window-height="974"
     inkscape:window-x="-11"
     inkscape:window-y="-11"
     inkscape:window-maximized="1"
     inkscape:current-layer="svg453" />
  <defs
     id="defs4">
    <style
       id="style2">
      .cls-1 {
        stroke-width: .25px;
      }

      .cls-1, .cls-2, .cls-3, .cls-4, .cls-5, .cls-6, .cls-7, .cls-8, .cls-9, .cls-10, .cls-11, .cls-12 {
        stroke-miterlimit: 10;
      }

      .cls-1, .cls-3 {
        fill: #865498;
      }

      .cls-1, .cls-3, .cls-4, .cls-5, .cls-6, .cls-7, .cls-8, .cls-9, .cls-10, .cls-11 {
        stroke: #231815;
      }

      .cls-13, .cls-14 {
        letter-spacing: -.02em;
      }

      .cls-15 {
        font-size: 8.03px;
        letter-spacing: -.01em;
      }

      .cls-15, .cls-16, .cls-17, .cls-18, .cls-19, .cls-20 {
        font-family: HeiseiKakuGoStd-W7-90ms-RKSJ-H, 'Heisei Kaku Gothic Std';
      }

      .cls-15, .cls-21, .cls-19, .cls-22, .cls-10, .cls-20 {
        fill: #fff;
      }

      .cls-16 {
        font-size: 7.08px;
        letter-spacing: -.01em;
      }

      .cls-16, .cls-17, .cls-23, .cls-24 {
        fill: #231815;
      }

      .cls-2 {
        stroke: #c30d23;
        stroke-width: 2px;
      }

      .cls-2, .cls-4, .cls-5, .cls-6, .cls-9, .cls-11, .cls-12 {
        fill: none;
      }

      .cls-25 {
        fill: #515151;
      }

      .cls-26 {
        fill: #c30d23;
        font-family: 'UDKakugo_LargePr6N-B-90ms-RKSJ-H', 'FOT-UDKakugo_Large Pr6N';
        font-size: 8.19px;
      }

      .cls-4 {
        stroke-dasharray: 2.93 2.93;
      }

      .cls-4, .cls-5, .cls-6, .cls-11 {
        stroke-width: .5px;
      }

      .cls-6 {
        stroke-linecap: round;
      }

      .cls-7 {
        fill: #4969aa;
      }

      .cls-17 {
        font-size: 6px;
        letter-spacing: -.01em;
      }

      .cls-27 {
        letter-spacing: -.05em;
      }

      .cls-18 {
        font-size: 6.96px;
        letter-spacing: -.01em;
      }

      .cls-28 {
        font-size: 8.54px;
        letter-spacing: -.14em;
      }

      .cls-8 {
        fill: #727171;
      }

      .cls-29 {
        font-size: 20.81px;
      }

      .cls-30 {
        font-size: 33.35px;
        letter-spacing: -.05em;
      }

      .cls-31, .cls-22, .cls-14 {
        font-family: MyriadPro-Semibold, 'Myriad Pro';
        font-weight: 600;
      }

      .cls-31, .cls-14 {
        font-size: 15.14px;
      }

      .cls-19 {
        font-size: 9.48px;
        letter-spacing: -.01em;
      }

      .cls-24 {
        font-family: MOBO-Bold, 'MOBO Bold-90ms-RKSJ-H';
        font-size: 6.53px;
        font-weight: 700;
        letter-spacing: -.05em;
      }

      .cls-32 {
        fill: #dbdbdb;
      }

      .cls-33 {
        fill: #9d1f24;
      }

      .cls-34 {
        font-size: 7.76px;
        letter-spacing: -.01em;
      }

      .cls-11 {
        stroke-dasharray: 2.98 2.98;
      }

      .cls-35 {
        fill: #424142;
        fill-rule: evenodd;
      }

      .cls-12 {
        stroke: #515151;
        stroke-width: .75px;
      }
    </style>
  </defs>
  <g
     id="_最背景_灰色_"
     data-name="最背景(灰色)"
     transform="matrix(1.1346552,0,0,1.1373428,-81.6044,-23.304153)">
    <rect
       class="cls-32"
       x="71.919998"
       y="20.49"
       width="352.53"
       height="290.14999"
       id="rect6" />
  </g>
  <g
     id="_路の背景_白_"
     data-name="路の背景(白)"
     transform="matrix(1.1346552,0,0,1.1346552,-81.6044,-23.249085)">
    <polygon
       class="cls-21"
       points="124.51,26.5 124.51,26.69 116.04,26.69 116.04,90.75 116.04,91.97 116.04,100.97 131.65,100.97 131.65,91.97 131.91,91.97 131.91,65.74 140.29,65.74 140.29,53.97 339.45,53.97 339.45,95.05 308,95.05 308,200.8 347.96,200.8 347.96,200.8 384.56,200.8 384.56,182.15 418.65,182.15 418.65,163.12 363.53,163.12 363.53,152.76 355.23,152.76 355.23,53.97 355.52,53.97 355.52,26.5 140.29,26.5 133.42,26.5 "
       id="polygon9" />
    <polygon
       class="cls-21"
       points="192.18,229.77 192.18,211.66 177.13,211.66 177.13,281.77 185.81,281.77 192.18,281.77 208.57,281.77 208.57,229.77 "
       id="polygon11" />
  </g>
  <g
     id="_枠本体"
     data-name="枠本体"
     transform="matrix(1.1346552,0,0,1.1346552,-81.6044,-23.249085)">
    <rect
       class="cls-3"
       x="131.64999"
       y="42.419998"
       width="31.42"
       height="26.34"
       id="rect14" />
    <rect
       class="cls-3"
       x="163.07001"
       y="42.419998"
       width="31.42"
       height="26.34"
       id="rect16" />
    <rect
       class="cls-3"
       x="194.49001"
       y="42.419998"
       width="31.42"
       height="26.34"
       id="rect18" />
    <g
       id="g30">
      <line
         class="cls-5"
         x1="208.63"
         y1="271.09"
         x2="210.13"
         y2="271.09"
         id="line20" />
      <line
         class="cls-11"
         x1="213.11"
         y1="271.09"
         x2="360.57999"
         y2="271.09"
         id="line22" />
      <polyline
         class="cls-5"
         points="362.07 271.09 363.57 271.09 363.57 269.59"
         id="polyline24" />
      <line
         class="cls-4"
         x1="363.57001"
         y1="266.66"
         x2="363.57001"
         y2="203.77"
         id="line26" />
      <line
         class="cls-5"
         x1="363.57001"
         y1="202.3"
         x2="363.57001"
         y2="200.8"
         id="line28" />
    </g>
    <rect
       class="cls-3"
       x="225.91"
       y="42.419998"
       width="31.42"
       height="26.34"
       id="rect32" />
    <rect
       class="cls-3"
       x="308"
       y="68.760002"
       width="31.42"
       height="26.34"
       id="rect34" />
    <rect
       class="cls-3"
       x="308"
       y="95.099998"
       width="31.42"
       height="26.34"
       id="rect36" />
    <rect
       class="cls-3"
       x="308"
       y="121.43"
       width="31.42"
       height="26.34"
       id="rect38" />
    <rect
       class="cls-3"
       x="308"
       y="147.89999"
       width="31.42"
       height="26.34"
       id="rect40" />
    <rect
       class="cls-3"
       x="308"
       y="174.47"
       width="31.42"
       height="26.34"
       id="rect42" />
    <rect
       class="cls-3"
       x="257.32999"
       y="42.419998"
       width="31.42"
       height="26.34"
       id="rect44" />
    <rect
       class="cls-10"
       x="288.75"
       y="52.880001"
       width="24.559999"
       height="15.75"
       id="rect46" />
    <polyline
       class="cls-3"
       points="370.92 163.3 418.4 163.3 418.4 200.8 370.92 200.8"
       id="polyline48" />
    <polyline
       class="cls-8"
       points="116.04 79.33 87.06 79.33 87.06 59.4 116.04 59.4"
       id="polyline50" />
    <polyline
       class="cls-8"
       points="339.77 68.64 313.3 68.64 313.3 52.88 339.77 52.88"
       id="polyline52" />
    <polyline
       class="cls-8"
       points="370.92 179.43 370.92 200.8 355.62 200.8 355.62 179.43"
       id="polyline54" />
    <polyline
       class="cls-7"
       points="355.24 42.3 355.24 26.5 313.3 26.5 313.3 42.3"
       id="polyline56" />
    <polyline
       class="cls-7"
       points="208.57 260.56 218.63 260.56 218.63 244.38 208.57 244.38"
       id="polyline58" />
    <line
       class="cls-9"
       x1="339.42001"
       y1="200.8"
       x2="355.62"
       y2="200.8"
       id="line60" />
    <rect
       class="cls-3"
       x="133.5"
       y="244.27"
       width="43.639999"
       height="37.509998"
       id="rect62" />
    <rect
       class="cls-3"
       x="133.5"
       y="211.66"
       width="43.639999"
       height="32.599998"
       id="rect64" />
    <rect
       class="cls-3"
       x="133.5"
       y="169.34"
       width="58.68"
       height="42.32"
       id="rect66" />
    <polyline
       class="cls-8"
       points="208.63 260.4 208.63 281.78 193.33 281.78 193.33 260.4"
       id="polyline68" />
    <line
       class="cls-9"
       x1="177.13"
       y1="281.78"
       x2="193.33"
       y2="281.78"
       id="line70" />
    <line
       class="cls-9"
       x1="131.64999"
       y1="68.760002"
       x2="131.64999"
       y2="91.970001"
       id="line72" />
    <line
       class="cls-9"
       x1="116.04"
       y1="78.910004"
       x2="116.04"
       y2="91.970001"
       id="line74" />
    <line
       class="cls-9"
       x1="192.17999"
       y1="211.66"
       x2="192.17999"
       y2="229.38"
       id="line76" />
  </g>
  <text
     class="cls-21"
     id="text127"
     x="77.996208"
     y="35.537403"
     style="font-size:13.6159px;stroke-width:1.13466"><tspan
       class="cls-18"
       id="tspan121"
       style="stroke-width:1.13466"><tspan
         x="77.996208"
         y="35.537403"
         id="tspan119"
         style="stroke-width:1.13466">中学</tspan></tspan><tspan
       class="cls-14"
       id="tspan125"
       style="stroke-width:1.13466"><tspan
         x="79.187599"
         y="50.866596"
         id="tspan123"
         style="stroke-width:1.13466">1I</tspan></tspan></text>
  <text
     class="cls-21"
     id="text139"
     x="113.42014"
     y="35.537403"
     style="font-size:13.6159px;stroke-width:1.13466"><tspan
       class="cls-18"
       id="tspan131"
       style="stroke-width:1.13466"><tspan
         x="113.42014"
         y="35.537403"
         id="tspan129"
         style="stroke-width:1.13466">中学</tspan></tspan><tspan
       class="cls-31"
       id="tspan137"
       style="stroke-width:1.13466"><tspan
         class="cls-27"
         x="111.32102"
         y="50.866596"
         id="tspan133"
         style="stroke-width:1.13466">1</tspan><tspan
         class="cls-13"
         x="119.67209"
         y="50.866596"
         id="tspan135"
         style="stroke-width:1.13466">H</tspan></tspan></text>
  <text
     class="cls-21"
     id="text149"
     x="149.07101"
     y="35.537403"
     style="font-size:13.6159px;stroke-width:1.13466"><tspan
       class="cls-18"
       id="tspan143"
       style="stroke-width:1.13466"><tspan
         x="149.07101"
         y="35.537403"
         id="tspan141"
         style="stroke-width:1.13466">中学</tspan></tspan><tspan
       class="cls-14"
       id="tspan147"
       style="stroke-width:1.13466"><tspan
         x="146.8017"
         y="50.866596"
         id="tspan145"
         style="stroke-width:1.13466">1G</tspan></tspan></text>
  <text
     class="cls-21"
     id="text159"
     x="184.72188"
     y="35.537403"
     style="font-size:13.6159px;stroke-width:1.13466"><tspan
       class="cls-18"
       id="tspan153"
       style="stroke-width:1.13466"><tspan
         x="184.72188"
         y="35.537403"
         id="tspan151"
         style="stroke-width:1.13466">中学</tspan></tspan><tspan
       class="cls-14"
       id="tspan157"
       style="stroke-width:1.13466"><tspan
         x="183.80281"
         y="50.866596"
         id="tspan155"
         style="stroke-width:1.13466">1F</tspan></tspan></text>
  <text
     class="cls-21"
     id="text169"
     x="277.87708"
     y="65.424225"
     style="font-size:13.6159px;stroke-width:1.13466"><tspan
       class="cls-18"
       id="tspan163"
       style="stroke-width:1.13466"><tspan
         x="277.87708"
         y="65.424225"
         id="tspan161"
         style="stroke-width:1.13466">中学</tspan></tspan><tspan
       class="cls-14"
       id="tspan167"
       style="stroke-width:1.13466"><tspan
         x="276.9126"
         y="80.753418"
         id="tspan165"
         style="stroke-width:1.13466">1E</tspan></tspan></text>
  <text
     class="cls-21"
     id="text179"
     x="277.87708"
     y="95.299698"
     style="font-size:13.6159px;stroke-width:1.13466"><tspan
       class="cls-18"
       id="tspan173"
       style="stroke-width:1.13466"><tspan
         x="277.87708"
         y="95.299698"
         id="tspan171"
         style="stroke-width:1.13466">中学</tspan></tspan><tspan
       class="cls-14"
       id="tspan177"
       style="stroke-width:1.13466"><tspan
         x="275.46024"
         y="110.62888"
         id="tspan175"
         style="stroke-width:1.13466">1D</tspan></tspan></text>
  <text
     class="cls-21"
     id="text189"
     x="277.87708"
     y="125.18652"
     style="font-size:13.6159px;stroke-width:1.13466"><tspan
       class="cls-18"
       id="tspan183"
       style="stroke-width:1.13466"><tspan
         x="277.87708"
         y="125.18652"
         id="tspan181"
         style="stroke-width:1.13466">中学</tspan></tspan><tspan
       class="cls-14"
       id="tspan187"
       style="stroke-width:1.13466"><tspan
         x="276.27719"
         y="140.5157"
         id="tspan185"
         style="stroke-width:1.13466">1C</tspan></tspan></text>
  <text
     class="cls-21"
     id="text199"
     x="277.87708"
     y="155.22083"
     style="font-size:13.6159px;stroke-width:1.13466"><tspan
       class="cls-18"
       id="tspan193"
       style="stroke-width:1.13466"><tspan
         x="277.87708"
         y="155.22083"
         id="tspan191"
         style="stroke-width:1.13466">中学</tspan></tspan><tspan
       class="cls-14"
       id="tspan197"
       style="stroke-width:1.13466"><tspan
         x="276.3793"
         y="170.55002"
         id="tspan195"
         style="stroke-width:1.13466">1B</tspan></tspan></text>
  <text
     class="cls-21"
     id="text209"
     x="277.87708"
     y="185.35727"
     style="font-size:13.6159px;stroke-width:1.13466"><tspan
       class="cls-18"
       id="tspan203"
       style="stroke-width:1.13466"><tspan
         x="277.87708"
         y="185.35727"
         id="tspan201"
         style="stroke-width:1.13466">中学</tspan></tspan><tspan
       class="cls-14"
       id="tspan207"
       style="stroke-width:1.13466"><tspan
         x="275.86871"
         y="200.68646"
         id="tspan205"
         style="stroke-width:1.13466">1A</tspan></tspan></text>
  <text
     class="cls-15"
     id="text213"
     x="346.55222"
     y="186.24773"
     style="stroke-width:1.13466"><tspan
       x="346.55222"
       y="186.24773"
       id="tspan211"
       style="stroke-width:1.13466">高校美術室</tspan></text>
  <g
     id="_階段-2"
     data-name="階段"
     transform="matrix(1.1346552,0,0,1.1346552,-81.6044,-23.249085)">
    <polygon
       class="cls-21"
       points="330.02,58.35 330.02,60.2 327.31,60.2 327.31,62.05 324.61,62.05 324.61,63.9 321.9,63.9 321.9,65.76 321.02,65.76 321.02,62.91 323.72,62.91 323.72,61.05 326.43,61.05 326.43,59.2 329.14,59.2 329.14,57.36 332.06,57.36 332.06,58.35 "
       id="polygon215" />
    <g
       id="g221">
      <polygon
         class="cls-21"
         points="322.84,56.98 322.84,55.94 321.89,55.94 321.89,58.79 324.44,58.79 324.44,57.73 323.51,57.73 325.54,55.45 324.87,54.7 "
         id="polygon217" />
      <polygon
         class="cls-21"
         points="328.64,63.79 329.56,63.79 327.54,66.07 328.21,66.82 330.23,64.55 330.23,65.58 331.18,65.58 331.18,62.73 328.64,62.73 "
         id="polygon219" />
    </g>
  </g>
  <g
     id="_階段-3"
     data-name="階段"
     transform="matrix(1.1346552,0,0,1.1346552,-81.6044,-23.249085)">
    <polygon
       class="cls-21"
       points="105.43,66.69 105.43,68.74 102.41,68.74 102.41,70.8 99.4,70.8 99.4,72.87 96.38,72.87 96.38,74.93 95.4,74.93 95.4,71.76 98.41,71.76 98.41,69.69 101.43,69.69 101.43,67.63 104.44,67.63 104.44,65.58 107.7,65.58 107.7,66.69 "
       id="polygon224" />
    <g
       id="g230">
      <polygon
         class="cls-21"
         points="97.43,65.15 97.43,64 96.37,64 96.37,67.18 99.21,67.18 99.21,65.99 98.18,65.99 100.44,63.46 99.69,62.62 "
         id="polygon226" />
      <polygon
         class="cls-21"
         points="103.89,72.74 104.92,72.74 102.66,75.28 103.41,76.12 105.67,73.58 105.67,74.74 106.72,74.74 106.72,71.56 103.89,71.56 "
         id="polygon228" />
    </g>
  </g>
  <g
     id="_階段-4"
     data-name="階段"
     transform="matrix(1.1346552,0,0,1.1346552,-81.6044,-23.249085)">
    <polygon
       class="cls-21"
       points="366.77,187.76 366.77,189.37 364.13,189.37 364.13,190.98 361.49,190.98 361.49,192.6 358.85,192.6 358.85,194.22 357.99,194.22 357.99,191.73 360.63,191.73 360.63,190.12 363.27,190.12 363.27,188.51 365.91,188.51 365.91,186.9 368.76,186.9 368.76,187.76 "
       id="polygon233" />
    <g
       id="g239">
      <polygon
         class="cls-21"
         points="359.77,186.56 359.77,185.66 358.84,185.66 358.84,188.15 361.33,188.15 361.33,187.22 360.42,187.22 362.4,185.24 361.75,184.58 "
         id="polygon235" />
      <polygon
         class="cls-21"
         points="365.42,192.5 366.33,192.5 364.35,194.49 365,195.14 366.98,193.16 366.98,194.07 367.91,194.07 367.91,191.58 365.42,191.58 "
         id="polygon237" />
    </g>
  </g>
  <g
     id="_男子-2"
     data-name="男子"
     transform="matrix(1.1346552,0,0,1.1346552,-81.6044,-23.249085)">
    <circle
       class="cls-21"
       cx="334.48001"
       cy="29.370001"
       r="1.03"
       id="circle242" />
    <path
       class="cls-21"
       d="m 335.72,30.89 h -2.48 c -0.25,0 -0.45,0.21 -0.45,0.46 l 0.11,4.21 c 0,0.16 0.15,0.25 0.29,0.28 l 0.42,0.14 0.19,4.08 c 0.01,0.23 0.25,0.41 0.54,0.41 h 0.29 c 0.29,0 0.53,-0.18 0.54,-0.41 l 0.19,-4.08 0.42,-0.14 c 0.14,-0.03 0.28,-0.12 0.29,-0.28 l 0.11,-4.21 c 0,-0.25 -0.2,-0.46 -0.45,-0.46 z"
       id="path244" />
  </g>
  <g
     id="_男子-3"
     data-name="男子"
     transform="matrix(1.1346552,0,0,1.1346552,-81.6044,-23.249085)">
    <circle
       class="cls-21"
       cx="213.60001"
       cy="247.44"
       r="1.03"
       id="circle247" />
    <path
       class="cls-21"
       d="m 214.84,248.96 h -2.48 c -0.25,0 -0.45,0.21 -0.45,0.46 l 0.11,4.21 c 0,0.16 0.15,0.25 0.29,0.28 l 0.42,0.14 0.19,4.08 c 0.01,0.23 0.25,0.41 0.54,0.41 h 0.29 c 0.29,0 0.53,-0.18 0.54,-0.41 l 0.19,-4.08 0.42,-0.14 c 0.14,-0.03 0.28,-0.12 0.29,-0.28 l 0.11,-4.21 c 0,-0.25 -0.2,-0.46 -0.45,-0.46 z"
       id="path249" />
  </g>
  <g
     id="g275"
     transform="matrix(1.1346552,0,0,1.1346552,-81.6044,-23.249085)">
    <polyline
       class="cls-8"
       points="354.47 163.3 370.86 163.3 370.86 147.82 354.47 147.82"
       id="polyline252" />
    <g
       id="EV-2"
       data-name="EV">
      <path
         class="cls-21"
         d="m 358.8,153.86 v 7.97 h 8.18 v -7.97 z m 7.39,7.21 h -6.6 v -6.46 h 6.6 z"
         id="path254" />
      <path
         class="cls-21"
         d="m 363.57,156.45 c 0,0.36 -0.31,0.65 -0.68,0.65 -0.37,0 -0.68,-0.29 -0.68,-0.65 0,-0.36 0.31,-0.65 0.68,-0.65 0.37,0 0.68,0.29 0.68,0.65 z"
         id="path256" />
      <path
         class="cls-21"
         d="m 363.43,160.47 c -0.01,0.24 -0.22,0.44 -0.47,0.44 h -0.13 c -0.25,0 -0.46,-0.2 -0.47,-0.44 l -0.12,-2.66 c -0.01,-0.24 0.18,-0.44 0.43,-0.44 h 0.45 c 0.25,0 0.45,0.2 0.43,0.44 z"
         id="path258" />
      <path
         class="cls-21"
         d="m 361.52,156.45 c 0,0.36 -0.31,0.65 -0.68,0.65 -0.37,0 -0.68,-0.29 -0.68,-0.65 0,-0.36 0.31,-0.65 0.68,-0.65 0.37,0 0.68,0.29 0.68,0.65 z"
         id="path260" />
      <path
         class="cls-21"
         d="m 361.37,160.47 c -0.01,0.24 -0.22,0.44 -0.47,0.44 h -0.13 c -0.25,0 -0.46,-0.2 -0.47,-0.44 l -0.12,-2.66 c -0.01,-0.24 0.18,-0.44 0.43,-0.44 h 0.45 c 0.25,0 0.45,0.2 0.43,0.44 z"
         id="path262" />
      <path
         class="cls-21"
         d="m 365.62,156.45 c 0,0.36 -0.31,0.65 -0.68,0.65 -0.37,0 -0.68,-0.29 -0.68,-0.65 0,-0.36 0.31,-0.65 0.68,-0.65 0.37,0 0.68,0.29 0.68,0.65 z"
         id="path264" />
      <path
         class="cls-21"
         d="m 365.48,160.47 c -0.01,0.24 -0.22,0.44 -0.47,0.44 h -0.13 c -0.25,0 -0.46,-0.2 -0.47,-0.44 l -0.12,-2.66 c -0.01,-0.24 0.18,-0.44 0.43,-0.44 h 0.45 c 0.25,0 0.45,0.2 0.43,0.44 z"
         id="path266" />
      <g
         id="g272">
        <polygon
           class="cls-21"
           points="360.66,153.18 360.66,151.26 360.08,151.81 359.49,151.24 361.08,149.72 361.14,149.78 362.67,151.25 362.07,151.82 361.5,151.27 361.5,153.18 "
           id="polygon268" />
        <polygon
           class="cls-21"
           points="364.63,153.15 363.1,151.69 363.7,151.12 364.27,151.66 364.27,149.75 365.11,149.75 365.11,151.67 365.68,151.12 366.28,151.69 364.69,153.22 "
           id="polygon270" />
      </g>
    </g>
  </g>
  <text
     class="cls-19"
     id="text281"
     x="75.682838"
     y="273.92667"
     style="stroke-width:1.13466"><tspan
       x="75.682838"
       y="273.92667"
       id="tspan277"
       style="stroke-width:1.13466">中学第一</tspan><tspan
       x="80.993034"
       y="284.68323"
       id="tspan279"
       style="stroke-width:1.13466">音楽室</tspan></text>
  <text
     class="cls-19"
     id="text287"
     x="75.608772"
     y="233.47823"
     style="stroke-width:1.13466"><tspan
       x="75.608772"
       y="233.47823"
       id="tspan283"
       style="stroke-width:1.13466">中学第二</tspan><tspan
       x="80.918968"
       y="244.23477"
       id="tspan285"
       style="stroke-width:1.13466">音楽室</tspan></text>
  <text
     class="cls-19"
     id="text291"
     x="79.633942"
     y="196.34663"
     style="stroke-width:1.13466"><tspan
       x="79.633942"
       y="196.34663"
       id="tspan289"
       style="stroke-width:1.13466">高校音楽室</tspan></text>
  <g
     id="_階段-5"
     data-name="階段"
     transform="matrix(1.1346552,0,0,1.1346552,-81.6044,-23.249085)">
    <polygon
       class="cls-21"
       points="204.48,268.74 204.48,270.34 201.84,270.34 201.84,271.95 199.2,271.95 199.2,273.57 196.56,273.57 196.56,275.19 195.7,275.19 195.7,272.71 198.34,272.71 198.34,271.09 200.98,271.09 200.98,269.48 203.62,269.48 203.62,267.87 206.47,267.87 206.47,268.74 "
       id="polygon293" />
    <g
       id="g299">
      <polygon
         class="cls-21"
         points="197.48,267.54 197.48,266.63 196.55,266.63 196.55,269.12 199.04,269.12 199.04,268.19 198.13,268.19 200.11,266.21 199.46,265.55 "
         id="polygon295" />
      <polygon
         class="cls-21"
         points="203.13,273.48 204.04,273.48 202.06,275.46 202.71,276.11 204.69,274.13 204.69,275.04 205.62,275.04 205.62,272.55 203.13,272.55 "
         id="polygon297" />
    </g>
  </g>
  <g
     id="g325"
     transform="matrix(1.1346552,0,0,1.1346552,-81.6044,-23.249085)">
    <polyline
       class="cls-8"
       points="192.18 244.27 208.57 244.27 208.57 228.79 192.18 228.79"
       id="polyline302" />
    <g
       id="EV-3"
       data-name="EV">
      <path
         class="cls-21"
         d="m 196.51,234.83 v 7.97 h 8.18 v -7.97 z m 7.39,7.21 h -6.6 v -6.46 h 6.6 z"
         id="path304" />
      <path
         class="cls-21"
         d="m 201.28,237.42 c 0,0.36 -0.31,0.65 -0.68,0.65 -0.37,0 -0.68,-0.29 -0.68,-0.65 0,-0.36 0.31,-0.65 0.68,-0.65 0.37,0 0.68,0.29 0.68,0.65 z"
         id="path306" />
      <path
         class="cls-21"
         d="m 201.13,241.44 c -0.01,0.24 -0.22,0.44 -0.47,0.44 h -0.13 c -0.25,0 -0.46,-0.2 -0.47,-0.44 l -0.12,-2.66 c -0.01,-0.24 0.18,-0.44 0.43,-0.44 h 0.45 c 0.25,0 0.45,0.2 0.43,0.44 z"
         id="path308" />
      <path
         class="cls-21"
         d="m 199.23,237.42 c 0,0.36 -0.31,0.65 -0.68,0.65 -0.37,0 -0.68,-0.29 -0.68,-0.65 0,-0.36 0.31,-0.65 0.68,-0.65 0.37,0 0.68,0.29 0.68,0.65 z"
         id="path310" />
      <path
         class="cls-21"
         d="m 199.08,241.44 c -0.01,0.24 -0.22,0.44 -0.47,0.44 h -0.13 c -0.25,0 -0.46,-0.2 -0.47,-0.44 l -0.12,-2.66 c -0.01,-0.24 0.18,-0.44 0.43,-0.44 h 0.45 c 0.25,0 0.45,0.2 0.43,0.44 z"
         id="path312" />
      <path
         class="cls-21"
         d="m 203.33,237.42 c 0,0.36 -0.31,0.65 -0.68,0.65 -0.37,0 -0.68,-0.29 -0.68,-0.65 0,-0.36 0.31,-0.65 0.68,-0.65 0.37,0 0.68,0.29 0.68,0.65 z"
         id="path314" />
      <path
         class="cls-21"
         d="m 203.19,241.44 c -0.01,0.24 -0.22,0.44 -0.47,0.44 h -0.13 c -0.25,0 -0.46,-0.2 -0.47,-0.44 L 202,238.78 c -0.01,-0.24 0.18,-0.44 0.43,-0.44 h 0.45 c 0.25,0 0.45,0.2 0.43,0.44 z"
         id="path316" />
      <g
         id="g322">
        <polygon
           class="cls-21"
           points="198.37,234.15 198.37,232.24 197.79,232.79 197.2,232.21 198.79,230.69 198.85,230.75 200.38,232.22 199.78,232.79 199.21,232.24 199.21,234.15 "
           id="polygon318" />
        <polygon
           class="cls-21"
           points="202.34,234.12 200.81,232.66 201.41,232.09 201.98,232.64 201.98,230.73 202.82,230.73 202.82,232.64 203.39,232.09 203.99,232.67 202.4,234.19 "
           id="polygon320" />
      </g>
    </g>
  </g>
  <polyline
     class="cls-9"
     points="116.04 59.78 116.04 26.69 355.26 26.47 354.97 147.85 370.93 147.79 370.91 163.3 418.4 163.3"
     id="polyline343"
     transform="matrix(1.1346552,0,0,1.1346552,-81.6044,-23.249085)" />
  <g
     id="g354"
     transform="matrix(1.1346552,0,0,1.1346552,-81.6044,-23.249085)">
    <text
       class="cls-16"
       transform="translate(376.22,78.8)"
       id="text350"><tspan
         x="0"
         y="0"
         id="tspan348">中学校舎</tspan></text>
    <rect
       class="cls-1"
       x="368.39999"
       y="72.830002"
       width="6.5700002"
       height="6.5700002"
       id="rect352" />
  </g>
  <g
     id="g362"
     transform="matrix(1.1346552,0,0,1.1346552,-81.6044,-23.249085)">
    <text
       class="cls-16"
       transform="translate(94.88,221.64)"
       id="text358"><tspan
         x="0"
         y="0"
         id="tspan356">中学校舎</tspan></text>
    <rect
       class="cls-1"
       x="87.059998"
       y="215.66"
       width="6.5700002"
       height="6.5700002"
       id="rect360" />
  </g>
  <text
     class="cls-20"
     id="text372"
     x="218.43246"
     y="37.97691"
     style="font-size:13.6159px;stroke-width:1.13466"><tspan
       class="cls-28"
       x="218.43246"
       y="37.97691"
       id="tspan364"
       style="stroke-width:1.13466">４</tspan><tspan
       class="cls-34"
       x="226.76083"
       y="37.647861"
       id="tspan366"
       style="stroke-width:1.13466">階</tspan><tspan
       class="cls-34"
       id="tspan370"
       style="stroke-width:1.13466"><tspan
         x="215.11929"
         y="49.539051"
         id="tspan368"
         style="stroke-width:1.13466">学習室</tspan></tspan></text>
  <g
     id="g378"
     transform="matrix(1.1346552,0,0,1.1346552,-81.6044,-23.249085)">
    <line
       class="cls-2"
       x1="118.74"
       y1="99.510002"
       x2="128.95"
       y2="89.300003"
       id="line374" />
    <line
       class="cls-2"
       x1="128.95"
       y1="99.510002"
       x2="118.74"
       y2="89.300003"
       id="line376" />
  </g>
  <text
     class="cls-26"
     id="text382"
     x="40.325645"
     y="103.11747"
     style="stroke-width:1.13466"><tspan
       x="40.325645"
       y="103.11747"
       id="tspan380"
       style="stroke-width:1.13466">立入禁止</tspan></text>
  <text
     class="cls-17"
     id="text386"
     x="14.251275"
     y="75.624771"
     style="stroke-width:1.13466"><tspan
       x="14.251275"
       y="75.624771"
       id="tspan384"
       style="stroke-width:1.13466">この階まで</tspan></text>
  <text
     class="cls-17"
     id="text390"
     x="217.98906"
     y="65.073624"
     style="stroke-width:1.13466"><tspan
       x="217.98906"
       y="65.073624"
       id="tspan388"
       style="stroke-width:1.13466">この階まで</tspan></text>
  <text
     class="cls-17"
     id="text394"
     x="129.96342"
     y="306.19806"
     style="stroke-width:1.13466"><tspan
       x="129.96342"
       y="306.19806"
       id="tspan392"
       style="stroke-width:1.13466">この階まで</tspan></text>
  <g
     id="_装飾のボード"
     data-name="装飾のボード"
     transform="matrix(1.1346552,0,0,1.1346552,-81.6044,-23.249085)">
    <polyline
       class="cls-6"
       points="292.78 75.67 304.07 62.18 312.56 62.26"
       id="polyline396" />
  </g>
  <g
     id="g403"
     transform="matrix(1.1346552,0,0,1.1346552,-81.6044,-23.249085)">
    <polyline
       class="cls-12"
       points="395.99 153.22 379.13 153.22 371.05 166.74"
       id="polyline399" />
    <path
       class="cls-25"
       d="m 369.41,165.64 c -0.56,0.94 -0.25,2.15 0.68,2.71 0.94,0.56 2.15,0.25 2.71,-0.68 0.56,-0.94 0.25,-2.15 -0.68,-2.71 -0.94,-0.56 -2.15,-0.25 -2.71,0.68 z"
       id="path401" />
  </g>
  <g
     id="g409"
     transform="matrix(1.1346552,0,0,1.1346552,-81.6044,-23.249085)">
    <circle
       class="cls-33"
       cx="123.84"
       cy="78.150002"
       r="6.3600001"
       id="circle405" />
    <path
       class="cls-21"
       d="m 127.43,75.11 c 0,0 0,0 0,0 -0.47,-0.47 -1.23,-0.82 -1.74,-0.6 -0.37,0.16 -0.56,0.47 -0.53,0.88 0.03,0.41 -0.13,0.79 -0.43,1.07 -0.13,0.12 -0.26,0.17 -0.39,0.16 -0.02,0 -0.03,0 -0.05,0 v 0 c 0,0 0,0 0,0 l -0.28,0.28 c -0.12,0.12 -0.32,0.14 -0.46,0.04 -0.95,-0.7 -1.72,-0.96 -2,-0.67 l -1.83,1.83 c -0.41,0.41 0.33,1.81 1.65,3.13 1.32,1.32 2.72,2.06 3.13,1.65 l 1.83,-1.83 c 0.28,-0.28 0.03,-1.05 -0.67,-2 -0.1,-0.14 -0.09,-0.34 0.04,-0.46 l 0.28,-0.28 c 0,0 0,0 0,0 0,-0.02 0,-0.03 0,-0.05 -0.01,-0.13 0.04,-0.27 0.16,-0.4 0.28,-0.31 0.66,-0.46 1.07,-0.43 0.41,0.03 0.71,-0.16 0.88,-0.53 0.23,-0.52 -0.13,-1.28 -0.6,-1.75 z m -4.02,7 c -0.52,-0.29 -1.11,-0.76 -1.67,-1.31 -0.56,-0.56 -1.02,-1.15 -1.31,-1.67 -0.15,-0.26 -0.22,-0.44 -0.25,-0.56 0.12,0.03 0.3,0.1 0.56,0.25 0.52,0.29 1.11,0.76 1.67,1.31 0.56,0.56 1.02,1.15 1.31,1.67 0.15,0.26 0.22,0.44 0.25,0.56 -0.12,-0.03 -0.3,-0.1 -0.56,-0.25 z"
       id="path407" />
  </g>
  <g
     id="g415"
     transform="matrix(1.1346552,0,0,1.1346552,-81.6044,-23.249085)">
    <circle
       class="cls-33"
       cx="400.91"
       cy="153.17999"
       r="6.3600001"
       id="circle411" />
    <path
       class="cls-21"
       d="m 404.5,150.15 c 0,0 0,0 0,0 -0.47,-0.47 -1.23,-0.82 -1.74,-0.6 -0.37,0.16 -0.56,0.47 -0.53,0.88 0.03,0.41 -0.13,0.79 -0.43,1.07 -0.13,0.12 -0.26,0.17 -0.39,0.16 -0.02,0 -0.03,0 -0.05,0 v 0 c 0,0 0,0 0,0 l -0.28,0.28 c -0.12,0.12 -0.32,0.14 -0.46,0.04 -0.95,-0.7 -1.72,-0.96 -2,-0.67 l -1.83,1.83 c -0.41,0.41 0.33,1.81 1.65,3.13 1.32,1.32 2.72,2.06 3.13,1.65 l 1.83,-1.83 c 0.28,-0.28 0.03,-1.05 -0.67,-2 -0.1,-0.14 -0.09,-0.34 0.04,-0.46 l 0.28,-0.28 c 0,0 0,0 0,0 0,-0.02 0,-0.03 0,-0.05 -0.01,-0.13 0.04,-0.27 0.16,-0.4 0.28,-0.31 0.66,-0.46 1.07,-0.43 0.41,0.03 0.71,-0.16 0.88,-0.53 0.23,-0.52 -0.13,-1.28 -0.6,-1.75 z m -4.02,7 c -0.52,-0.29 -1.11,-0.76 -1.67,-1.31 -0.56,-0.56 -1.02,-1.15 -1.31,-1.67 -0.15,-0.26 -0.22,-0.44 -0.25,-0.56 0.12,0.03 0.3,0.1 0.56,0.25 0.52,0.29 1.11,0.76 1.67,1.31 0.56,0.56 1.02,1.15 1.31,1.67 0.15,0.26 0.22,0.44 0.25,0.56 -0.12,-0.03 -0.3,-0.1 -0.56,-0.25 z"
       id="path413" />
  </g>
  <g
     id="g429"
     transform="matrix(1.1346552,0,0,1.1346552,-81.6044,-23.249085)">
    <g
       id="g421">
      <circle
         class="cls-33"
         cx="374.60999"
         cy="90.599998"
         r="6.7399998"
         id="circle417" />
      <path
         class="cls-21"
         d="m 378.42,87.38 c 0,0 0,0 0,0 -0.5,-0.5 -1.3,-0.87 -1.85,-0.63 -0.4,0.17 -0.59,0.5 -0.56,0.93 0.03,0.44 -0.13,0.84 -0.46,1.13 -0.14,0.12 -0.28,0.18 -0.42,0.17 -0.02,0 -0.03,0 -0.05,0 v 0 c 0,0 0,0 0,0 l -0.29,0.29 c -0.13,0.13 -0.34,0.15 -0.49,0.04 -1.01,-0.74 -1.82,-1.01 -2.12,-0.71 l -1.94,1.94 c -0.43,0.43 0.35,1.92 1.75,3.32 1.4,1.4 2.88,2.18 3.32,1.75 l 1.94,-1.94 c 0.3,-0.3 0.03,-1.11 -0.71,-2.12 -0.11,-0.15 -0.09,-0.36 0.04,-0.49 l 0.29,-0.29 c 0,0 0,0 0,0 0,-0.02 0,-0.04 0,-0.06 -0.01,-0.14 0.05,-0.28 0.17,-0.42 0.29,-0.33 0.7,-0.49 1.13,-0.46 0.43,0.03 0.75,-0.16 0.93,-0.56 0.24,-0.55 -0.14,-1.35 -0.64,-1.86 z m -4.27,7.42 c -0.55,-0.31 -1.18,-0.8 -1.77,-1.39 -0.59,-0.59 -1.09,-1.22 -1.39,-1.77 -0.16,-0.28 -0.23,-0.47 -0.26,-0.6 0.13,0.03 0.32,0.11 0.6,0.26 0.55,0.31 1.18,0.8 1.77,1.39 0.59,0.59 1.08,1.22 1.39,1.77 0.16,0.28 0.23,0.47 0.26,0.6 -0.13,-0.03 -0.32,-0.11 -0.6,-0.26 z"
         id="path419" />
    </g>
    <text
       class="cls-24"
       transform="translate(383.33,89.52)"
       id="text427"><tspan
         x="0"
         y="0"
         id="tspan423">スタンプ</tspan><tspan
         x="0"
         y="7.02"
         id="tspan425">設置箇所</tspan></text>
  </g>
  <g
     id="_1F"
     data-name="1F"
     transform="matrix(1.1346552,0,0,1.1346552,-81.6044,-23.249085)">
    <g
       id="g440">
      <ellipse
         class="cls-23"
         cx="386.76001"
         cy="46.299999"
         rx="19.57"
         ry="19.620001"
         id="ellipse432" />
      <text
         class="cls-22"
         transform="translate(374.05,57.03)"
         id="text438"><tspan
           class="cls-30"
           x="0"
           y="0"
           id="tspan434">4</tspan><tspan
           class="cls-29"
           x="16.209999"
           y="0.56999999"
           id="tspan436">F</tspan></text>
    </g>
    <g
       id="g450">
      <ellipse
         class="cls-23"
         cx="105.14"
         cy="188.66"
         rx="19.57"
         ry="19.620001"
         id="ellipse442" />
      <text
         class="cls-22"
         transform="translate(92.42,199.39)"
         id="text448"><tspan
           class="cls-30"
           x="0"
           y="0"
           id="tspan444">5</tspan><tspan
           class="cls-29"
           x="16.209999"
           y="0.56999999"
           id="tspan446">F</tspan></text>
    </g>
  </g>
</svg>
