<?xml version="1.0" encoding="UTF-8"?>
<svg xmlns="http://www.w3.org/2000/svg" viewBox="0 0 575.55 736.62">
  <defs>
    <style>
      .cls-1, .cls-2, .cls-3, .cls-4, .cls-5, .cls-6, .cls-7, .cls-8, .cls-9, .cls-10, .cls-11, .cls-12, .cls-13, .cls-14, .cls-15 {
        stroke-miterlimit: 10;
      }

      .cls-1, .cls-2, .cls-3, .cls-4, .cls-5, .cls-6, .cls-7, .cls-8, .cls-9, .cls-10, .cls-11, .cls-12, .cls-13, .cls-15 {
        stroke: #231815;
      }

      .cls-1, .cls-2, .cls-10, .cls-13 {
        stroke-width: .25px;
      }

      .cls-1, .cls-3 {
        fill: #865498;
      }

      .cls-16 {
        letter-spacing: -.3em;
      }

      .cls-17, .cls-18, .cls-19, .cls-20, .cls-21, .cls-22, .cls-23, .cls-24, .cls-25, .cls-26, .cls-27, .cls-28, .cls-29 {
        font-family: HeiseiKakuGoStd-W7-90ms-RKSJ-H, 'Heisei Kaku Gothic Std';
      }

      .cls-17, .cls-19, .cls-30, .cls-31, .cls-32, .cls-33, .cls-25, .cls-11, .cls-34, .cls-27 {
        fill: #fff;
      }

      .cls-17, .cls-21 {
        font-size: 9px;
        letter-spacing: -.01em;
      }

      .cls-18, .cls-23 {
        font-size: 6px;
        letter-spacing: -.01em;
      }

      .cls-35, .cls-36 {
        letter-spacing: -.02em;
      }

      .cls-19 {
        font-size: 11.1px;
        letter-spacing: -.01em;
      }

      .cls-2 {
        fill: #53afdd;
      }

      .cls-30 {
        font-size: 8.85px;
      }

      .cls-30, .cls-37, .cls-38, .cls-32, .cls-33, .cls-36, .cls-34 {
        font-family: MyriadPro-Semibold, 'Myriad Pro';
        font-weight: 600;
      }

      .cls-20, .cls-21, .cls-23, .cls-39, .cls-40, .cls-26, .cls-29 {
        fill: #231815;
      }

      .cls-20, .cls-22 {
        font-size: 7.08px;
        letter-spacing: -.01em;
      }

      .cls-41, .cls-28 {
        fill: #515151;
      }

      .cls-4 {
        stroke-linecap: round;
        stroke-width: .5px;
      }

      .cls-4, .cls-9, .cls-14 {
        fill: none;
      }

      .cls-5, .cls-42 {
        fill: #4969aa;
      }

      .cls-22, .cls-6 {
        fill: #727171;
      }

      .cls-43, .cls-8 {
        fill: #da5789;
      }

      .cls-44, .cls-37 {
        letter-spacing: -.05em;
      }

      .cls-24 {
        font-size: 6.96px;
        letter-spacing: -.01em;
      }

      .cls-45 {
        font-size: 8.54px;
        letter-spacing: -.14em;
      }

      .cls-46 {
        letter-spacing: -.01em;
      }

      .cls-47 {
        font-size: 20.81px;
      }

      .cls-37, .cls-38, .cls-36 {
        font-size: 15.14px;
      }

      .cls-48 {
        font-size: 33.35px;
        letter-spacing: -.05em;
      }

      .cls-49 {
        fill: #0c945c;
      }

      .cls-40 {
        font-family: MOBO-Bold, 'MOBO Bold-90ms-RKSJ-H';
        font-size: 6.53px;
        font-weight: 700;
        letter-spacing: -.05em;
      }

      .cls-7 {
        fill: #040000;
      }

      .cls-32 {
        font-size: 7.25px;
      }

      .cls-50 {
        fill: #dbdbdb;
      }

      .cls-51 {
        letter-spacing: -.4em;
      }

      .cls-52 {
        fill: #9d1f24;
      }

      .cls-25 {
        font-size: 8.99px;
        letter-spacing: -.01em;
      }

      .cls-10, .cls-15 {
        fill: #eb9826;
      }

      .cls-53 {
        font-size: 7.76px;
        letter-spacing: -.01em;
      }

      .cls-34 {
        font-size: 8.84px;
      }

      .cls-12 {
        fill: #4bb359;
      }

      .cls-54 {
        fill: #424142;
        fill-rule: evenodd;
      }

      .cls-13 {
        fill: #2c64a7;
      }

      .cls-14 {
        stroke: #515151;
        stroke-width: .75px;
      }

      .cls-26 {
        font-size: 8.28px;
        letter-spacing: -.01em;
      }

      .cls-28 {
        font-size: 7.73px;
      }

      .cls-29 {
        font-size: 7.08px;
        letter-spacing: -.01em;
      }

      .cls-55 {
        letter-spacing: -.51em;
      }
    </style>
  </defs>
  <g id="_最背景_灰色_" data-name="最背景(灰色)">
    <rect class="cls-50" x="71.92" y="20.49" width="352.53" height="290.15"/>
  </g>
  <g id="_路の背景_白_" data-name="路の背景(白)">
    <rect class="cls-31" x="116.04" y="26.68" width="13.38" height="164.69"/>
    <path class="cls-31" d="M363.53,163.12v-10.36h-8.3V53.97h.29v-27.46H124.51v153.52h-8.8v35.8h-15.05v21.54h-23.91v46.91h210.09v-.05h.17v24.3h18.51v-24.3h.26v-78.44h42.17v-26.54h3.59v.78h11.34v2.12h55.77v-19.04h-55.13ZM280.3,215.82h-8.75v-10.04h8.75v10.04ZM286.95,163.12h-15.41v-47.15h15.41v47.15ZM339.45,95.05h-108.01v84.2h10.9v36.57h-92.19v-35.8h-9.86v-15.75h-8.38v-98.53h8.38v-11.78h199.16v41.08Z"/>
  </g>
  <g id="_枠本体" data-name="枠本体">
    <rect class="cls-15" x="87.06" y="79.33" width="28.98" height="26.34"/>
    <rect class="cls-3" x="131.65" y="42.42" width="31.42" height="26.34"/>
    <rect class="cls-3" x="163.07" y="42.42" width="31.42" height="26.34"/>
    <rect class="cls-3" x="194.49" y="42.42" width="31.42" height="26.34"/>
    <polyline class="cls-6" points="202.87 216.08 202.87 150.14 271.29 150.14 271.29 216.08 217.98 216.08"/>
    <polyline class="cls-6" points="271.28 115.68 271.29 150.14 202.86 150.14 202.86 95.23 271.29 95.23"/>
    <rect class="cls-3" x="225.91" y="42.42" width="31.42" height="26.34"/>
    <rect class="cls-3" x="257.33" y="42.42" width="31.42" height="26.34"/>
    <rect class="cls-11" x="288.75" y="52.88" width="24.56" height="15.75"/>
    <rect class="cls-15" x="100.45" y="258.17" width="23.66" height="26.25"/>
    <rect class="cls-15" x="76.75" y="258.17" width="23.66" height="26.25"/>
    <rect class="cls-7" x="256.77" y="245.7" width="29.82" height="13.12"/>
    <polyline class="cls-3" points="370.92 163.3 418.4 163.3 418.4 205.97 370.92 205.97"/>
    <rect class="cls-3" x="313.25" y="68.64" width="26.52" height="26.59"/>
    <rect class="cls-3" x="305.53" y="179.43" width="50.09" height="26.54"/>
    <rect class="cls-3" x="286.69" y="116.15" width="53.08" height="47.15"/>
    <polyline class="cls-6" points="116.04 79.33 87.06 79.33 87.06 59.4 116.04 59.4"/>
    <polyline class="cls-6" points="339.77 68.64 313.3 68.64 313.3 52.88 339.77 52.88"/>
    <polyline class="cls-6" points="370.92 179.43 370.92 205.97 355.62 205.97 355.62 179.43"/>
    <polyline class="cls-6" points="150.35 227.07 150.35 200.18 176.51 200.18 176.51 227.07"/>
    <polyline class="cls-6" points="339.77 105.65 310.54 105.65 310.54 116.15 339.77 116.15"/>
    <rect class="cls-15" x="87.06" y="105.71" width="28.98" height="26.34"/>
    <rect class="cls-15" x="87.06" y="132.08" width="28.98" height="26.34"/>
    <rect class="cls-15" x="87.06" y="158.46" width="28.98" height="26.34"/>
    <rect class="cls-15" x="87.06" y="184.83" width="28.98" height="26.34"/>
    <rect class="cls-15" x="87.06" y="211.21" width="28.98" height="26.34"/>
    <rect class="cls-15" x="124.12" y="258.17" width="28.98" height="26.25"/>
    <rect class="cls-15" x="153.06" y="258.17" width="28.98" height="26.25"/>
    <rect class="cls-15" x="182.04" y="258.17" width="20.83" height="26.25"/>
    <rect class="cls-15" x="218.47" y="245.7" width="38.3" height="26.25"/>
    <rect class="cls-15" x="305.53" y="205.97" width="28.95" height="52.85"/>
    <rect class="cls-15" x="218.47" y="216.08" width="68.12" height="29.61"/>
    <rect class="cls-42" x="131.68" y="158.42" width="25.09" height="31.34"/>
    <polyline class="cls-9" points="131.68 42.42 131.68 189.67 131.68 158.54 156.77 158.7 156.77 189.88 150.35 189.94 150.35 227.07"/>
    <polyline class="cls-12" points="137.77 200.18 137.77 213.58 150.35 213.58 150.35 200.18"/>
    <polyline class="cls-6" points="150.35 227.07 150.35 213.68 137.77 213.68 137.77 227.07"/>
    <polyline class="cls-9" points="339.77 95.23 202.9 95.23 202.81 227.07"/>
    <polyline class="cls-5" points="355.24 42.3 355.24 26.5 313.3 26.5 313.3 42.3"/>
    <polyline class="cls-8" points="189.66 227.07 189.66 200.18 176.51 200.18 176.51 227.07"/>
    <polyline class="cls-5" points="202.81 227.07 202.81 200.18 189.66 200.18 189.66 227.07"/>
    <g id="_装飾のボード" data-name="装飾のボード">
      <g>
        <polyline class="cls-4" points="112.32 271.86 112.21 291.23 122.1 291.23"/>
        <path class="cls-39" d="M111.02,271.92c0-.72.59-1.29,1.3-1.29s1.29.59,1.29,1.3c0,.72-.59,1.29-1.3,1.29-.72,0-1.29-.59-1.29-1.3Z"/>
      </g>
    </g>
    <g id="_装飾のボード-2" data-name="装飾のボード">
      <g>
        <polyline class="cls-4" points="88.59 271.86 88.69 302.14 122.1 302.42"/>
        <path class="cls-39" d="M87.29,271.93c0-.72.58-1.3,1.29-1.3s1.3.58,1.3,1.29c0,.72-.58,1.3-1.29,1.3-.72,0-1.3-.58-1.3-1.29Z"/>
      </g>
    </g>
    <line class="cls-9" x1="87.06" y1="237.54" x2="76.75" y2="237.54"/>
  </g>
  <g id="_文字_ピクトグラム" data-name="文字・ピクトグラム">
    <g id="_女子" data-name="女子">
      <path d="M138.95,666.97c-3.75,0-6.8-3.05-6.8-6.8s3.05-6.8,6.8-6.8,6.8,3.05,6.8,6.8-3.05,6.8-6.8,6.8Z"/>
      <path d="M153.35,700.57l-7-15.27c-.02-.26-.05-.51-.09-.77l2.85-11.59c.13-1.5-.99-2.72-2.49-2.72h-15.33c-1.5,0-2.62,1.22-2.49,2.72l2.85,11.59c-.04.25-.07.51-.09.77l-7,15.27c-.19,2.12,1.4,3.86,3.53,3.86h6.23l1.61,26.18c.05,1.42,1.26,2.58,2.68,2.58h.68c1.42,0,2.63-1.16,2.68-2.58l1.61-26.18h6.23c2.13,0,3.72-1.73,3.53-3.86Z"/>
    </g>
    <g id="_女子-2" data-name="女子">
      <path class="cls-31" d="M183.17,208.94c-.73,0-1.32-.59-1.32-1.32s.59-1.32,1.32-1.32,1.32.59,1.32,1.32-.59,1.32-1.32,1.32Z"/>
      <path class="cls-31" d="M185.96,215.45l-1.36-2.96s-.01-.1-.02-.15l.55-2.25c.03-.29-.19-.53-.48-.53h-2.98c-.29,0-.51.24-.48.53l.55,2.25s-.01.1-.02.15l-1.36,2.96c-.04.41.27.75.69.75h1.21l.31,5.07c.01.28.24.5.52.5h.13c.28,0,.51-.23.52-.5l.31-5.07h1.21c.41,0,.72-.34.69-.75Z"/>
    </g>
    <g id="EV">
      <path d="M250.06,667.95v68.68h67.62v-68.68h-67.62ZM311.18,730.12h-54.61v-55.67h54.61v55.67Z"/>
      <path d="M289.51,690.28c0,3.11-2.52,5.64-5.64,5.64s-5.64-2.52-5.64-5.64,2.53-5.64,5.64-5.64,5.64,2.52,5.64,5.64Z"/>
      <path d="M288.34,724.9c-.09,2.07-1.86,3.76-3.92,3.76h-1.1c-2.07,0-3.83-1.69-3.92-3.76l-1-22.94c-.09-2.07,1.53-3.76,3.6-3.76h3.76c2.07,0,3.69,1.69,3.6,3.76l-1,22.94Z"/>
      <path d="M272.55,690.28c0,3.11-2.52,5.64-5.64,5.64s-5.64-2.52-5.64-5.64,2.52-5.64,5.64-5.64,5.64,2.52,5.64,5.64Z"/>
      <path d="M271.38,724.9c-.09,2.07-1.86,3.76-3.92,3.76h-1.1c-2.07,0-3.83-1.69-3.92-3.76l-1-22.94c-.09-2.07,1.53-3.76,3.6-3.76h3.76c2.07,0,3.69,1.69,3.6,3.76l-1,22.94Z"/>
      <path d="M306.47,690.28c0,3.11-2.52,5.64-5.64,5.64s-5.64-2.52-5.64-5.64,2.52-5.64,5.64-5.64,5.64,2.52,5.64,5.64Z"/>
      <path d="M305.3,724.9c-.09,2.07-1.86,3.76-3.92,3.76h-1.1c-2.07,0-3.83-1.69-3.92-3.76l-1-22.94c-.09-2.07,1.53-3.76,3.6-3.76h3.76c2.07,0,3.69,1.69,3.6,3.76l-1,22.94Z"/>
      <g>
        <polygon points="265.46 662.13 265.46 645.62 260.72 650.36 255.79 645.43 268.92 632.31 269.46 632.85 282.07 645.46 277.14 650.38 272.43 645.67 272.43 662.13 265.46 662.13"/>
        <polygon points="298.28 661.89 285.68 649.29 290.61 644.36 295.32 649.07 295.32 632.61 302.28 632.61 302.28 649.13 307.02 644.39 311.95 649.32 298.82 662.44 298.28 661.89"/>
      </g>
    </g>
    <g id="_男子" data-name="男子">
      <circle cx="95" cy="660.17" r="6.8"/>
      <path d="M103.17,670.23h-16.34c-1.66,0-2.99,1.36-2.96,3.02l.76,27.66c.02,1.02.98,1.62,1.88,1.84l2.76.89,1.22,26.85c.07,1.5,1.66,2.69,3.56,2.69h1.9c1.9,0,3.49-1.19,3.56-2.69l1.22-26.85,2.76-.89c.9-.23,1.86-.82,1.88-1.84l.76-27.66c.03-1.66-1.3-3.02-2.96-3.02Z"/>
    </g>
    <g id="_階段" data-name="階段">
      <polygon points="166.37 718.98 166.37 704.86 181.41 704.86 181.41 695.66 196.46 695.66 196.46 686.5 211.51 686.5 211.51 677.36 227.76 677.36 227.76 682.28 216.43 682.28 216.43 691.42 201.38 691.42 201.38 700.58 186.34 700.58 186.34 709.78 171.29 709.78 171.29 718.98 166.37 718.98"/>
      <g>
        <polygon points="187.78 664.19 176.51 675.46 176.51 670.31 171.23 670.31 171.23 684.47 185.39 684.47 185.39 679.19 180.24 679.19 191.51 667.92 187.78 664.19"/>
        <polygon points="208.74 703.96 208.74 709.24 213.88 709.24 202.61 720.5 206.35 724.24 217.62 712.97 217.62 718.11 222.89 718.11 222.89 703.96 208.74 703.96"/>
      </g>
    </g>
    <text class="cls-39" transform="translate(94.65 88.68)"><tspan class="cls-24"><tspan x="0" y="0">高校</tspan></tspan><tspan class="cls-37"><tspan x="-1.58" y="13.51">1A</tspan></tspan></text>
    <text class="cls-31" transform="translate(140.66 51.81)"><tspan class="cls-24"><tspan x="0" y="0">中学</tspan></tspan><tspan class="cls-38"><tspan class="cls-35" x="-.85" y="13.51">3</tspan><tspan class="cls-44" x="6.89" y="13.51">E</tspan></tspan></text>
    <text class="cls-31" transform="translate(171.88 51.81)"><tspan class="cls-24"><tspan x="0" y="0">中学</tspan></tspan><tspan class="cls-36"><tspan x="-2.13" y="13.51">3D</tspan></tspan></text>
    <text class="cls-31" transform="translate(203.3 51.81)"><tspan class="cls-24"><tspan x="0" y="0">中学</tspan></tspan><tspan class="cls-36"><tspan x="-1.41" y="13.51">3C</tspan></tspan></text>
    <text class="cls-31" transform="translate(234.72 51.81)"><tspan class="cls-24"><tspan x="0" y="0">中学</tspan></tspan><tspan class="cls-36"><tspan x="-1.32" y="13.51">3B</tspan></tspan></text>
    <text class="cls-31" transform="translate(266.75 51.81)"><tspan class="cls-24"><tspan x="0" y="0">中学</tspan></tspan><tspan class="cls-36"><tspan x="-1.77" y="13.51">3A</tspan></tspan></text>
    <text class="cls-39" transform="translate(94.65 115.49)"><tspan class="cls-24"><tspan x="0" y="0">高校</tspan></tspan><tspan class="cls-37"><tspan x="-1.13" y="13.51">1B</tspan></tspan></text>
    <text class="cls-39" transform="translate(94.65 141.38)"><tspan class="cls-24"><tspan x="0" y="0">高校</tspan></tspan><tspan class="cls-37"><tspan x="-1.22" y="13.51">1C</tspan></tspan></text>
    <text class="cls-39" transform="translate(94.65 167.74)"><tspan class="cls-24"><tspan x="0" y="0">高校</tspan></tspan><tspan class="cls-37"><tspan x="-1.94" y="13.51">1D</tspan></tspan></text>
    <text class="cls-39" transform="translate(90.16 199.11)"><tspan class="cls-37"><tspan x="0" y="0">201</tspan></tspan><tspan class="cls-18"><tspan x="-.46" y="6.6">補助教室</tspan></tspan></text>
    <text class="cls-39" transform="translate(90.16 225.76)"><tspan class="cls-37"><tspan x="0" y="0">202</tspan></tspan><tspan class="cls-18"><tspan x="-.46" y="6.6">補助教室</tspan></tspan></text>
    <text class="cls-39" transform="translate(127.22 272.68)"><tspan class="cls-37"><tspan x="0" y="0">203</tspan></tspan><tspan class="cls-18"><tspan x="-.46" y="6.6">補助教室</tspan></tspan></text>
    <text class="cls-23" transform="translate(123.22 293.51)"><tspan x="0" y="0">英語コミュニケーションルーム</tspan></text>
    <text class="cls-29" transform="translate(261.53 305.81)"><tspan x="0" y="0">大回廊</tspan></text>
    <text class="cls-23" transform="translate(123.4 304.69)"><tspan x="0" y="0">英語リスニングルーム</tspan></text>
    <text class="cls-39" transform="translate(156.16 272.68)"><tspan class="cls-37"><tspan x="0" y="0">204</tspan></tspan><tspan class="cls-18"><tspan x="-.46" y="6.6">補助教室</tspan></tspan></text>
    <text class="cls-23" transform="translate(186.51 270.63)"><tspan x="0" y="0">高校</tspan><tspan x="-2.96" y="6.96">会議室</tspan></text>
    <text class="cls-39" transform="translate(226.74 260.21)"><tspan class="cls-37"><tspan x="0" y="0">205</tspan></tspan><tspan class="cls-18"><tspan x="-.46" y="6.6">補助教室</tspan></tspan></text>
    <text class="cls-26" transform="translate(223.95 234.14)"><tspan x="0" y="0">スタディホール</tspan></text>
    <text class="cls-25" transform="translate(228.17 182.54)"><tspan x="0" y="0">高校</tspan><tspan x="-4.44" y="10">職員室</tspan></text>
    <text class="cls-25" transform="translate(228.17 122.69)"><tspan x="0" y="0">中学</tspan><tspan x="-4.44" y="10">職員室</tspan></text>
    <text class="cls-19" transform="translate(291.38 143.43)"><tspan x="0" y="0">多目的室</tspan></text>
    <text class="cls-19" transform="translate(378.2 188.81)"><tspan x="0" y="0">技術室</tspan></text>
    <text class="cls-17" transform="translate(308.37 196.41)"><tspan x="0" y="0">中学面談室</tspan></text>
    <text class="cls-21" transform="translate(311.09 232.44)"><tspan x="0" y="0">高校</tspan><tspan x="-4.44" y="10">面談室</tspan></text>
    <text class="cls-28" transform="translate(309.66 285.31)"><tspan class="cls-46" x="0" y="0">至 　 講</tspan><tspan class="cls-16" x="27.15" y="0">堂・</tspan><tspan class="cls-46" x="37.97" y="0" xml:space="preserve">食堂　  明照殿　</tspan></text>
    <text class="cls-28" transform="translate(309.66 300.79)"><tspan class="cls-46" x="0" y="0">　 　 百志</tspan><tspan class="cls-51" x="34.78" y="0">館</tspan><tspan class="cls-46" x="39.41" y="0">（視聴覚室</tspan><tspan class="cls-55" x="77.55" y="0">）</tspan><tspan class="cls-46" x="81.31" y="0">　</tspan></text>
    <text class="cls-22" transform="translate(77.63 250.79)"><tspan x="0" y="0">至 体育館</tspan></text>
    <g id="_階段-2" data-name="階段">
      <polygon class="cls-31" points="321.02 65.76 321.02 62.91 323.72 62.91 323.72 61.05 326.43 61.05 326.43 59.2 329.14 59.2 329.14 57.36 332.06 57.36 332.06 58.35 330.02 58.35 330.02 60.2 327.31 60.2 327.31 62.05 324.61 62.05 324.61 63.9 321.9 63.9 321.9 65.76 321.02 65.76"/>
      <g>
        <polygon class="cls-31" points="324.87 54.7 322.84 56.98 322.84 55.94 321.89 55.94 321.89 58.79 324.44 58.79 324.44 57.73 323.51 57.73 325.54 55.45 324.87 54.7"/>
        <polygon class="cls-31" points="328.64 62.73 328.64 63.79 329.56 63.79 327.54 66.07 328.21 66.82 330.23 64.55 330.23 65.58 331.18 65.58 331.18 62.73 328.64 62.73"/>
      </g>
    </g>
    <g id="_階段-3" data-name="階段">
      <polygon class="cls-31" points="95.4 74.93 95.4 71.76 98.41 71.76 98.41 69.69 101.43 69.69 101.43 67.63 104.44 67.63 104.44 65.58 107.7 65.58 107.7 66.69 105.43 66.69 105.43 68.74 102.41 68.74 102.41 70.8 99.4 70.8 99.4 72.87 96.38 72.87 96.38 74.93 95.4 74.93"/>
      <g>
        <polygon class="cls-31" points="99.69 62.62 97.43 65.15 97.43 64 96.37 64 96.37 67.18 99.21 67.18 99.21 65.99 98.18 65.99 100.44 63.46 99.69 62.62"/>
        <polygon class="cls-31" points="103.89 71.56 103.89 72.74 104.92 72.74 102.66 75.28 103.41 76.12 105.67 73.58 105.67 74.74 106.72 74.74 106.72 71.56 103.89 71.56"/>
      </g>
    </g>
    <g id="_階段-4" data-name="階段">
      <polygon class="cls-31" points="358.26 197.27 358.26 194.79 360.89 194.79 360.89 193.17 363.53 193.17 363.53 191.56 366.17 191.56 366.17 189.95 369.02 189.95 369.02 190.82 367.04 190.82 367.04 192.43 364.4 192.43 364.4 194.04 361.76 194.04 361.76 195.65 359.12 195.65 359.12 197.27 358.26 197.27"/>
      <g>
        <polygon class="cls-31" points="362.01 187.64 360.03 189.62 360.03 188.71 359.11 188.71 359.11 191.2 361.59 191.2 361.59 190.27 360.69 190.27 362.67 188.29 362.01 187.64"/>
        <polygon class="cls-31" points="365.69 194.63 365.69 195.56 366.59 195.56 364.61 197.54 365.27 198.2 367.24 196.21 367.24 197.12 368.17 197.12 368.17 194.63 365.69 194.63"/>
      </g>
    </g>
    <g id="_階段-5" data-name="階段">
      <polygon class="cls-31" points="155.79 219.77 155.79 216.24 159.54 216.24 159.54 213.94 163.28 213.94 163.28 211.65 167.03 211.65 167.03 209.36 171.07 209.36 171.07 210.6 168.25 210.6 168.25 212.88 164.51 212.88 164.51 215.17 160.76 215.17 160.76 217.47 157.02 217.47 157.02 219.77 155.79 219.77"/>
      <g>
        <polygon class="cls-31" points="161.12 206.07 158.32 208.89 158.32 207.6 157 207.6 157 211.14 160.52 211.14 160.52 209.82 159.24 209.82 162.05 207 161.12 206.07"/>
        <polygon class="cls-31" points="166.34 216.02 166.34 217.34 167.62 217.34 164.81 220.15 165.74 221.09 168.54 218.27 168.54 219.56 169.86 219.56 169.86 216.02 166.34 216.02"/>
      </g>
    </g>
    <g>
      <polyline class="cls-6" points="286.59 179.43 286.59 216.08 271.29 216.08 271.29 179.43"/>
      <g>
        <g id="_階段-6" data-name="階段">
          <polygon class="cls-31" points="274.79 196.1 274.79 194.04 276.97 194.04 276.97 192.71 279.15 192.71 279.15 191.37 281.33 191.37 281.33 190.04 283.68 190.04 283.68 190.76 282.04 190.76 282.04 192.09 279.86 192.09 279.86 193.42 277.68 193.42 277.68 194.76 275.5 194.76 275.5 196.1 274.79 196.1"/>
          <polygon class="cls-31" points="277.89 188.13 276.26 189.77 276.26 189.02 275.49 189.02 275.49 191.08 277.54 191.08 277.54 190.31 276.8 190.31 278.43 188.67 277.89 188.13"/>
        </g>
        <text class="cls-30" transform="translate(274.33 206.73)"><tspan x="0" y="0">1F</tspan></text>
      </g>
    </g>
    <g>
      <polyline class="cls-6" points="287.02 271.94 256.77 271.94 256.77 258.82 287.02 258.82"/>
      <g>
        <g id="_階段-7" data-name="階段">
          <polygon class="cls-31" points="273.1 269.36 273.1 267.31 275.29 267.31 275.29 265.97 277.48 265.97 277.48 264.64 279.67 264.64 279.67 263.31 282.04 263.31 282.04 264.03 280.39 264.03 280.39 265.36 278.2 265.36 278.2 266.69 276 266.69 276 268.02 273.81 268.02 273.81 269.36 273.1 269.36"/>
          <polygon class="cls-31" points="276.21 261.4 274.57 263.04 274.57 262.29 273.81 262.29 273.81 264.35 275.87 264.35 275.87 263.58 275.12 263.58 276.76 261.94 276.21 261.4"/>
        </g>
        <text class="cls-34" transform="translate(261.31 268.39)"><tspan x="0" y="0">1F</tspan></text>
      </g>
    </g>
    <g>
      <g id="_階段-8" data-name="階段">
        <polygon class="cls-31" points="326.38 114.18 326.38 112.31 328.37 112.31 328.37 111.09 330.35 111.09 330.35 109.88 332.34 109.88 332.34 108.67 334.49 108.67 334.49 109.32 332.99 109.32 332.99 110.53 331 110.53 331 111.74 329.02 111.74 329.02 112.96 327.03 112.96 327.03 114.18 326.38 114.18"/>
        <polygon class="cls-31" points="329.21 106.92 327.72 108.42 327.72 107.73 327.02 107.73 327.02 109.61 328.89 109.61 328.89 108.91 328.21 108.91 329.7 107.42 329.21 106.92"/>
      </g>
      <text class="cls-32" transform="translate(316.33 113.37)"><tspan x="0" y="0">1F</tspan></text>
    </g>
    <g id="_男子-2" data-name="男子">
      <circle class="cls-31" cx="334.48" cy="29.37" r="1.03"/>
      <path class="cls-31" d="M335.72,30.89h-2.48c-.25,0-.45.21-.45.46l.11,4.21c0,.16.15.25.29.28l.42.14.19,4.08c.01.23.25.41.54.41h.29c.29,0,.53-.18.54-.41l.19-4.08.42-.14c.14-.03.28-.12.29-.28l.11-4.21c0-.25-.2-.46-.45-.46Z"/>
    </g>
    <g id="EV-2" data-name="EV">
      <path class="cls-31" d="M140.47,218.84v6.93h7.31v-6.93h-7.31ZM147.08,225.11h-5.9v-5.62h5.9v5.62Z"/>
      <path class="cls-31" d="M144.74,221.09c0,.31-.27.57-.61.57s-.61-.25-.61-.57.27-.57.61-.57.61.25.61.57Z"/>
      <path class="cls-31" d="M144.61,224.58c0,.21-.2.38-.42.38h-.12c-.22,0-.41-.17-.42-.38l-.11-2.31c0-.21.17-.38.39-.38h.41c.22,0,.4.17.39.38l-.11,2.31Z"/>
      <path class="cls-31" d="M142.9,221.09c0,.31-.27.57-.61.57s-.61-.25-.61-.57.27-.57.61-.57.61.25.61.57Z"/>
      <path class="cls-31" d="M142.78,224.58c0,.21-.2.38-.42.38h-.12c-.22,0-.41-.17-.42-.38l-.11-2.31c0-.21.17-.38.39-.38h.41c.22,0,.4.17.39.38l-.11,2.31Z"/>
      <path class="cls-31" d="M146.57,221.09c0,.31-.27.57-.61.57s-.61-.25-.61-.57.27-.57.61-.57.61.25.61.57Z"/>
      <path class="cls-31" d="M146.44,224.58c0,.21-.2.38-.42.38h-.12c-.22,0-.41-.17-.42-.38l-.11-2.31c0-.21.17-.38.39-.38h.41c.22,0,.4.17.39.38l-.11,2.31Z"/>
      <g>
        <polygon class="cls-31" points="142.14 218.25 142.14 216.58 141.62 217.06 141.09 216.56 142.51 215.24 142.57 215.29 143.93 216.57 143.4 217.06 142.89 216.59 142.89 218.25 142.14 218.25"/>
        <polygon class="cls-31" points="145.68 218.22 144.32 216.95 144.85 216.46 145.36 216.93 145.36 215.27 146.12 215.27 146.12 216.94 146.63 216.46 147.16 216.96 145.74 218.28 145.68 218.22"/>
      </g>
    </g>
    <g>
      <polyline class="cls-6" points="354.47 163.3 370.86 163.3 370.86 147.82 354.47 147.82"/>
      <g id="EV-3" data-name="EV">
        <path class="cls-31" d="M358.8,153.86v7.97h8.18v-7.97h-8.18ZM366.19,161.07h-6.6v-6.46h6.6v6.46Z"/>
        <path class="cls-31" d="M363.57,156.45c0,.36-.31.65-.68.65s-.68-.29-.68-.65.31-.65.68-.65.68.29.68.65Z"/>
        <path class="cls-31" d="M363.43,160.47c-.01.24-.22.44-.47.44h-.13c-.25,0-.46-.2-.47-.44l-.12-2.66c-.01-.24.18-.44.43-.44h.45c.25,0,.45.2.43.44l-.12,2.66Z"/>
        <path class="cls-31" d="M361.52,156.45c0,.36-.31.65-.68.65s-.68-.29-.68-.65.31-.65.68-.65.68.29.68.65Z"/>
        <path class="cls-31" d="M361.37,160.47c-.01.24-.22.44-.47.44h-.13c-.25,0-.46-.2-.47-.44l-.12-2.66c-.01-.24.18-.44.43-.44h.45c.25,0,.45.2.43.44l-.12,2.66Z"/>
        <path class="cls-31" d="M365.62,156.45c0,.36-.31.65-.68.65s-.68-.29-.68-.65.31-.65.68-.65.68.29.68.65Z"/>
        <path class="cls-31" d="M365.48,160.47c-.01.24-.22.44-.47.44h-.13c-.25,0-.46-.2-.47-.44l-.12-2.66c-.01-.24.18-.44.43-.44h.45c.25,0,.45.2.43.44l-.12,2.66Z"/>
        <g>
          <polygon class="cls-31" points="360.66 153.18 360.66 151.26 360.08 151.81 359.49 151.24 361.08 149.72 361.14 149.78 362.67 151.25 362.07 151.82 361.5 151.27 361.5 153.18 360.66 153.18"/>
          <polygon class="cls-31" points="364.63 153.15 363.1 151.69 363.7 151.12 364.27 151.66 364.27 149.75 365.11 149.75 365.11 151.67 365.68 151.12 366.28 151.69 364.69 153.22 364.63 153.15"/>
        </g>
      </g>
    </g>
    <g>
      <g>
        <path d="M59.98,677.87c-2.71,0-5.02-.95-6.68-2.74-1.67-1.8-2.55-4.33-2.56-7.32,0-2.99.9-5.53,2.56-7.33,1.66-1.79,3.97-2.74,6.68-2.74,3.24,0,5.93,1.45,7.21,3.89l.18.35-3.86,1.94-.2-.21c-.76-.82-1.92-1.35-2.96-1.35-2.63,0-4.33,2.14-4.34,5.46.01,3.31,1.72,5.46,4.34,5.46,1.04,0,2.2-.53,2.96-1.35l.2-.21,3.86,1.94-.18.35c-1.28,2.43-3.97,3.89-7.21,3.89Z"/>
        <polygon points="43.25 657.72 40.09 669.4 36.93 657.72 32.52 657.72 29.36 669.4 26.2 657.72 21.61 657.72 27.06 677.88 31.66 677.88 34.73 666.55 37.79 677.88 42.39 677.88 47.85 657.72 43.25 657.72"/>
      </g>
      <g>
        <path d="M51.44,723.76c-2.29,3.57-6.29,5.94-10.84,5.94-7.1,0-12.87-5.77-12.87-12.87,0-5.39,3.34-10.02,8.05-11.93v-4.68c-7.2,2.09-12.48,8.75-12.48,16.62,0,9.54,7.76,17.3,17.3,17.3,6.56,0,12.28-3.67,15.21-9.06l-4.37-1.31Z"/>
        <path d="M47.23,690.89c0,2.55-2.06,4.61-4.61,4.61s-4.61-2.06-4.61-4.61,2.06-4.61,4.61-4.61,4.61,2.06,4.61,4.61Z"/>
        <path d="M65.08,722.73l-5.98-8.12c-.59-.8-1.52-1.27-2.51-1.27h-9.9v-12.73c0-2.11-1.72-3.83-3.83-3.83h-.48c-2.11,0-3.83,1.72-3.83,3.83v15.12c0,1.05.43,2.01,1.12,2.7.57.69,1.44,1.13,2.4,1.13h12.94l5.04,6.85c.61.83,1.55,1.27,2.51,1.27.64,0,1.29-.2,1.84-.61,1.38-1.02,1.68-2.97.66-4.35Z"/>
      </g>
    </g>
    <g>
      <g>
        <path class="cls-31" d="M146.28,204.52c-.4,0-.75-.14-.99-.41-.25-.27-.38-.65-.38-1.09,0-.45.13-.82.38-1.09.25-.27.59-.41.99-.41.48,0,.88.22,1.07.58l.03.05-.57.29-.03-.03c-.11-.12-.29-.2-.44-.2-.39,0-.65.32-.65.81,0,.49.26.81.65.81.15,0,.33-.08.44-.2l.03-.03.57.29-.03.05c-.19.36-.59.58-1.07.58Z"/>
        <polygon class="cls-31" points="143.79 201.51 143.32 203.26 142.85 201.51 142.19 201.51 141.72 203.26 141.25 201.51 140.56 201.51 141.38 204.52 142.06 204.52 142.52 202.83 142.97 204.52 143.66 204.52 144.47 201.51 143.79 201.51"/>
      </g>
      <g>
        <path class="cls-31" d="M145.44,210.7c-.34.53-.94.89-1.61.89-1.06,0-1.92-.86-1.92-1.92,0-.8.5-1.5,1.2-1.78v-.7c-1.07.31-1.86,1.31-1.86,2.48,0,1.42,1.16,2.58,2.58,2.58.98,0,1.83-.55,2.27-1.35l-.65-.2Z"/>
        <path class="cls-31" d="M144.81,205.8c0,.38-.31.69-.69.69s-.69-.31-.69-.69.31-.69.69-.69.69.31.69.69Z"/>
        <path class="cls-31" d="M147.47,210.55l-.89-1.21c-.09-.12-.23-.19-.37-.19h-1.47v-1.9c0-.31-.26-.57-.57-.57h-.07c-.31,0-.57.26-.57.57v2.26c0,.16.06.3.17.4.09.1.21.17.36.17h1.93l.75,1.02c.09.12.23.19.37.19.1,0,.19-.03.27-.09.21-.15.25-.44.1-.65Z"/>
      </g>
    </g>
    <polyline class="cls-9" points="116.04 59.78 116.04 26.69 355.26 26.47 354.97 147.85 370.93 147.79 370.91 163.3 418.4 163.3"/>
    <g id="_男子-3" data-name="男子">
      <circle class="cls-31" cx="196.24" cy="207.62" r="1.31"/>
      <path class="cls-31" d="M197.82,209.57h-3.16c-.32,0-.58.26-.57.59l.15,5.36c0,.2.19.31.36.36l.53.17.24,5.21c.01.29.32.52.69.52h.37c.37,0,.67-.23.69-.52l.24-5.21.53-.17c.17-.04.36-.16.36-.36l.15-5.36c0-.32-.25-.59-.57-.59Z"/>
    </g>
    <g id="_女子-3" data-name="女子">
      <path class="cls-43" d="M404.1,292.5c-.75,0-1.37-.61-1.37-1.37s.61-1.37,1.37-1.37,1.37.61,1.37,1.37-.61,1.37-1.37,1.37Z"/>
      <path class="cls-43" d="M407,299.25l-1.41-3.07c0-.05-.01-.1-.02-.15l.57-2.33c.03-.3-.2-.55-.5-.55h-3.09c-.3,0-.53.25-.5.55l.57,2.33c0,.05-.01.1-.02.15l-1.41,3.07c-.04.43.28.78.71.78h1.25l.33,5.26c.01.29.25.52.54.52h.14c.29,0,.53-.23.54-.52l.33-5.26h1.25c.43,0,.75-.35.71-.78Z"/>
    </g>
    <g id="_男子-4" data-name="男子">
      <circle class="cls-42" cx="397.51" cy="291.13" r="1.36"/>
      <path class="cls-42" d="M399.15,293.15h-3.28c-.33,0-.6.27-.59.61l.15,5.56c0,.21.2.32.38.37l.55.18.25,5.4c.01.3.33.54.71.54h.38c.38,0,.7-.24.71-.54l.25-5.4.55-.18c.18-.05.37-.16.38-.37l.15-5.56c0-.33-.26-.61-.59-.61Z"/>
    </g>
    <g id="_男子-5" data-name="男子">
      <ellipse class="cls-31" cx="144.47" cy="165.86" rx="1.68" ry="1.69"/>
      <path class="cls-31" d="M146.5,168.36h-4.05c-.41,0-.74.34-.73.75l.19,6.87c0,.25.24.4.47.46l.69.22.3,6.67c.02.37.41.67.88.67h.47c.47,0,.86-.3.88-.67l.3-6.67.69-.22c.22-.06.46-.2.47-.46l.19-6.87c0-.41-.32-.75-.73-.75Z"/>
    </g>
    <g id="_交通機関案内" data-name="交通機関案内">
      <polygon class="cls-54" points="390.49 705.99 373.15 705.96 381.31 714.11 376.14 714.1 365.96 703.92 366.07 703.92 366.08 703.91 365.96 703.91 376.16 693.8 381.36 693.82 373.22 701.87 390.5 701.91 390.49 705.99 390.49 705.99"/>
    </g>
    <line class="cls-9" x1="339.77" y1="116.15" x2="271.29" y2="116.15"/>
    <line class="cls-9" x1="339.77" y1="163.3" x2="271.29" y2="163.3"/>
    <line class="cls-9" x1="182.04" y1="284.41" x2="287.03" y2="284.41"/>
    <line class="cls-9" x1="286.85" y1="284.23" x2="286.85" y2="308.53"/>
    <line class="cls-9" x1="305.53" y1="258.82" x2="305.53" y2="308.53"/>
    <text class="cls-27" transform="translate(317.93 79.79)"><tspan class="cls-45" x="0" y="0">２</tspan><tspan class="cls-53" x="7.34" y="-.29">階 </tspan><tspan class="cls-53"><tspan x="-2.92" y="10.19">学習室</tspan></tspan></text>
    <rect class="cls-49" x="321.5" y="278.8" width="7.18" height="7.16" transform="translate(650.18 564.75) rotate(180)"/>
    <rect class="cls-2" x="321.5" y="294.21" width="7.18" height="7.16" transform="translate(650.18 595.57) rotate(180)"/>
    <rect class="cls-13" x="367.13" y="278.8" width="7.18" height="7.16" transform="translate(741.45 564.75) rotate(180)"/>
    <g>
      <text class="cls-20" transform="translate(376.84 91.33)"><tspan x="0" y="0">中学校舎</tspan></text>
      <rect class="cls-1" x="369.02" y="85.35" width="6.57" height="6.57"/>
    </g>
    <g>
      <text class="cls-20" transform="translate(376.84 80.87)"><tspan x="0" y="0">高校校舎</tspan></text>
      <rect class="cls-10" x="369.02" y="74.9" width="6.57" height="6.57"/>
    </g>
    <g>
      <line class="cls-14" x1="313.23" y1="288.53" x2="313.23" y2="305"/>
      <polygon class="cls-41" points="310.16 302.51 310.71 302 313.23 304.71 315.75 302 316.3 302.51 313.23 305.81 310.16 302.51"/>
    </g>
    <g>
      <circle class="cls-52" cx="253.73" cy="303.24" r="6.36"/>
      <path class="cls-31" d="M257.32,300.2s0,0,0,0c-.47-.47-1.23-.82-1.74-.6-.37.16-.56.47-.53.88.03.41-.13.79-.43,1.07-.13.12-.26.17-.39.16-.02,0-.03,0-.05,0h0s0,0,0,0l-.28.28c-.12.12-.32.14-.46.04-.95-.7-1.72-.96-2-.67l-1.83,1.83c-.41.41.33,1.81,1.65,3.13,1.32,1.32,2.72,2.06,3.13,1.65l1.83-1.83c.28-.28.03-1.05-.67-2-.1-.14-.09-.34.04-.46l.28-.28s0,0,0,0c0-.02,0-.03,0-.05-.01-.13.04-.27.16-.4.28-.31.66-.46,1.07-.43.41.03.71-.16.88-.53.23-.52-.13-1.28-.6-1.75ZM253.29,307.2c-.52-.29-1.11-.76-1.67-1.31-.56-.56-1.02-1.15-1.31-1.67-.15-.26-.22-.44-.25-.56.12.03.3.1.56.25.52.29,1.11.76,1.67,1.31.56.56,1.02,1.15,1.31,1.67.15.26.22.44.25.56-.12-.03-.3-.1-.56-.25Z"/>
    </g>
    <g>
      <g>
        <circle class="cls-52" cx="374.61" cy="103.92" r="6.74"/>
        <path class="cls-31" d="M378.42,100.7s0,0,0,0c-.5-.5-1.3-.87-1.85-.63-.4.17-.59.5-.56.93.03.44-.13.84-.46,1.13-.14.12-.28.18-.42.17-.02,0-.03,0-.05,0h0s0,0,0,0l-.29.29c-.13.13-.34.15-.49.04-1.01-.74-1.82-1.01-2.12-.71l-1.94,1.94c-.43.43.35,1.92,1.75,3.32,1.4,1.4,2.88,2.18,3.32,1.75l1.94-1.94c.3-.3.03-1.11-.71-2.12-.11-.15-.09-.36.04-.49l.29-.29s0,0,0,0c0-.02,0-.04,0-.06-.01-.14.05-.28.17-.42.29-.33.7-.49,1.13-.46.43.03.75-.16.93-.56.24-.55-.14-1.35-.64-1.86ZM374.15,108.13c-.55-.31-1.18-.8-1.77-1.39-.59-.59-1.09-1.22-1.39-1.77-.16-.28-.23-.47-.26-.6.13.03.32.11.6.26.55.31,1.18.8,1.77,1.39.59.59,1.08,1.22,1.39,1.77.16.28.23.47.26.6-.13-.03-.32-.11-.6-.26Z"/>
      </g>
      <text class="cls-40" transform="translate(383.33 102.84)"><tspan x="0" y="0">スタンプ</tspan><tspan x="0" y="7.02">設置箇所</tspan></text>
    </g>
  </g>
  <g id="_1F" data-name="1F">
    <g>
      <ellipse class="cls-39" cx="386.76" cy="46.3" rx="19.57" ry="19.62"/>
      <text class="cls-33" transform="translate(374.05 57.03)"><tspan class="cls-48" x="0" y="0">2</tspan><tspan class="cls-47" x="16.21" y=".57">F</tspan></text>
    </g>
  </g>
</svg>