<?xml version="1.0" encoding="UTF-8"?>
<svg xmlns="http://www.w3.org/2000/svg" xmlns:xlink="http://www.w3.org/1999/xlink" viewBox="0 0 566.49 747.18">
  <defs>
    <style>
      .cls-1, .cls-2 {
        fill: #865498;
      }

      .cls-1, .cls-2, .cls-3, .cls-4, .cls-5, .cls-6, .cls-7, .cls-8, .cls-9, .cls-10, .cls-11 {
        stroke: #231815;
        stroke-miterlimit: 10;
      }

      .cls-1, .cls-8 {
        stroke-width: .25px;
      }

      .cls-12, .cls-13 {
        letter-spacing: -.01em;
      }

      .cls-13, .cls-14, .cls-15, .cls-16, .cls-17, .cls-18, .cls-19, .cls-20, .cls-21, .cls-22, .cls-23, .cls-24, .cls-25, .cls-26 {
        font-family: HeiseiKakuGoStd-W7-90ms-RKSJ-H, 'Heisei Kaku Gothic Std';
      }

      .cls-13, .cls-27, .cls-19, .cls-28, .cls-21, .cls-9, .cls-29, .cls-30, .cls-24 {
        fill: #fff;
      }

      .cls-13, .cls-26 {
        font-size: 7.79px;
      }

      .cls-31, .cls-32 {
        letter-spacing: -.02em;
      }

      .cls-33, .cls-34 {
        fill: #fed32b;
      }

      .cls-35 {
        stroke: #cecece;
        stroke-width: 1.44px;
      }

      .cls-35, .cls-3, .cls-36, .cls-37, .cls-38, .cls-7 {
        fill: none;
      }

      .cls-14 {
        font-size: 5.92px;
        letter-spacing: -.01em;
      }

      .cls-14, .cls-5 {
        fill: #727171;
      }

      .cls-15 {
        font-size: 6.15px;
        letter-spacing: -.02em;
      }

      .cls-15, .cls-16, .cls-39, .cls-40, .cls-20, .cls-22, .cls-26 {
        fill: #231815;
      }

      .cls-16 {
        font-size: 7.08px;
        letter-spacing: -.01em;
      }

      .cls-41 {
        fill: url(#_10_lpi_40_);
      }

      .cls-17, .cls-42, .cls-20, .cls-21, .cls-23, .cls-25 {
        font-size: 8.99px;
      }

      .cls-17, .cls-20, .cls-21 {
        letter-spacing: -.01em;
      }

      .cls-17, .cls-43, .cls-25 {
        fill: #65672c;
      }

      .cls-3, .cls-37 {
        stroke-width: .5px;
      }

      .cls-4 {
        fill: #4969aa;
      }

      .cls-44 {
        fill: #a0a0a0;
      }

      .cls-45, .cls-46 {
        letter-spacing: -.05em;
      }

      .cls-18 {
        font-size: 6.96px;
        letter-spacing: -.01em;
      }

      .cls-47 {
        letter-spacing: -.02em;
      }

      .cls-48 {
        fill: #bedca1;
      }

      .cls-49 {
        font-size: 20.81px;
      }

      .cls-46, .cls-50, .cls-28, .cls-32, .cls-29, .cls-30 {
        font-family: MyriadPro-Semibold, 'Myriad Pro';
        font-weight: 600;
      }

      .cls-46, .cls-50, .cls-32 {
        font-size: 15.14px;
      }

      .cls-51 {
        font-size: 33.35px;
        letter-spacing: -.05em;
      }

      .cls-52 {
        font-size: 6.59px;
      }

      .cls-53 {
        fill: #0c945c;
      }

      .cls-40 {
        font-family: MOBO-Bold, 'MOBO Bold-90ms-RKSJ-H';
        font-size: 6.53px;
        font-weight: 700;
        letter-spacing: -.05em;
      }

      .cls-54, .cls-43, .cls-55 {
        fill-rule: evenodd;
      }

      .cls-54, .cls-23 {
        fill: #626363;
      }

      .cls-42, .cls-23, .cls-25 {
        letter-spacing: -.01em;
      }

      .cls-37 {
        stroke: #a0a0a0;
      }

      .cls-38 {
        stroke: #fff;
        stroke-width: 2.88px;
      }

      .cls-19 {
        font-size: 7.74px;
        letter-spacing: -.01em;
      }

      .cls-56 {
        fill: #dbdbdb;
      }

      .cls-6 {
        fill: #da5789;
      }

      .cls-57 {
        fill: #9d1f24;
      }

      .cls-58 {
        fill: #4c6fb6;
      }

      .cls-59 {
        fill: url(#_10_lpi_20_5);
      }

      .cls-60 {
        font-size: 8.54px;
        letter-spacing: -.01em;
      }

      .cls-8, .cls-11 {
        fill: #eb9826;
      }

      .cls-61 {
        font-size: 7.76px;
        letter-spacing: -.01em;
      }

      .cls-62 {
        letter-spacing: -.51em;
      }

      .cls-63 {
        letter-spacing: -.01em;
      }

      .cls-34 {
        opacity: .4;
      }

      .cls-29 {
        font-size: 8.84px;
      }

      .cls-10 {
        fill: #4bb359;
      }

      .cls-55 {
        fill: #424142;
      }

      .cls-30 {
        font-size: 5.98px;
      }
    </style>
    <pattern id="_10_lpi_20_5" data-name="10 lpi 20% 5" x="0" y="0" width="72" height="72" patternTransform="translate(3191.49 -7808.63) rotate(-45)" patternUnits="userSpaceOnUse" viewBox="0 0 72 72">
      <g>
        <rect class="cls-36" width="72" height="72"/>
        <g>
          <line class="cls-35" x1="71.75" y1="68.4" x2="144.25" y2="68.4"/>
          <line class="cls-35" x1="71.75" y1="54" x2="144.25" y2="54"/>
          <line class="cls-35" x1="71.75" y1="39.6" x2="144.25" y2="39.6"/>
          <line class="cls-35" x1="71.75" y1="25.2" x2="144.25" y2="25.2"/>
          <line class="cls-35" x1="71.75" y1="10.8" x2="144.25" y2="10.8"/>
          <line class="cls-35" x1="71.75" y1="61.2" x2="144.25" y2="61.2"/>
          <line class="cls-35" x1="71.75" y1="46.8" x2="144.25" y2="46.8"/>
          <line class="cls-35" x1="71.75" y1="32.4" x2="144.25" y2="32.4"/>
          <line class="cls-35" x1="71.75" y1="18" x2="144.25" y2="18"/>
          <line class="cls-35" x1="71.75" y1="3.6" x2="144.25" y2="3.6"/>
        </g>
        <g>
          <line class="cls-35" x1="-.25" y1="68.4" x2="72.25" y2="68.4"/>
          <line class="cls-35" x1="-.25" y1="54" x2="72.25" y2="54"/>
          <line class="cls-35" x1="-.25" y1="39.6" x2="72.25" y2="39.6"/>
          <line class="cls-35" x1="-.25" y1="25.2" x2="72.25" y2="25.2"/>
          <line class="cls-35" x1="-.25" y1="10.8" x2="72.25" y2="10.8"/>
          <line class="cls-35" x1="-.25" y1="61.2" x2="72.25" y2="61.2"/>
          <line class="cls-35" x1="-.25" y1="46.8" x2="72.25" y2="46.8"/>
          <line class="cls-35" x1="-.25" y1="32.4" x2="72.25" y2="32.4"/>
          <line class="cls-35" x1="-.25" y1="18" x2="72.25" y2="18"/>
          <line class="cls-35" x1="-.25" y1="3.6" x2="72.25" y2="3.6"/>
        </g>
        <g>
          <line class="cls-35" x1="-72.25" y1="68.4" x2=".25" y2="68.4"/>
          <line class="cls-35" x1="-72.25" y1="54" x2=".25" y2="54"/>
          <line class="cls-35" x1="-72.25" y1="39.6" x2=".25" y2="39.6"/>
          <line class="cls-35" x1="-72.25" y1="25.2" x2=".25" y2="25.2"/>
          <line class="cls-35" x1="-72.25" y1="10.8" x2=".25" y2="10.8"/>
          <line class="cls-35" x1="-72.25" y1="61.2" x2=".25" y2="61.2"/>
          <line class="cls-35" x1="-72.25" y1="46.8" x2=".25" y2="46.8"/>
          <line class="cls-35" x1="-72.25" y1="32.4" x2=".25" y2="32.4"/>
          <line class="cls-35" x1="-72.25" y1="18" x2=".25" y2="18"/>
          <line class="cls-35" x1="-72.25" y1="3.6" x2=".25" y2="3.6"/>
        </g>
      </g>
    </pattern>
    <pattern id="_10_lpi_40_" data-name="10 lpi 40%" x="0" y="0" width="72" height="72" patternTransform="translate(-3168.68 -3130.61) scale(.6)" patternUnits="userSpaceOnUse" viewBox="0 0 72 72">
      <g>
        <rect class="cls-36" width="72" height="72"/>
        <g>
          <line class="cls-38" x1="71.75" y1="68.4" x2="144.25" y2="68.4"/>
          <line class="cls-38" x1="71.75" y1="54" x2="144.25" y2="54"/>
          <line class="cls-38" x1="71.75" y1="39.6" x2="144.25" y2="39.6"/>
          <line class="cls-38" x1="71.75" y1="25.2" x2="144.25" y2="25.2"/>
          <line class="cls-38" x1="71.75" y1="10.8" x2="144.25" y2="10.8"/>
          <line class="cls-38" x1="71.75" y1="61.2" x2="144.25" y2="61.2"/>
          <line class="cls-38" x1="71.75" y1="46.8" x2="144.25" y2="46.8"/>
          <line class="cls-38" x1="71.75" y1="32.4" x2="144.25" y2="32.4"/>
          <line class="cls-38" x1="71.75" y1="18" x2="144.25" y2="18"/>
          <line class="cls-38" x1="71.75" y1="3.6" x2="144.25" y2="3.6"/>
        </g>
        <g>
          <line class="cls-38" x1="-.25" y1="68.4" x2="72.25" y2="68.4"/>
          <line class="cls-38" x1="-.25" y1="54" x2="72.25" y2="54"/>
          <line class="cls-38" x1="-.25" y1="39.6" x2="72.25" y2="39.6"/>
          <line class="cls-38" x1="-.25" y1="25.2" x2="72.25" y2="25.2"/>
          <line class="cls-38" x1="-.25" y1="10.8" x2="72.25" y2="10.8"/>
          <line class="cls-38" x1="-.25" y1="61.2" x2="72.25" y2="61.2"/>
          <line class="cls-38" x1="-.25" y1="46.8" x2="72.25" y2="46.8"/>
          <line class="cls-38" x1="-.25" y1="32.4" x2="72.25" y2="32.4"/>
          <line class="cls-38" x1="-.25" y1="18" x2="72.25" y2="18"/>
          <line class="cls-38" x1="-.25" y1="3.6" x2="72.25" y2="3.6"/>
        </g>
        <g>
          <line class="cls-38" x1="-72.25" y1="68.4" x2=".25" y2="68.4"/>
          <line class="cls-38" x1="-72.25" y1="54" x2=".25" y2="54"/>
          <line class="cls-38" x1="-72.25" y1="39.6" x2=".25" y2="39.6"/>
          <line class="cls-38" x1="-72.25" y1="25.2" x2=".25" y2="25.2"/>
          <line class="cls-38" x1="-72.25" y1="10.8" x2=".25" y2="10.8"/>
          <line class="cls-38" x1="-72.25" y1="61.2" x2=".25" y2="61.2"/>
          <line class="cls-38" x1="-72.25" y1="46.8" x2=".25" y2="46.8"/>
          <line class="cls-38" x1="-72.25" y1="32.4" x2=".25" y2="32.4"/>
          <line class="cls-38" x1="-72.25" y1="18" x2=".25" y2="18"/>
          <line class="cls-38" x1="-72.25" y1="3.6" x2=".25" y2="3.6"/>
        </g>
      </g>
    </pattern>
  </defs>
  <g id="_最背景_灰色_" data-name="最背景(灰色)">
    <rect class="cls-56" x="105.99" y="31.08" width="352.22" height="281.17"/>
    <rect class="cls-59" x="111.57" y="294.97" width="210.14" height="17.28"/>
  </g>
  <g id="_路の背景_白_" data-name="路の背景(白)">
    <rect class="cls-41" x="211.42" y="289.52" width="15.91" height="22.89"/>
    <rect class="cls-27" x="150.76" y="37.24" width="13.38" height="164.69"/>
    <path class="cls-27" d="M398,173.85v-10.36h-8.3v-98.8h.29v-27.46h-231v153.52h-8.8v35.8h-15.05v21.54h-23.91v46.91h210.09v-68.46h-15.29v-10.04h76.4v-26.54h3.59v.78h11.34v2.12h55.77v-19.04h-55.13ZM373.92,105.78h-108.01v84.2h10.9v36.57h-92.19v-35.8h-9.86v-15.75h-8.38v-98.53h8.38v-11.78h199.16v41.08Z"/>
  </g>
  <g id="_枠本体" data-name="枠本体">
    <rect class="cls-11" x="121.78" y="89.89" width="28.98" height="26.34"/>
    <rect class="cls-34" x="321.42" y="189.98" width="53.08" height="26.54"/>
    <rect class="cls-34" x="247.78" y="268.72" width="48.66" height="26.29"/>
    <rect class="cls-2" x="166.37" y="52.98" width="31.42" height="26.34"/>
    <rect class="cls-2" x="197.79" y="52.98" width="31.42" height="26.34"/>
    <rect class="cls-2" x="229.21" y="52.98" width="31.42" height="26.34"/>
    <rect class="cls-5" x="237.6" y="174.14" width="42.23" height="52.5"/>
    <rect class="cls-5" x="237.6" y="226.64" width="31.43" height="21.46"/>
    <polygon class="cls-9" points="284.62 105.78 283.91 105.78 237.62 105.78 237.62 134.58 237.62 138.22 237.62 174.14 269.04 174.14 269.04 138.22 284.62 138.22 284.62 120.05 300.43 120.05 300.43 105.78 284.62 105.78"/>
    <rect class="cls-2" x="260.63" y="52.98" width="31.42" height="26.34"/>
    <rect class="cls-2" x="292.05" y="52.98" width="31.42" height="26.34"/>
    <polyline class="cls-6" points="348.03 63.44 348.03 79.19 323.47 79.19 323.47 63.44"/>
    <rect class="cls-9" x="269.03" y="226.64" width="10.8" height="21.46"/>
    <rect class="cls-9" x="227.34" y="268.87" width="20.44" height="26.25"/>
    <rect class="cls-9" x="138.4" y="268.72" width="20.44" height="26.25"/>
    <polyline class="cls-5" points="138.4 268.72 138.4 294.97 111.57 294.97 111.57 268.72"/>
    <polyline class="cls-5" points="453.12 187.51 453.12 216.52 426.29 216.52 426.29 187.51"/>
    <rect class="cls-11" x="158.98" y="268.72" width="52.39" height="26.25"/>
    <rect class="cls-9" x="347.98" y="79.19" width="26.52" height="26.59"/>
    <rect class="cls-9" x="405.64" y="187.51" width="21.06" height="29.02"/>
    <rect class="cls-9" x="374.5" y="189.98" width="15.85" height="26.54"/>
    <polygon class="cls-9" points="339.74 150.42 339.74 126.71 321.42 126.71 321.42 174.14 333.76 174.14 333.76 174.14 374.5 174.14 374.5 150.42 339.74 150.42"/>
    <rect class="cls-2" x="339.74" y="126.71" width="34.76" height="23.62"/>
    <polyline class="cls-5" points="150.76 89.89 121.78 89.89 121.78 69.96 150.76 69.96"/>
    <polyline class="cls-5" points="374.5 79.19 348.03 79.19 348.03 63.44 374.5 63.44"/>
    <polyline class="cls-5" points="405.64 189.98 405.64 216.52 390.35 216.52 390.35 189.98"/>
    <polyline class="cls-5" points="185.08 237.63 185.08 210.74 198.42 210.74 198.42 237.63"/>
    <polyline class="cls-5" points="345.27 126.71 374.5 126.71 374.5 116.21 345.27 116.21"/>
    <rect class="cls-11" x="121.78" y="116.26" width="28.98" height="26.34"/>
    <rect class="cls-11" x="121.78" y="142.64" width="28.98" height="26.34"/>
    <rect class="cls-11" x="121.78" y="169.01" width="28.98" height="26.34"/>
    <rect class="cls-11" x="121.78" y="195.39" width="28.98" height="26.34"/>
    <rect class="cls-11" x="121.78" y="221.76" width="28.98" height="26.34"/>
    <rect class="cls-58" x="166.41" y="168.97" width="25.09" height="31.34"/>
    <polyline class="cls-7" points="166.41 52.98 166.41 200.22 166.41 169.1 191.5 169.26 191.5 200.44 185.08 200.5 185.08 248.28"/>
    <polyline class="cls-10" points="172.49 210.74 172.49 224.13 185.08 224.13 185.08 210.74"/>
    <polyline class="cls-5" points="185.08 237.63 185.08 224.23 172.49 224.23 172.49 237.63"/>
    <polyline class="cls-7" points="374.5 105.78 237.63 105.78 237.54 248.1"/>
    <polyline class="cls-10" points="389.98 52.85 389.98 37.05 374.5 37.05 374.5 52.85"/>
    <polyline class="cls-6" points="374.71 52.85 374.71 37.05 348.03 37.05 348.03 52.85"/>
    <polyline class="cls-6" points="300.43 120.17 284.68 120.17 284.68 129.18 300.43 129.18"/>
    <polyline class="cls-4" points="300.43 129.18 284.68 129.18 284.68 138.22 300.43 138.22"/>
    <polyline class="cls-6" points="211.36 226.47 211.36 210.74 204.89 210.74 204.89 226.47"/>
    <polyline class="cls-4" points="204.89 226.47 204.89 210.74 198.42 210.74 198.42 226.47"/>
    <polyline class="cls-7" points="321.42 268.87 321.31 295.11 296.55 295.11 296.44 268.57"/>
    <polyline class="cls-7" points="306.02 189.98 306.02 226.64 321.42 226.64 321.42 248.1"/>
    <line class="cls-7" x1="211.37" y1="210.74" x2="211.37" y2="248.1"/>
    <rect class="cls-48" x="374.5" y="233" width="83.71" height="79.24" transform="translate(832.7 545.24) rotate(180)"/>
    <polyline class="cls-7" points="374.5 268.57 374.5 233 458.2 233"/>
    <line class="cls-7" x1="374.5" y1="312.24" x2="374.5" y2="288.57"/>
    <line class="cls-7" x1="121.78" y1="248.1" x2="111.22" y2="248.1"/>
  </g>
  <g id="_文字_ピクトグラム" data-name="文字・ピクトグラム">
    <g id="_女子" data-name="女子">
      <path d="M173.68,677.53c-3.75,0-6.8-3.05-6.8-6.8s3.05-6.8,6.8-6.8,6.8,3.05,6.8,6.8-3.05,6.8-6.8,6.8Z"/>
      <path d="M188.08,711.12l-7-15.27c-.02-.26-.05-.51-.09-.77l2.85-11.59c.13-1.5-.99-2.72-2.49-2.72h-15.33c-1.5,0-2.62,1.22-2.49,2.72l2.85,11.59c-.04.25-.07.51-.09.77l-7,15.27c-.19,2.12,1.4,3.86,3.53,3.86h6.23l1.61,26.18c.05,1.42,1.26,2.58,2.68,2.58h.68c1.42,0,2.63-1.16,2.68-2.58l1.61-26.18h6.23c2.13,0,3.72-1.73,3.53-3.86Z"/>
    </g>
    <g id="_女子-2" data-name="女子">
      <path class="cls-27" d="M361.49,40.69c-.61,0-1.1-.49-1.1-1.1s.49-1.1,1.1-1.1,1.1.49,1.1,1.1-.49,1.1-1.1,1.1Z"/>
      <path class="cls-27" d="M363.81,46.13l-1.13-2.47s0-.08-.01-.12l.46-1.88c.02-.24-.16-.44-.4-.44h-2.48c-.24,0-.42.2-.4.44l.46,1.88s-.01.08-.01.12l-1.13,2.47c-.03.34.23.62.57.62h1.01l.26,4.24c0,.23.2.42.43.42h.11c.23,0,.42-.19.43-.42l.26-4.24h1.01c.34,0,.6-.28.57-.62Z"/>
    </g>
    <g id="_女子-3" data-name="女子">
      <path class="cls-27" d="M335.75,67.05c-.61,0-1.1-.49-1.1-1.1s.49-1.1,1.1-1.1,1.1.49,1.1,1.1-.49,1.1-1.1,1.1Z"/>
      <path class="cls-27" d="M338.08,72.5l-1.13-2.47s0-.08-.01-.12l.46-1.88c.02-.24-.16-.44-.4-.44h-2.48c-.24,0-.42.2-.4.44l.46,1.88s-.01.08-.01.12l-1.13,2.47c-.03.34.23.62.57.62h1.01l.26,4.24c0,.23.2.42.43.42h.11c.23,0,.42-.19.43-.42l.26-4.24h1.01c.34,0,.6-.28.57-.62Z"/>
    </g>
    <g id="_女子-4" data-name="女子">
      <path class="cls-27" d="M292.34,122.29c-.34,0-.62-.28-.62-.62s.28-.62.62-.62.62.28.62.62-.28.62-.62.62Z"/>
      <path class="cls-27" d="M293.65,125.34l-.64-1.39s0-.05,0-.07l.26-1.05c.01-.14-.09-.25-.23-.25h-1.39c-.14,0-.24.11-.23.25l.26,1.05s0,.05,0,.07l-.64,1.39c-.02.19.13.35.32.35h.57l.15,2.38c0,.13.11.23.24.23h.06c.13,0,.24-.11.24-.23l.15-2.38h.57c.19,0,.34-.16.32-.35Z"/>
    </g>
    <g id="_女子-5" data-name="女子">
      <path class="cls-27" d="M208.13,216.45c-.34,0-.62-.28-.62-.62s.28-.62.62-.62.62.28.62.62-.28.62-.62.62Z"/>
      <path class="cls-27" d="M209.44,219.51l-.64-1.39s0-.05,0-.07l.26-1.05c.01-.14-.09-.25-.23-.25h-1.39c-.14,0-.24.11-.23.25l.26,1.05s0,.05,0,.07l-.64,1.39c-.02.19.13.35.32.35h.57l.15,2.38c0,.13.11.23.24.23h.06c.13,0,.24-.11.24-.23l.15-2.38h.57c.19,0,.34-.16.32-.35Z"/>
    </g>
    <g id="EV">
      <path d="M284.79,678.5v68.68h67.62v-68.68h-67.62ZM345.9,740.68h-54.61v-55.67h54.61v55.67Z"/>
      <path d="M324.24,700.84c0,3.11-2.52,5.64-5.64,5.64s-5.64-2.52-5.64-5.64,2.53-5.64,5.64-5.64,5.64,2.52,5.64,5.64Z"/>
      <path d="M323.07,735.46c-.09,2.07-1.86,3.76-3.92,3.76h-1.1c-2.07,0-3.83-1.69-3.92-3.76l-1-22.94c-.09-2.07,1.53-3.76,3.6-3.76h3.76c2.07,0,3.69,1.69,3.6,3.76l-1,22.94Z"/>
      <path d="M307.28,700.84c0,3.11-2.52,5.64-5.64,5.64s-5.64-2.52-5.64-5.64,2.52-5.64,5.64-5.64,5.64,2.52,5.64,5.64Z"/>
      <path d="M306.11,735.46c-.09,2.07-1.86,3.76-3.92,3.76h-1.1c-2.07,0-3.83-1.69-3.92-3.76l-1-22.94c-.09-2.07,1.53-3.76,3.6-3.76h3.76c2.07,0,3.69,1.69,3.6,3.76l-1,22.94Z"/>
      <path d="M341.2,700.84c0,3.11-2.52,5.64-5.64,5.64s-5.64-2.52-5.64-5.64,2.52-5.64,5.64-5.64,5.64,2.52,5.64,5.64Z"/>
      <path d="M340.03,735.46c-.09,2.07-1.86,3.76-3.92,3.76h-1.1c-2.07,0-3.83-1.69-3.92-3.76l-1-22.94c-.09-2.07,1.53-3.76,3.6-3.76h3.76c2.07,0,3.69,1.69,3.6,3.76l-1,22.94Z"/>
      <g>
        <polygon points="300.19 672.69 300.19 656.17 295.45 660.91 290.52 655.98 303.64 642.86 304.19 643.41 316.79 656.01 311.86 660.94 307.15 656.23 307.15 672.69 300.19 672.69"/>
        <polygon points="333.01 672.44 320.4 659.84 325.33 654.92 330.04 659.63 330.04 643.17 337.01 643.17 337.01 659.68 341.75 654.94 346.68 659.87 333.55 672.99 333.01 672.44"/>
      </g>
    </g>
    <g id="_男子" data-name="男子">
      <circle cx="129.73" cy="670.73" r="6.8"/>
      <path d="M137.9,680.78h-16.34c-1.66,0-2.99,1.36-2.96,3.02l.76,27.66c.02,1.02.98,1.62,1.88,1.84l2.76.89,1.22,26.85c.07,1.5,1.66,2.69,3.56,2.69h1.9c1.9,0,3.49-1.19,3.56-2.69l1.22-26.85,2.76-.89c.9-.23,1.86-.82,1.88-1.84l.76-27.66c.03-1.66-1.3-3.02-2.96-3.02Z"/>
    </g>
    <g id="_階段" data-name="階段">
      <polygon points="201.09 729.53 201.09 715.41 216.14 715.41 216.14 706.21 231.19 706.21 231.19 697.06 246.24 697.06 246.24 687.91 262.49 687.91 262.49 692.84 251.16 692.84 251.16 701.98 236.11 701.98 236.11 711.13 221.06 711.13 221.06 720.33 206.01 720.33 206.01 729.53 201.09 729.53"/>
      <g>
        <polygon points="222.51 674.74 211.24 686.01 211.24 680.87 205.96 680.87 205.96 695.02 220.11 695.02 220.11 689.74 214.97 689.74 226.24 678.47 222.51 674.74"/>
        <polygon points="243.46 714.51 243.46 719.79 248.61 719.79 237.34 731.06 241.07 734.79 252.34 723.52 252.34 728.67 257.62 728.67 257.62 714.51 243.46 714.51"/>
      </g>
    </g>
    <text class="cls-39" transform="translate(129.38 99.23)"><tspan class="cls-18"><tspan x="0" y="0">高校</tspan></tspan><tspan class="cls-46"><tspan x="-.66" y="13.51">1E</tspan></tspan></text>
    <text class="cls-27" transform="translate(175.39 62.36)"><tspan class="cls-18"><tspan x="0" y="0">中学</tspan></tspan><tspan class="cls-50"><tspan class="cls-31" x="1.05" y="13.51">3</tspan><tspan class="cls-45" x="8.79" y="13.51">I</tspan></tspan></text>
    <text class="cls-27" transform="translate(206.6 62.36)"><tspan class="cls-18"><tspan x="0" y="0">中学</tspan></tspan><tspan class="cls-32"><tspan x="-2.04" y="13.51">3H</tspan></tspan></text>
    <text class="cls-27" transform="translate(238.02 62.36)"><tspan class="cls-18"><tspan x="0" y="0">中学</tspan></tspan><tspan class="cls-32"><tspan x="-2" y="13.51">3G</tspan></tspan></text>
    <text class="cls-27" transform="translate(269.44 62.36)"><tspan class="cls-18"><tspan x="0" y="0">中学</tspan></tspan><tspan class="cls-32"><tspan x="-.81" y="13.51">3F</tspan></tspan></text>
    <text class="cls-39" transform="translate(129.38 126.04)"><tspan class="cls-18"><tspan x="0" y="0">高校</tspan></tspan><tspan class="cls-46"><tspan x="-.62" y="13.51">1F</tspan></tspan></text>
    <text class="cls-39" transform="translate(129.38 151.94)"><tspan class="cls-18"><tspan x="0" y="0">高校</tspan></tspan><tspan class="cls-46"><tspan x="-1.81" y="13.51">1G</tspan></tspan></text>
    <text class="cls-39" transform="translate(129.38 178.29)"><tspan class="cls-18"><tspan x="0" y="0">高校</tspan></tspan><tspan class="cls-46"><tspan x="-1.85" y="13.51">1H</tspan></tspan></text>
    <text class="cls-39" transform="translate(129.38 204.86)"><tspan class="cls-18"><tspan x="0" y="0">高校</tspan></tspan><tspan class="cls-46"><tspan x="1.24" y="13.51">1I</tspan></tspan></text>
    <text class="cls-39" transform="translate(129.38 230.93)"><tspan class="cls-18"><tspan x="0" y="0">高校</tspan></tspan><tspan class="cls-46"><tspan x=".27" y="13.51">1J</tspan></tspan></text>
    <text class="cls-24" transform="translate(300.52 64.7)"><tspan class="cls-60" x="0" y="0">1</tspan><tspan class="cls-61" x="6.77" y="-.29">階</tspan><tspan class="cls-61"><tspan x="-4.28" y="10.19">学習室</tspan></tspan></text>
    <text class="cls-21" transform="translate(245.37 204.26)"><tspan x="0" y="0">事務室</tspan></text>
    <text class="cls-19" transform="translate(241.83 240.71)"><tspan x="0" y="0">放送室</tspan></text>
    <text class="cls-13" transform="translate(349.4 137.33)"><tspan x="0" y="0">中学</tspan><tspan x="-7.69" y="8.39">生徒会室</tspan></text>
    <text class="cls-20" transform="translate(167.41 285.3)"><tspan x="0" y="0">家庭科室</tspan></text>
    <g>
      <text class="cls-22" transform="translate(399.05 270.32)"><tspan class="cls-42"><tspan x="0" y="0">ステージ</tspan></tspan><tspan class="cls-52"><tspan class="cls-63" x="1.49" y="8.08">（晴天時</tspan><tspan class="cls-62" x="27.52" y="8.08">）</tspan></tspan></text>
      <text class="cls-14" transform="translate(381.82 291.05)"><tspan x="0" y="0">※雨天時は体育館での開催</tspan></text>
    </g>
    <text class="cls-20" transform="translate(211.97 204.26)"><tspan x="0" y="0">中庭</tspan></text>
    <g id="_階段-2" data-name="階段">
      <polygon class="cls-27" points="355.74 76.31 355.74 73.46 358.45 73.46 358.45 71.61 361.15 71.61 361.15 69.76 363.86 69.76 363.86 67.91 366.78 67.91 366.78 68.91 364.75 68.91 364.75 70.75 362.04 70.75 362.04 72.6 359.33 72.6 359.33 74.46 356.63 74.46 356.63 76.31 355.74 76.31"/>
      <g>
        <polygon class="cls-27" points="359.59 65.26 357.57 67.53 357.57 66.49 356.62 66.49 356.62 69.35 359.16 69.35 359.16 68.28 358.24 68.28 360.26 66.01 359.59 65.26"/>
        <polygon class="cls-27" points="363.36 73.28 363.36 74.35 364.29 74.35 362.26 76.62 362.93 77.37 364.96 75.1 364.96 76.14 365.91 76.14 365.91 73.28 363.36 73.28"/>
      </g>
    </g>
    <g id="_階段-3" data-name="階段">
      <polygon class="cls-27" points="130.12 85.49 130.12 82.31 133.14 82.31 133.14 80.25 136.15 80.25 136.15 78.19 139.17 78.19 139.17 76.14 142.42 76.14 142.42 77.24 140.15 77.24 140.15 79.3 137.14 79.3 137.14 81.35 134.13 81.35 134.13 83.42 131.11 83.42 131.11 85.49 130.12 85.49"/>
      <g>
        <polygon class="cls-27" points="134.41 73.17 132.16 75.71 132.16 74.55 131.1 74.55 131.1 77.73 133.94 77.73 133.94 76.55 132.9 76.55 135.16 74.01 134.41 73.17"/>
        <polygon class="cls-27" points="138.61 82.11 138.61 83.3 139.64 83.3 137.39 85.83 138.13 86.67 140.39 84.14 140.39 85.29 141.45 85.29 141.45 82.11 138.61 82.11"/>
      </g>
    </g>
    <g id="_階段-4" data-name="階段">
      <polygon class="cls-27" points="392.98 207.83 392.98 205.34 395.62 205.34 395.62 203.72 398.26 203.72 398.26 202.11 400.9 202.11 400.9 200.51 403.75 200.51 403.75 201.37 401.76 201.37 401.76 202.98 399.12 202.98 399.12 204.59 396.48 204.59 396.48 206.21 393.84 206.21 393.84 207.83 392.98 207.83"/>
      <g>
        <polygon class="cls-27" points="396.74 198.19 394.76 200.17 394.76 199.27 393.83 199.27 393.83 201.76 396.32 201.76 396.32 200.83 395.42 200.83 397.39 198.85 396.74 198.19"/>
        <polygon class="cls-27" points="400.41 205.18 400.41 206.11 401.32 206.11 399.34 208.09 399.99 208.75 401.97 206.77 401.97 207.67 402.9 207.67 402.9 205.18 400.41 205.18"/>
      </g>
    </g>
    <g id="_階段-5" data-name="階段">
      <polygon class="cls-27" points="186.49 228.76 186.49 226.33 189.07 226.33 189.07 224.74 191.65 224.74 191.65 223.17 194.23 223.17 194.23 221.59 197.01 221.59 197.01 222.44 195.07 222.44 195.07 224.01 192.49 224.01 192.49 225.59 189.91 225.59 189.91 227.18 187.33 227.18 187.33 228.76 186.49 228.76"/>
      <g>
        <polygon class="cls-27" points="190.16 219.32 188.23 221.26 188.23 220.38 187.32 220.38 187.32 222.81 189.75 222.81 189.75 221.91 188.87 221.91 190.8 219.96 190.16 219.32"/>
        <polygon class="cls-27" points="193.75 226.17 193.75 227.08 194.64 227.08 192.7 229.02 193.34 229.67 195.27 227.73 195.27 228.61 196.18 228.61 196.18 226.17 193.75 226.17"/>
      </g>
    </g>
    <g>
      <polyline class="cls-5" points="321.31 189.98 321.31 216.52 306.02 216.52 306.02 189.98"/>
      <g>
        <g id="_階段-6" data-name="階段">
          <polygon class="cls-27" points="309.51 202.62 309.51 200.57 311.69 200.57 311.69 199.24 313.87 199.24 313.87 197.91 316.06 197.91 316.06 196.58 318.41 196.58 318.41 197.29 316.77 197.29 316.77 198.62 314.59 198.62 314.59 199.95 312.41 199.95 312.41 201.29 310.23 201.29 310.23 202.62 309.51 202.62"/>
          <polygon class="cls-27" points="315.65 200.44 315.65 201.21 316.4 201.21 314.77 202.85 315.31 203.39 316.94 201.75 316.94 202.5 317.7 202.5 317.7 200.44 315.65 200.44"/>
        </g>
        <text class="cls-29" transform="translate(309.06 213.23)"><tspan x="0" y="0">2F</tspan></text>
      </g>
    </g>
    <g>
      <polyline class="cls-5" points="321.42 268.57 321.42 295.11 306.12 295.11 306.12 268.57"/>
      <g>
        <g id="_階段-7" data-name="階段">
          <polygon class="cls-27" points="309.62 281.21 309.62 279.16 311.8 279.16 311.8 277.83 313.98 277.83 313.98 276.5 316.16 276.5 316.16 275.17 318.51 275.17 318.51 275.88 316.87 275.88 316.87 277.21 314.69 277.21 314.69 278.54 312.51 278.54 312.51 279.88 310.33 279.88 310.33 281.21 309.62 281.21"/>
          <polygon class="cls-27" points="315.76 279.03 315.76 279.8 316.5 279.8 314.87 281.44 315.41 281.98 317.04 280.34 317.04 281.09 317.81 281.09 317.81 279.03 315.76 279.03"/>
        </g>
        <text class="cls-29" transform="translate(309.16 291.82)"><tspan x="0" y="0">2F</tspan></text>
      </g>
    </g>
    <g>
      <g id="_階段-8" data-name="階段">
        <polygon class="cls-27" points="352.1 124.74 352.1 122.87 354.09 122.87 354.09 121.65 356.08 121.65 356.08 120.43 358.07 120.43 358.07 119.22 360.21 119.22 360.21 119.88 358.72 119.88 358.72 121.09 356.73 121.09 356.73 122.3 354.74 122.3 354.74 123.52 352.75 123.52 352.75 124.74 352.1 124.74"/>
        <polygon class="cls-27" points="357.7 122.75 357.7 123.45 358.38 123.45 356.89 124.94 357.39 125.43 358.87 123.94 358.87 124.62 359.57 124.62 359.57 122.75 357.7 122.75"/>
      </g>
      <text class="cls-30" transform="translate(362.67 123.83)"><tspan x="0" y="0">2F</tspan></text>
    </g>
    <g id="_男子-2" data-name="男子">
      <ellipse class="cls-27" cx="178.95" cy="176.65" rx="1.64" ry="1.64"/>
      <path class="cls-27" d="M180.92,179.08h-3.93c-.4,0-.72.33-.71.73l.18,6.68c0,.25.24.39.45.45l.67.21.29,6.48c.02.36.4.65.86.65h.46c.46,0,.84-.29.86-.65l.29-6.48.67-.21c.22-.06.45-.2.45-.45l.18-6.68c0-.4-.31-.73-.71-.73Z"/>
    </g>
    <g id="EV-2" data-name="EV">
      <path class="cls-27" d="M175.2,229.39v6.93h7.31v-6.93h-7.31ZM181.8,235.66h-5.9v-5.62h5.9v5.62Z"/>
      <path class="cls-27" d="M179.46,231.64c0,.31-.27.57-.61.57s-.61-.25-.61-.57.27-.57.61-.57.61.25.61.57Z"/>
      <path class="cls-27" d="M179.33,235.14c0,.21-.2.38-.42.38h-.12c-.22,0-.41-.17-.42-.38l-.11-2.31c0-.21.17-.38.39-.38h.41c.22,0,.4.17.39.38l-.11,2.31Z"/>
      <path class="cls-27" d="M177.63,231.64c0,.31-.27.57-.61.57s-.61-.25-.61-.57.27-.57.61-.57.61.25.61.57Z"/>
      <path class="cls-27" d="M177.5,235.14c0,.21-.2.38-.42.38h-.12c-.22,0-.41-.17-.42-.38l-.11-2.31c0-.21.17-.38.39-.38h.41c.22,0,.4.17.39.38l-.11,2.31Z"/>
      <path class="cls-27" d="M181.29,231.64c0,.31-.27.57-.61.57s-.61-.25-.61-.57.27-.57.61-.57.61.25.61.57Z"/>
      <path class="cls-27" d="M181.17,235.14c0,.21-.2.38-.42.38h-.12c-.22,0-.41-.17-.42-.38l-.11-2.31c0-.21.17-.38.39-.38h.41c.22,0,.4.17.39.38l-.11,2.31Z"/>
      <g>
        <polygon class="cls-27" points="176.86 228.8 176.86 227.14 176.35 227.62 175.82 227.12 177.24 225.79 177.29 225.85 178.66 227.12 178.12 227.62 177.62 227.14 177.62 228.8 176.86 228.8"/>
        <polygon class="cls-27" points="180.41 228.78 179.05 227.51 179.58 227.01 180.09 227.49 180.09 225.83 180.84 225.83 180.84 227.49 181.35 227.01 181.89 227.51 180.47 228.83 180.41 228.78"/>
      </g>
    </g>
    <g>
      <polyline class="cls-5" points="389.2 173.85 405.59 173.85 405.59 158.37 389.2 158.37"/>
      <g id="EV-3" data-name="EV">
        <path class="cls-27" d="M393.52,164.41v7.97h8.18v-7.97h-8.18ZM400.91,171.63h-6.6v-6.46h6.6v6.46Z"/>
        <path class="cls-27" d="M398.29,167c0,.36-.31.65-.68.65s-.68-.29-.68-.65.31-.65.68-.65.68.29.68.65Z"/>
        <path class="cls-27" d="M398.15,171.02c-.01.24-.22.44-.47.44h-.13c-.25,0-.46-.2-.47-.44l-.12-2.66c-.01-.24.18-.44.43-.44h.45c.25,0,.45.2.43.44l-.12,2.66Z"/>
        <path class="cls-27" d="M396.24,167c0,.36-.31.65-.68.65s-.68-.29-.68-.65.31-.65.68-.65.68.29.68.65Z"/>
        <path class="cls-27" d="M396.1,171.02c-.01.24-.22.44-.47.44h-.13c-.25,0-.46-.2-.47-.44l-.12-2.66c-.01-.24.18-.44.43-.44h.45c.25,0,.45.2.43.44l-.12,2.66Z"/>
        <path class="cls-27" d="M400.34,167c0,.36-.31.65-.68.65s-.68-.29-.68-.65.31-.65.68-.65.68.29.68.65Z"/>
        <path class="cls-27" d="M400.2,171.02c-.01.24-.22.44-.47.44h-.13c-.25,0-.46-.2-.47-.44l-.12-2.66c-.01-.24.18-.44.43-.44h.45c.25,0,.45.2.43.44l-.12,2.66Z"/>
        <g>
          <polygon class="cls-27" points="395.38 163.74 395.38 161.82 394.81 162.37 394.21 161.8 395.8 160.27 395.87 160.34 397.39 161.8 396.8 162.37 396.23 161.83 396.23 163.74 395.38 163.74"/>
          <polygon class="cls-27" points="399.35 163.71 397.83 162.24 398.42 161.67 398.99 162.22 398.99 160.31 399.84 160.31 399.84 162.23 400.41 161.68 401.01 162.25 399.42 163.77 399.35 163.71"/>
        </g>
      </g>
    </g>
    <g>
      <g>
        <path d="M94.7,688.42c-2.71,0-5.02-.95-6.68-2.74-1.67-1.8-2.55-4.33-2.56-7.32,0-2.99.9-5.53,2.56-7.33,1.66-1.79,3.97-2.74,6.68-2.74,3.24,0,5.93,1.45,7.21,3.89l.18.35-3.86,1.94-.2-.21c-.76-.82-1.92-1.35-2.96-1.35-2.63,0-4.33,2.14-4.34,5.46.01,3.31,1.72,5.46,4.34,5.46,1.04,0,2.2-.53,2.96-1.35l.2-.21,3.86,1.94-.18.35c-1.28,2.43-3.97,3.89-7.21,3.89Z"/>
        <polygon points="77.98 668.28 74.82 679.95 71.66 668.28 67.24 668.28 64.08 679.95 60.93 668.28 56.33 668.28 61.78 688.44 66.39 688.44 69.45 677.1 72.52 688.44 77.12 688.44 82.57 668.28 77.98 668.28"/>
      </g>
      <g>
        <path d="M86.16,734.31c-2.29,3.57-6.29,5.94-10.84,5.94-7.1,0-12.87-5.77-12.87-12.87,0-5.39,3.34-10.02,8.05-11.93v-4.68c-7.2,2.09-12.48,8.75-12.48,16.62,0,9.54,7.76,17.3,17.3,17.3,6.56,0,12.28-3.67,15.21-9.06l-4.37-1.31Z"/>
        <path d="M81.96,701.44c0,2.55-2.06,4.61-4.61,4.61s-4.61-2.06-4.61-4.61,2.06-4.61,4.61-4.61,4.61,2.06,4.61,4.61Z"/>
        <path d="M99.8,733.29l-5.98-8.12c-.59-.8-1.52-1.27-2.51-1.27h-9.9v-12.73c0-2.11-1.72-3.83-3.83-3.83h-.48c-2.11,0-3.83,1.72-3.83,3.83v15.12c0,1.05.43,2.01,1.12,2.7.57.69,1.44,1.13,2.4,1.13h12.94l5.04,6.85c.61.83,1.55,1.27,2.51,1.27.64,0,1.29-.2,1.84-.61,1.38-1.02,1.68-2.97.66-4.35Z"/>
      </g>
    </g>
    <g>
      <g>
        <path class="cls-27" d="M181,215.08c-.4,0-.75-.14-.99-.41-.25-.27-.38-.65-.38-1.09,0-.45.13-.82.38-1.09.25-.27.59-.41.99-.41.48,0,.88.22,1.07.58l.03.05-.57.29-.03-.03c-.11-.12-.29-.2-.44-.2-.39,0-.65.32-.65.81,0,.49.26.81.65.81.15,0,.33-.08.44-.2l.03-.03.57.29-.03.05c-.19.36-.59.58-1.07.58Z"/>
        <polygon class="cls-27" points="178.51 212.07 178.04 213.81 177.57 212.07 176.91 212.07 176.44 213.81 175.97 212.07 175.29 212.07 176.1 215.08 176.79 215.08 177.24 213.39 177.7 215.08 178.39 215.08 179.2 212.07 178.51 212.07"/>
      </g>
      <g>
        <path class="cls-27" d="M180.16,221.26c-.34.53-.94.89-1.61.89-1.06,0-1.92-.86-1.92-1.92,0-.8.5-1.5,1.2-1.78v-.7c-1.07.31-1.86,1.31-1.86,2.48,0,1.42,1.16,2.58,2.58,2.58.98,0,1.83-.55,2.27-1.35l-.65-.2Z"/>
        <path class="cls-27" d="M179.54,216.35c0,.38-.31.69-.69.69s-.69-.31-.69-.69.31-.69.69-.69.69.31.69.69Z"/>
        <path class="cls-27" d="M182.2,221.1l-.89-1.21c-.09-.12-.23-.19-.37-.19h-1.47v-1.9c0-.31-.26-.57-.57-.57h-.07c-.31,0-.57.26-.57.57v2.26c0,.16.06.3.17.4.09.1.21.17.36.17h1.93l.75,1.02c.09.12.23.19.37.19.1,0,.19-.03.27-.09.21-.15.25-.44.1-.65Z"/>
      </g>
    </g>
    <g>
      <g>
        <path class="cls-27" d="M385.22,42.65c-.49,0-.9-.17-1.2-.49-.3-.32-.46-.78-.46-1.32,0-.54.16-.99.46-1.32.3-.32.71-.49,1.2-.49.58,0,1.06.26,1.29.7l.03.06-.69.35-.04-.04c-.14-.15-.34-.24-.53-.24-.47,0-.78.38-.78.98,0,.6.31.98.78.98.19,0,.39-.1.53-.24l.04-.04.69.35-.03.06c-.23.44-.71.7-1.29.7Z"/>
        <polygon class="cls-27" points="382.22 39.03 381.66 41.13 381.09 39.03 380.3 39.03 379.73 41.13 379.17 39.03 378.34 39.03 379.32 42.66 380.15 42.66 380.7 40.62 381.25 42.66 382.07 42.66 383.05 39.03 382.22 39.03"/>
      </g>
      <g>
        <path class="cls-27" d="M384.21,50.09c-.41.64-1.13,1.07-1.94,1.07-1.27,0-2.31-1.04-2.31-2.31,0-.97.6-1.8,1.44-2.14v-.84c-1.29.38-2.24,1.57-2.24,2.98,0,1.71,1.39,3.11,3.1,3.11,1.18,0,2.2-.66,2.73-1.63l-.78-.24Z"/>
        <path class="cls-27" d="M383.46,44.19c0,.46-.37.83-.83.83s-.83-.37-.83-.83.37-.83.83-.83.83.37.83.83Z"/>
        <path class="cls-27" d="M386.66,49.91l-1.07-1.46c-.11-.14-.27-.23-.45-.23h-1.77v-2.29c0-.38-.31-.69-.69-.69h-.09c-.38,0-.69.31-.69.69v2.72c0,.19.08.36.2.49.1.12.26.2.43.2h2.32l.9,1.23c.11.15.28.23.45.23.11,0,.23-.04.33-.11.25-.18.3-.53.12-.78Z"/>
      </g>
    </g>
    <polyline class="cls-7" points="150.76 52.98 150.76 37.25 389.98 37.03 389.69 158.41 405.66 158.35 405.64 173.85 453.12 173.85"/>
    <g id="_男子-3" data-name="男子">
      <circle class="cls-27" cx="292.34" cy="130.69" r=".62"/>
      <path class="cls-27" d="M293.08,131.61h-1.48c-.15,0-.27.12-.27.27l.07,2.51c0,.09.09.15.17.17l.25.08.11,2.44c0,.14.15.24.32.24h.17c.17,0,.32-.11.32-.24l.11-2.44.25-.08c.08-.02.17-.07.17-.17l.07-2.51c0-.15-.12-.27-.27-.27Z"/>
    </g>
    <g id="_男子-4" data-name="男子">
      <circle class="cls-27" cx="201.66" cy="215.84" r=".62"/>
      <path class="cls-27" d="M202.4,216.75h-1.48c-.15,0-.27.12-.27.27l.07,2.51c0,.09.09.15.17.17l.25.08.11,2.44c0,.14.15.24.32.24h.17c.17,0,.32-.11.32-.24l.11-2.44.25-.08c.08-.02.17-.07.17-.17l.07-2.51c0-.15-.12-.27-.27-.27Z"/>
    </g>
    <line class="cls-7" x1="296.44" y1="248.1" x2="321.74" y2="248.1"/>
    <line class="cls-7" x1="227.03" y1="226.64" x2="237.54" y2="226.64"/>
    <polyline class="cls-3" points="218.7 228.55 220.49 231.66 220.49 221.61 222.29 224.81"/>
    <polyline class="cls-3" points="372.59 276.77 369.49 278.57 379.51 278.57 376.32 280.37"/>
    <line class="cls-7" x1="211.42" y1="226.64" x2="214.14" y2="226.64"/>
    <g>
      <path class="cls-27" d="M117.81,283.6h1.17v-1.94c0-.09.07-.16.16-.16h1.12c.09,0,.16.07.16.16v1.94h1.27v-1.94c0-.09.07-.16.16-.16h1.12c.09,0,.16.07.16.16v1.94h1.27v-1.94c0-.09.07-.16.16-.16h1.12c.09,0,.16.07.16.16v1.94h1.17v-3.16h-9.19v3.16Z"/>
      <path class="cls-27" d="M125.67,275.67c.09,0,.16.07.16.16v.42c.08-.01.17-.01.26,0,.08,0,.15.01.23.03l.69.15v-1.81h-9.19v3.16h1.17v-1.94c0-.09.07-.16.16-.16h1.12c.09,0,.16.07.16.16v1.94h1.27v-1.94c0-.09.07-.16.16-.16h1.12c.09,0,.16.07.16.16v1.94h1.27v-1.94c0-.09.07-.16.16-.16h1.12Z"/>
      <g>
        <path class="cls-27" d="M131.8,277.67c.76,0,1.38-.62,1.38-1.38s-.62-1.38-1.38-1.38-1.38.62-1.38,1.38.62,1.38,1.38,1.38Z"/>
        <path class="cls-27" d="M135.72,282.69s-.2-1.14-.45-2.09c-.29-1.11-1.25-2.01-1.43-2.17-.3-.25-.59-.36-.88-.36h-2.39l-4.42-.98c-.36-.07-.7.16-.77.51s.16.7.51.78l4.16.93.08,4.12s-.08,6.54-.08,6.54c0,.43.34.79.77.8,0,0,0,0,.01,0,.43,0,.78-.35.78-.78l.08-6.11h.21l.06,6.11c0,.43.35.78.78.78,0,0,0,0,0,0,.43,0,.78-.36.78-.79,0,0-.06-6.52-.06-6.55l.06-3.28c.21.27.39.55.45.79.24.9.43,1.97.43,1.98.06.32.33.54.65.54.04,0,.08,0,.11-.01.36-.06.6-.4.53-.76Z"/>
      </g>
      <path class="cls-27" d="M125.72,279.19c-.39-.08-.73-.31-.95-.64-.05-.08-.1-.16-.13-.24h-7.37v-4.25h10.27v2.48l1.6.36v-3.61c0-.44-.36-.8-.8-.8h-11.86c-.44,0-.8.36-.8.8v16.16c0,.44.36.8.8.8h.35v.5h1.78v-.5h7.6v.5h1.78v-.5h.35c.44,0,.8-.36.8-.8v-9.49l-3.42-.76ZM118.68,285.76h.52l-1.93,1.93v-.52l1.41-1.41ZM117.27,286.45v-.69h.69l-.69.69ZM124.64,288.38h-6.87l2.61-2.62h4.26v2.62ZM127.54,287.44h-1.97v-1.68h1.97v1.68ZM127.54,284.14h-10.27v-4.25h10.27v4.25Z"/>
    </g>
    <g>
      <path class="cls-27" d="M431.87,203.58h1.22v-2.02c0-.09.07-.16.16-.16h1.17c.09,0,.16.07.16.16v2.02h1.33v-2.02c0-.09.07-.16.16-.16h1.17c.09,0,.16.07.16.16v2.02h1.33v-2.02c0-.09.07-.16.16-.16h1.17c.09,0,.16.07.16.16v2.02h1.22v-3.3h-9.57v3.3Z"/>
      <path class="cls-27" d="M440.06,195.31c.09,0,.16.07.16.16v.44c.09-.01.18-.01.27-.01.08,0,.16.01.24.03l.72.16v-1.89h-9.57v3.3h1.22v-2.02c0-.09.07-.16.16-.16h1.17c.09,0,.16.07.16.16v2.02h1.33v-2.02c0-.09.07-.16.16-.16h1.17c.09,0,.16.07.16.16v2.02h1.33v-2.02c0-.09.07-.16.16-.16h1.17Z"/>
      <g>
        <path class="cls-27" d="M446.45,197.4c.79,0,1.44-.64,1.44-1.44s-.64-1.44-1.44-1.44-1.44.64-1.44,1.44.64,1.44,1.44,1.44Z"/>
        <path class="cls-27" d="M450.54,202.63s-.21-1.18-.47-2.18c-.31-1.15-1.3-2.1-1.49-2.26-.31-.27-.61-.38-.92-.38h-2.49l-4.6-1.03c-.37-.08-.73.17-.81.54s.16.73.54.81l4.33.97.08,4.29s-.08,6.82-.08,6.82c0,.45.35.82.81.83,0,0,0,0,.01,0,.45,0,.81-.36.82-.81l.08-6.37h.22l.07,6.37c0,.45.37.81.82.81,0,0,0,0,0,0,.45,0,.81-.38.81-.83,0,0-.06-6.8-.06-6.82l.07-3.41c.22.28.4.57.47.83.25.94.45,2.06.45,2.07.06.33.35.57.67.57.04,0,.08,0,.12-.01.37-.07.62-.42.56-.79Z"/>
      </g>
      <path class="cls-27" d="M440.11,198.99c-.41-.08-.76-.32-.99-.67-.05-.08-.1-.17-.14-.25h-7.68v-4.43h10.71v2.59l1.66.37v-3.76c0-.46-.38-.84-.83-.84h-12.37c-.46,0-.83.38-.83.84v16.84c0,.46.38.84.83.84h.37v.52h1.86v-.52h7.92v.52h1.86v-.52h.37c.46,0,.83-.38.83-.84v-9.89l-3.56-.79ZM432.78,205.83h.54l-2.01,2.01v-.54l1.47-1.47ZM431.31,206.55v-.72h.71l-.71.72ZM438.98,208.56h-7.16l2.72-2.73h4.44v2.73ZM442.01,207.58h-2.06v-1.75h2.06v1.75ZM442.01,204.14h-10.71v-4.43h10.71v4.43Z"/>
    </g>
    <g id="_交通機関案内" data-name="交通機関案内">
      <polygon class="cls-55" points="425.21 716.55 407.87 716.51 416.04 724.67 410.87 724.65 400.68 714.48 400.8 714.48 400.81 714.46 400.68 714.46 410.88 704.36 416.08 704.37 407.95 712.43 425.22 712.46 425.21 716.55 425.21 716.55"/>
    </g>
    <g>
      <text class="cls-17" transform="translate(267.92 285.8)"><tspan x="0" y="0">出口</tspan></text>
      <g id="_交通機関案内-2" data-name="交通機関案内">
        <polygon class="cls-43" points="263.1 278.45 263.09 284.72 266.03 281.77 266.02 283.64 262.36 287.32 262.36 287.28 262.35 287.27 262.35 287.32 258.71 283.63 258.71 281.75 261.62 284.69 261.63 278.45 263.1 278.45 263.1 278.45"/>
      </g>
    </g>
    <g>
      <text class="cls-25" transform="translate(336.75 207.28)"><tspan x="0" y="0">出口</tspan></text>
      <g id="_交通機関案内-3" data-name="交通機関案内">
        <polygon class="cls-43" points="331.93 199.94 331.92 206.2 334.86 203.25 334.85 205.12 331.19 208.8 331.19 208.76 331.18 208.76 331.18 208.8 327.54 205.12 327.54 203.24 330.45 206.18 330.46 199.94 331.93 199.94 331.93 199.94"/>
      </g>
    </g>
    <g>
      <text class="cls-23" transform="translate(322.04 261.6)"><tspan x="0" y="0">入口</tspan></text>
      <g id="_交通機関案内-4" data-name="交通機関案内">
        <polygon class="cls-54" points="319.91 259.3 312.56 259.29 316.02 262.75 313.83 262.75 309.51 258.42 309.56 258.42 309.57 258.42 309.51 258.42 313.84 254.12 316.04 254.13 312.59 257.55 319.92 257.56 319.91 259.3 319.91 259.3"/>
      </g>
    </g>
    <g>
      <text class="cls-26" transform="translate(412.2 117.34)"><tspan class="cls-47"><tspan x="0" y="0">講堂へは</tspan></tspan><tspan class="cls-12"><tspan x="0" y="8.39">２階へ</tspan></tspan></text>
      <rect class="cls-53" x="403.17" y="110.64" width="7.46" height="7.48" transform="translate(813.8 228.76) rotate(180)"/>
    </g>
    <g>
      <text class="cls-15" transform="translate(216.34 261.02)"><tspan x="0" y="0">食堂</tspan></text>
      <rect class="cls-53" x="209.22" y="255.82" width="5.88" height="5.9" transform="translate(424.33 517.54) rotate(180)"/>
    </g>
    <g>
      <text class="cls-16" transform="translate(412.22 103.31)"><tspan x="0" y="0">中学校舎</tspan></text>
      <rect class="cls-1" x="404.4" y="97.33" width="6.57" height="6.57"/>
    </g>
    <g>
      <text class="cls-16" transform="translate(412.22 92.86)"><tspan x="0" y="0">高校校舎</tspan></text>
      <rect class="cls-8" x="404.4" y="86.88" width="6.57" height="6.57"/>
    </g>
    <g>
      <g>
        <circle class="cls-57" cx="409.82" cy="139.99" r="6.74"/>
        <path class="cls-27" d="M413.62,136.77s0,0,0,0c-.5-.5-1.3-.87-1.85-.63-.4.17-.59.5-.56.93.03.44-.13.84-.46,1.13-.14.12-.28.18-.42.17-.02,0-.03,0-.05,0h0s0,0,0,0l-.29.29c-.13.13-.34.15-.49.04-1.01-.74-1.82-1.01-2.12-.71l-1.94,1.94c-.43.43.35,1.92,1.75,3.32,1.4,1.4,2.88,2.18,3.32,1.75l1.94-1.94c.3-.3.03-1.11-.71-2.12-.11-.15-.09-.36.04-.49l.29-.29s0,0,0,0c0-.02,0-.04,0-.06-.01-.14.05-.28.17-.42.29-.33.7-.49,1.13-.46.43.03.75-.16.93-.56.24-.55-.14-1.35-.64-1.86ZM409.36,144.19c-.55-.31-1.18-.8-1.77-1.39-.59-.59-1.09-1.22-1.39-1.77-.16-.28-.23-.47-.26-.6.13.03.32.11.6.26.55.31,1.18.8,1.77,1.39.59.59,1.08,1.22,1.39,1.77.16.28.23.47.26.6-.13-.03-.32-.11-.6-.26Z"/>
      </g>
      <text class="cls-40" transform="translate(418.53 138.91)"><tspan x="0" y="0">スタンプ</tspan><tspan x="0" y="7.02">設置箇所</tspan></text>
    </g>
    <g>
      <line class="cls-37" x1="219.35" y1="308.65" x2="219.35" y2="263.66"/>
      <polygon class="cls-44" points="221.4 306.99 221.03 306.65 219.35 308.46 217.67 306.65 217.31 306.99 219.35 309.19 221.4 306.99"/>
    </g>
    <rect class="cls-33" x="246.16" y="582.62" width="45.73" height="77.45"/>
    <g>
      <circle class="cls-57" cx="284.68" cy="148.84" r="6.36"/>
      <path class="cls-27" d="M288.27,145.81s0,0,0,0c-.47-.47-1.23-.82-1.74-.6-.37.16-.56.47-.53.88.03.41-.13.79-.43,1.07-.13.12-.26.17-.39.16-.02,0-.03,0-.05,0h0s0,0,0,0l-.28.28c-.12.12-.32.14-.46.04-.95-.7-1.72-.96-2-.67l-1.83,1.83c-.41.41.33,1.81,1.65,3.13,1.32,1.32,2.72,2.06,3.13,1.65l1.83-1.83c.28-.28.03-1.05-.67-2-.1-.14-.09-.34.04-.46l.28-.28s0,0,0,0c0-.02,0-.03,0-.05-.01-.13.04-.27.16-.4.28-.31.66-.46,1.07-.43.41.03.71-.16.88-.53.23-.52-.13-1.28-.6-1.75ZM284.25,152.81c-.52-.29-1.11-.76-1.67-1.31-.56-.56-1.02-1.15-1.31-1.67-.15-.26-.22-.44-.25-.56.12.03.3.1.56.25.52.29,1.11.76,1.67,1.31.56.56,1.02,1.15,1.31,1.67.15.26.22.44.25.56-.12-.03-.3-.1-.56-.25Z"/>
    </g>
  </g>
  <g id="_1F" data-name="1F">
    <g>
      <ellipse class="cls-39" cx="421.49" cy="56.86" rx="19.57" ry="19.62"/>
      <text class="cls-28" transform="translate(407.77 67.59)"><tspan class="cls-51" x="0" y="0">1</tspan><tspan class="cls-49" x="16.21" y=".57">F</tspan></text>
    </g>
  </g>
</svg>