<?xml version="1.0" encoding="UTF-8"?>
<svg xmlns="http://www.w3.org/2000/svg" viewBox="0 0 575.55 736.62">
  <defs>
    <style>
      .cls-1 {
        stroke-width: .25px;
      }

      .cls-1, .cls-2, .cls-3, .cls-4, .cls-5, .cls-6, .cls-7, .cls-8, .cls-9, .cls-10, .cls-11, .cls-12 {
        stroke-miterlimit: 10;
      }

      .cls-1, .cls-3 {
        fill: #865498;
      }

      .cls-1, .cls-3, .cls-4, .cls-5, .cls-6, .cls-7, .cls-8, .cls-9, .cls-10, .cls-11 {
        stroke: #231815;
      }

      .cls-13, .cls-14 {
        letter-spacing: -.02em;
      }

      .cls-15 {
        font-size: 8.03px;
        letter-spacing: -.01em;
      }

      .cls-15, .cls-16, .cls-17, .cls-18, .cls-19, .cls-20 {
        font-family: HeiseiKakuGoStd-W7-90ms-RKSJ-H, 'Heisei Kaku Gothic Std';
      }

      .cls-15, .cls-21, .cls-19, .cls-22, .cls-10, .cls-20 {
        fill: #fff;
      }

      .cls-16 {
        font-size: 7.08px;
        letter-spacing: -.01em;
      }

      .cls-16, .cls-17, .cls-23, .cls-24 {
        fill: #231815;
      }

      .cls-2 {
        stroke: #c30d23;
        stroke-width: 2px;
      }

      .cls-2, .cls-4, .cls-5, .cls-6, .cls-9, .cls-11, .cls-12 {
        fill: none;
      }

      .cls-25 {
        fill: #515151;
      }

      .cls-26 {
        fill: #c30d23;
        font-family: 'UDKakugo_LargePr6N-B-90ms-RKSJ-H', 'FOT-UDKakugo_Large Pr6N';
        font-size: 8.19px;
      }

      .cls-4 {
        stroke-dasharray: 2.93 2.93;
      }

      .cls-4, .cls-5, .cls-6, .cls-11 {
        stroke-width: .5px;
      }

      .cls-6 {
        stroke-linecap: round;
      }

      .cls-7 {
        fill: #4969aa;
      }

      .cls-17 {
        font-size: 6px;
        letter-spacing: -.01em;
      }

      .cls-27 {
        letter-spacing: -.05em;
      }

      .cls-18 {
        font-size: 6.96px;
        letter-spacing: -.01em;
      }

      .cls-28 {
        font-size: 8.54px;
        letter-spacing: -.14em;
      }

      .cls-8 {
        fill: #727171;
      }

      .cls-29 {
        font-size: 20.81px;
      }

      .cls-30 {
        font-size: 33.35px;
        letter-spacing: -.05em;
      }

      .cls-31, .cls-22, .cls-14 {
        font-family: MyriadPro-Semibold, 'Myriad Pro';
        font-weight: 600;
      }

      .cls-31, .cls-14 {
        font-size: 15.14px;
      }

      .cls-19 {
        font-size: 9.48px;
        letter-spacing: -.01em;
      }

      .cls-24 {
        font-family: MOBO-Bold, 'MOBO Bold-90ms-RKSJ-H';
        font-size: 6.53px;
        font-weight: 700;
        letter-spacing: -.05em;
      }

      .cls-32 {
        fill: #dbdbdb;
      }

      .cls-33 {
        fill: #9d1f24;
      }

      .cls-34 {
        font-size: 7.76px;
        letter-spacing: -.01em;
      }

      .cls-11 {
        stroke-dasharray: 2.98 2.98;
      }

      .cls-35 {
        fill: #424142;
        fill-rule: evenodd;
      }

      .cls-12 {
        stroke: #515151;
        stroke-width: .75px;
      }
    </style>
  </defs>
  <g id="_最背景_灰色_" data-name="最背景(灰色)">
    <rect class="cls-32" x="71.92" y="20.49" width="352.53" height="290.15"/>
  </g>
  <g id="_路の背景_白_" data-name="路の背景(白)">
    <polygon class="cls-21" points="363.53 163.12 363.53 152.76 355.23 152.76 355.23 53.97 355.52 53.97 355.52 26.5 140.29 26.5 133.42 26.5 124.51 26.5 124.51 26.69 116.04 26.69 116.04 90.75 116.04 91.97 116.04 100.97 131.65 100.97 131.65 91.97 131.91 91.97 131.91 65.74 140.29 65.74 140.29 53.97 339.45 53.97 339.45 95.05 308 95.05 308 200.8 347.96 200.8 347.96 200.8 384.56 200.8 384.56 182.15 418.65 182.15 418.65 163.12 363.53 163.12"/>
    <polygon class="cls-21" points="192.18 229.77 192.18 211.66 177.13 211.66 177.13 281.77 185.81 281.77 192.18 281.77 208.57 281.77 208.57 229.77 192.18 229.77"/>
  </g>
  <g id="_枠本体" data-name="枠本体">
    <rect class="cls-3" x="131.65" y="42.42" width="31.42" height="26.34"/>
    <rect class="cls-3" x="163.07" y="42.42" width="31.42" height="26.34"/>
    <rect class="cls-3" x="194.49" y="42.42" width="31.42" height="26.34"/>
    <g>
      <line class="cls-5" x1="208.63" y1="271.09" x2="210.13" y2="271.09"/>
      <line class="cls-11" x1="213.11" y1="271.09" x2="360.58" y2="271.09"/>
      <polyline class="cls-5" points="362.07 271.09 363.57 271.09 363.57 269.59"/>
      <line class="cls-4" x1="363.57" y1="266.66" x2="363.57" y2="203.77"/>
      <line class="cls-5" x1="363.57" y1="202.3" x2="363.57" y2="200.8"/>
    </g>
    <rect class="cls-3" x="225.91" y="42.42" width="31.42" height="26.34"/>
    <rect class="cls-3" x="308" y="68.76" width="31.42" height="26.34"/>
    <rect class="cls-3" x="308" y="95.1" width="31.42" height="26.34"/>
    <rect class="cls-3" x="308" y="121.43" width="31.42" height="26.34"/>
    <rect class="cls-3" x="308" y="147.9" width="31.42" height="26.34"/>
    <rect class="cls-3" x="308" y="174.47" width="31.42" height="26.34"/>
    <rect class="cls-3" x="257.33" y="42.42" width="31.42" height="26.34"/>
    <rect class="cls-10" x="288.75" y="52.88" width="24.56" height="15.75"/>
    <polyline class="cls-3" points="370.92 163.3 418.4 163.3 418.4 200.8 370.92 200.8"/>
    <polyline class="cls-8" points="116.04 79.33 87.06 79.33 87.06 59.4 116.04 59.4"/>
    <polyline class="cls-8" points="339.77 68.64 313.3 68.64 313.3 52.88 339.77 52.88"/>
    <polyline class="cls-8" points="370.92 179.43 370.92 200.8 355.62 200.8 355.62 179.43"/>
    <polyline class="cls-7" points="355.24 42.3 355.24 26.5 313.3 26.5 313.3 42.3"/>
    <polyline class="cls-7" points="208.57 260.56 218.63 260.56 218.63 244.38 208.57 244.38"/>
    <line class="cls-9" x1="339.42" y1="200.8" x2="355.62" y2="200.8"/>
    <rect class="cls-3" x="133.5" y="244.27" width="43.64" height="37.51"/>
    <rect class="cls-3" x="133.5" y="211.66" width="43.64" height="32.6"/>
    <rect class="cls-3" x="133.5" y="169.34" width="58.68" height="42.32"/>
    <polyline class="cls-8" points="208.63 260.4 208.63 281.78 193.33 281.78 193.33 260.4"/>
    <line class="cls-9" x1="177.13" y1="281.78" x2="193.33" y2="281.78"/>
    <line class="cls-9" x1="131.65" y1="68.76" x2="131.65" y2="91.97"/>
    <line class="cls-9" x1="116.04" y1="78.91" x2="116.04" y2="91.97"/>
    <line class="cls-9" x1="192.18" y1="211.66" x2="192.18" y2="229.38"/>
  </g>
  <g id="_文字_ピクトグラム" data-name="文字・ピクトグラム">
    <g id="_女子" data-name="女子">
      <path d="M138.95,666.97c-3.75,0-6.8-3.05-6.8-6.8s3.05-6.8,6.8-6.8,6.8,3.05,6.8,6.8-3.05,6.8-6.8,6.8Z"/>
      <path d="M153.35,700.57l-7-15.27c-.02-.26-.05-.51-.09-.77l2.85-11.59c.13-1.5-.99-2.72-2.49-2.72h-15.33c-1.5,0-2.62,1.22-2.49,2.72l2.85,11.59c-.04.25-.07.51-.09.77l-7,15.27c-.19,2.12,1.4,3.86,3.53,3.86h6.23l1.61,26.18c.05,1.42,1.26,2.58,2.68,2.58h.68c1.42,0,2.63-1.16,2.68-2.58l1.61-26.18h6.23c2.13,0,3.72-1.73,3.53-3.86Z"/>
    </g>
    <g id="EV">
      <path d="M250.06,667.95v68.68h67.62v-68.68h-67.62ZM311.18,730.12h-54.61v-55.67h54.61v55.67Z"/>
      <path d="M289.51,690.28c0,3.11-2.52,5.64-5.64,5.64s-5.64-2.52-5.64-5.64,2.53-5.64,5.64-5.64,5.64,2.52,5.64,5.64Z"/>
      <path d="M288.34,724.9c-.09,2.07-1.86,3.76-3.92,3.76h-1.1c-2.07,0-3.83-1.69-3.92-3.76l-1-22.94c-.09-2.07,1.53-3.76,3.6-3.76h3.76c2.07,0,3.69,1.69,3.6,3.76l-1,22.94Z"/>
      <path d="M272.55,690.28c0,3.11-2.52,5.64-5.64,5.64s-5.64-2.52-5.64-5.64,2.52-5.64,5.64-5.64,5.64,2.52,5.64,5.64Z"/>
      <path d="M271.38,724.9c-.09,2.07-1.86,3.76-3.92,3.76h-1.1c-2.07,0-3.83-1.69-3.92-3.76l-1-22.94c-.09-2.07,1.53-3.76,3.6-3.76h3.76c2.07,0,3.69,1.69,3.6,3.76l-1,22.94Z"/>
      <path d="M306.47,690.28c0,3.11-2.52,5.64-5.64,5.64s-5.64-2.52-5.64-5.64,2.52-5.64,5.64-5.64,5.64,2.52,5.64,5.64Z"/>
      <path d="M305.3,724.9c-.09,2.07-1.86,3.76-3.92,3.76h-1.1c-2.07,0-3.83-1.69-3.92-3.76l-1-22.94c-.09-2.07,1.53-3.76,3.6-3.76h3.76c2.07,0,3.69,1.69,3.6,3.76l-1,22.94Z"/>
      <g>
        <polygon points="265.46 662.13 265.46 645.62 260.72 650.36 255.79 645.43 268.92 632.31 269.46 632.85 282.07 645.46 277.14 650.38 272.43 645.67 272.43 662.13 265.46 662.13"/>
        <polygon points="298.28 661.89 285.68 649.29 290.61 644.36 295.32 649.07 295.32 632.61 302.28 632.61 302.28 649.13 307.02 644.39 311.95 649.32 298.82 662.44 298.28 661.89"/>
      </g>
    </g>
    <g id="_男子" data-name="男子">
      <circle cx="95" cy="660.17" r="6.8"/>
      <path d="M103.17,670.23h-16.34c-1.66,0-2.99,1.36-2.96,3.02l.76,27.66c.02,1.02.98,1.62,1.88,1.84l2.76.89,1.22,26.85c.07,1.5,1.66,2.69,3.56,2.69h1.9c1.9,0,3.49-1.19,3.56-2.69l1.22-26.85,2.76-.89c.9-.23,1.86-.82,1.88-1.84l.76-27.66c.03-1.66-1.3-3.02-2.96-3.02Z"/>
    </g>
    <g id="_階段" data-name="階段">
      <polygon points="166.37 718.98 166.37 704.86 181.41 704.86 181.41 695.66 196.46 695.66 196.46 686.5 211.51 686.5 211.51 677.36 227.76 677.36 227.76 682.28 216.43 682.28 216.43 691.42 201.38 691.42 201.38 700.58 186.34 700.58 186.34 709.78 171.29 709.78 171.29 718.98 166.37 718.98"/>
      <g>
        <polygon points="187.78 664.19 176.51 675.46 176.51 670.31 171.23 670.31 171.23 684.47 185.39 684.47 185.39 679.19 180.24 679.19 191.51 667.92 187.78 664.19"/>
        <polygon points="208.74 703.96 208.74 709.24 213.88 709.24 202.61 720.5 206.35 724.24 217.62 712.97 217.62 718.11 222.89 718.11 222.89 703.96 208.74 703.96"/>
      </g>
    </g>
    <text class="cls-21" transform="translate(140.66 51.81)"><tspan class="cls-18"><tspan x="0" y="0">中学</tspan></tspan><tspan class="cls-14"><tspan x="1.05" y="13.51">1I</tspan></tspan></text>
    <text class="cls-21" transform="translate(171.88 51.81)"><tspan class="cls-18"><tspan x="0" y="0">中学</tspan></tspan><tspan class="cls-31"><tspan class="cls-27" x="-1.85" y="13.51">1</tspan><tspan class="cls-13" x="5.51" y="13.51">H</tspan></tspan></text>
    <text class="cls-21" transform="translate(203.3 51.81)"><tspan class="cls-18"><tspan x="0" y="0">中学</tspan></tspan><tspan class="cls-14"><tspan x="-2" y="13.51">1G</tspan></tspan></text>
    <text class="cls-21" transform="translate(234.72 51.81)"><tspan class="cls-18"><tspan x="0" y="0">中学</tspan></tspan><tspan class="cls-14"><tspan x="-.81" y="13.51">1F</tspan></tspan></text>
    <text class="cls-21" transform="translate(316.82 78.15)"><tspan class="cls-18"><tspan x="0" y="0">中学</tspan></tspan><tspan class="cls-14"><tspan x="-.85" y="13.51">1E</tspan></tspan></text>
    <text class="cls-21" transform="translate(316.82 104.48)"><tspan class="cls-18"><tspan x="0" y="0">中学</tspan></tspan><tspan class="cls-14"><tspan x="-2.13" y="13.51">1D</tspan></tspan></text>
    <text class="cls-21" transform="translate(316.82 130.82)"><tspan class="cls-18"><tspan x="0" y="0">中学</tspan></tspan><tspan class="cls-14"><tspan x="-1.41" y="13.51">1C</tspan></tspan></text>
    <text class="cls-21" transform="translate(316.82 157.29)"><tspan class="cls-18"><tspan x="0" y="0">中学</tspan></tspan><tspan class="cls-14"><tspan x="-1.32" y="13.51">1B</tspan></tspan></text>
    <text class="cls-21" transform="translate(316.82 183.85)"><tspan class="cls-18"><tspan x="0" y="0">中学</tspan></tspan><tspan class="cls-14"><tspan x="-1.77" y="13.51">1A</tspan></tspan></text>
    <text class="cls-15" transform="translate(374.83 185.07)"><tspan x="0" y="0">高校美術室</tspan></text>
    <g id="_階段-2" data-name="階段">
      <polygon class="cls-21" points="321.02 65.76 321.02 62.91 323.72 62.91 323.72 61.05 326.43 61.05 326.43 59.2 329.14 59.2 329.14 57.36 332.06 57.36 332.06 58.35 330.02 58.35 330.02 60.2 327.31 60.2 327.31 62.05 324.61 62.05 324.61 63.9 321.9 63.9 321.9 65.76 321.02 65.76"/>
      <g>
        <polygon class="cls-21" points="324.87 54.7 322.84 56.98 322.84 55.94 321.89 55.94 321.89 58.79 324.44 58.79 324.44 57.73 323.51 57.73 325.54 55.45 324.87 54.7"/>
        <polygon class="cls-21" points="328.64 62.73 328.64 63.79 329.56 63.79 327.54 66.07 328.21 66.82 330.23 64.55 330.23 65.58 331.18 65.58 331.18 62.73 328.64 62.73"/>
      </g>
    </g>
    <g id="_階段-3" data-name="階段">
      <polygon class="cls-21" points="95.4 74.93 95.4 71.76 98.41 71.76 98.41 69.69 101.43 69.69 101.43 67.63 104.44 67.63 104.44 65.58 107.7 65.58 107.7 66.69 105.43 66.69 105.43 68.74 102.41 68.74 102.41 70.8 99.4 70.8 99.4 72.87 96.38 72.87 96.38 74.93 95.4 74.93"/>
      <g>
        <polygon class="cls-21" points="99.69 62.62 97.43 65.15 97.43 64 96.37 64 96.37 67.18 99.21 67.18 99.21 65.99 98.18 65.99 100.44 63.46 99.69 62.62"/>
        <polygon class="cls-21" points="103.89 71.56 103.89 72.74 104.92 72.74 102.66 75.28 103.41 76.12 105.67 73.58 105.67 74.74 106.72 74.74 106.72 71.56 103.89 71.56"/>
      </g>
    </g>
    <g id="_階段-4" data-name="階段">
      <polygon class="cls-21" points="357.99 194.22 357.99 191.73 360.63 191.73 360.63 190.12 363.27 190.12 363.27 188.51 365.91 188.51 365.91 186.9 368.76 186.9 368.76 187.76 366.77 187.76 366.77 189.37 364.13 189.37 364.13 190.98 361.49 190.98 361.49 192.6 358.85 192.6 358.85 194.22 357.99 194.22"/>
      <g>
        <polygon class="cls-21" points="361.75 184.58 359.77 186.56 359.77 185.66 358.84 185.66 358.84 188.15 361.33 188.15 361.33 187.22 360.42 187.22 362.4 185.24 361.75 184.58"/>
        <polygon class="cls-21" points="365.42 191.58 365.42 192.5 366.33 192.5 364.35 194.49 365 195.14 366.98 193.16 366.98 194.07 367.91 194.07 367.91 191.58 365.42 191.58"/>
      </g>
    </g>
    <g id="_男子-2" data-name="男子">
      <circle class="cls-21" cx="334.48" cy="29.37" r="1.03"/>
      <path class="cls-21" d="M335.72,30.89h-2.48c-.25,0-.45.21-.45.46l.11,4.21c0,.16.15.25.29.28l.42.14.19,4.08c.01.23.25.41.54.41h.29c.29,0,.53-.18.54-.41l.19-4.08.42-.14c.14-.03.28-.12.29-.28l.11-4.21c0-.25-.2-.46-.45-.46Z"/>
    </g>
    <g id="_男子-3" data-name="男子">
      <circle class="cls-21" cx="213.6" cy="247.44" r="1.03"/>
      <path class="cls-21" d="M214.84,248.96h-2.48c-.25,0-.45.21-.45.46l.11,4.21c0,.16.15.25.29.28l.42.14.19,4.08c.01.23.25.41.54.41h.29c.29,0,.53-.18.54-.41l.19-4.08.42-.14c.14-.03.28-.12.29-.28l.11-4.21c0-.25-.2-.46-.45-.46Z"/>
    </g>
    <g>
      <polyline class="cls-8" points="354.47 163.3 370.86 163.3 370.86 147.82 354.47 147.82"/>
      <g id="EV-2" data-name="EV">
        <path class="cls-21" d="M358.8,153.86v7.97h8.18v-7.97h-8.18ZM366.19,161.07h-6.6v-6.46h6.6v6.46Z"/>
        <path class="cls-21" d="M363.57,156.45c0,.36-.31.65-.68.65s-.68-.29-.68-.65.31-.65.68-.65.68.29.68.65Z"/>
        <path class="cls-21" d="M363.43,160.47c-.01.24-.22.44-.47.44h-.13c-.25,0-.46-.2-.47-.44l-.12-2.66c-.01-.24.18-.44.43-.44h.45c.25,0,.45.2.43.44l-.12,2.66Z"/>
        <path class="cls-21" d="M361.52,156.45c0,.36-.31.65-.68.65s-.68-.29-.68-.65.31-.65.68-.65.68.29.68.65Z"/>
        <path class="cls-21" d="M361.37,160.47c-.01.24-.22.44-.47.44h-.13c-.25,0-.46-.2-.47-.44l-.12-2.66c-.01-.24.18-.44.43-.44h.45c.25,0,.45.2.43.44l-.12,2.66Z"/>
        <path class="cls-21" d="M365.62,156.45c0,.36-.31.65-.68.65s-.68-.29-.68-.65.31-.65.68-.65.68.29.68.65Z"/>
        <path class="cls-21" d="M365.48,160.47c-.01.24-.22.44-.47.44h-.13c-.25,0-.46-.2-.47-.44l-.12-2.66c-.01-.24.18-.44.43-.44h.45c.25,0,.45.2.43.44l-.12,2.66Z"/>
        <g>
          <polygon class="cls-21" points="360.66 153.18 360.66 151.26 360.08 151.81 359.49 151.24 361.08 149.72 361.14 149.78 362.67 151.25 362.07 151.82 361.5 151.27 361.5 153.18 360.66 153.18"/>
          <polygon class="cls-21" points="364.63 153.15 363.1 151.69 363.7 151.12 364.27 151.66 364.27 149.75 365.11 149.75 365.11 151.67 365.68 151.12 366.28 151.69 364.69 153.22 364.63 153.15"/>
        </g>
      </g>
    </g>
    <text class="cls-19" transform="translate(136.59 263.02)"><tspan x="0" y="0">中学第一</tspan><tspan x="4.68" y="9.48">音楽室</tspan></text>
    <text class="cls-19" transform="translate(136.59 227.29)"><tspan x="0" y="0">中学第二</tspan><tspan x="4.68" y="9.48">音楽室</tspan></text>
    <text class="cls-19" transform="translate(139.45 194.4)"><tspan x="0" y="0">高校音楽室</tspan></text>
    <g id="_階段-5" data-name="階段">
      <polygon class="cls-21" points="195.7 275.19 195.7 272.71 198.34 272.71 198.34 271.09 200.98 271.09 200.98 269.48 203.62 269.48 203.62 267.87 206.47 267.87 206.47 268.74 204.48 268.74 204.48 270.34 201.84 270.34 201.84 271.95 199.2 271.95 199.2 273.57 196.56 273.57 196.56 275.19 195.7 275.19"/>
      <g>
        <polygon class="cls-21" points="199.46 265.55 197.48 267.54 197.48 266.63 196.55 266.63 196.55 269.12 199.04 269.12 199.04 268.19 198.13 268.19 200.11 266.21 199.46 265.55"/>
        <polygon class="cls-21" points="203.13 272.55 203.13 273.48 204.04 273.48 202.06 275.46 202.71 276.11 204.69 274.13 204.69 275.04 205.62 275.04 205.62 272.55 203.13 272.55"/>
      </g>
    </g>
    <g>
      <polyline class="cls-8" points="192.18 244.27 208.57 244.27 208.57 228.79 192.18 228.79"/>
      <g id="EV-3" data-name="EV">
        <path class="cls-21" d="M196.51,234.83v7.97h8.18v-7.97h-8.18ZM203.9,242.04h-6.6v-6.46h6.6v6.46Z"/>
        <path class="cls-21" d="M201.28,237.42c0,.36-.31.65-.68.65s-.68-.29-.68-.65.31-.65.68-.65.68.29.68.65Z"/>
        <path class="cls-21" d="M201.13,241.44c-.01.24-.22.44-.47.44h-.13c-.25,0-.46-.2-.47-.44l-.12-2.66c-.01-.24.18-.44.43-.44h.45c.25,0,.45.2.43.44l-.12,2.66Z"/>
        <path class="cls-21" d="M199.23,237.42c0,.36-.31.65-.68.65s-.68-.29-.68-.65.31-.65.68-.65.68.29.68.65Z"/>
        <path class="cls-21" d="M199.08,241.44c-.01.24-.22.44-.47.44h-.13c-.25,0-.46-.2-.47-.44l-.12-2.66c-.01-.24.18-.44.43-.44h.45c.25,0,.45.2.43.44l-.12,2.66Z"/>
        <path class="cls-21" d="M203.33,237.42c0,.36-.31.65-.68.65s-.68-.29-.68-.65.31-.65.68-.65.68.29.68.65Z"/>
        <path class="cls-21" d="M203.19,241.44c-.01.24-.22.44-.47.44h-.13c-.25,0-.46-.2-.47-.44l-.12-2.66c-.01-.24.18-.44.43-.44h.45c.25,0,.45.2.43.44l-.12,2.66Z"/>
        <g>
          <polygon class="cls-21" points="198.37 234.15 198.37 232.24 197.79 232.79 197.2 232.21 198.79 230.69 198.85 230.75 200.38 232.22 199.78 232.79 199.21 232.24 199.21 234.15 198.37 234.15"/>
          <polygon class="cls-21" points="202.34 234.12 200.81 232.66 201.41 232.09 201.98 232.64 201.98 230.73 202.82 230.73 202.82 232.64 203.39 232.09 203.99 232.67 202.4 234.19 202.34 234.12"/>
        </g>
      </g>
    </g>
    <g>
      <g>
        <path d="M59.98,677.87c-2.71,0-5.02-.95-6.68-2.74-1.67-1.8-2.55-4.33-2.56-7.32,0-2.99.9-5.53,2.56-7.33,1.66-1.79,3.97-2.74,6.68-2.74,3.24,0,5.93,1.45,7.21,3.89l.18.35-3.86,1.94-.2-.21c-.76-.82-1.92-1.35-2.96-1.35-2.63,0-4.33,2.14-4.34,5.46.01,3.31,1.72,5.46,4.34,5.46,1.04,0,2.2-.53,2.96-1.35l.2-.21,3.86,1.94-.18.35c-1.28,2.43-3.97,3.89-7.21,3.89Z"/>
        <polygon points="43.25 657.72 40.09 669.4 36.93 657.72 32.52 657.72 29.36 669.4 26.2 657.72 21.61 657.72 27.06 677.88 31.66 677.88 34.73 666.55 37.79 677.88 42.39 677.88 47.85 657.72 43.25 657.72"/>
      </g>
      <g>
        <path d="M51.44,723.76c-2.29,3.57-6.29,5.94-10.84,5.94-7.1,0-12.87-5.77-12.87-12.87,0-5.39,3.34-10.02,8.05-11.93v-4.68c-7.2,2.09-12.48,8.75-12.48,16.62,0,9.54,7.76,17.3,17.3,17.3,6.56,0,12.28-3.67,15.21-9.06l-4.37-1.31Z"/>
        <path d="M47.23,690.89c0,2.55-2.06,4.61-4.61,4.61s-4.61-2.06-4.61-4.61,2.06-4.61,4.61-4.61,4.61,2.06,4.61,4.61Z"/>
        <path d="M65.08,722.73l-5.98-8.12c-.59-.8-1.52-1.27-2.51-1.27h-9.9v-12.73c0-2.11-1.72-3.83-3.83-3.83h-.48c-2.11,0-3.83,1.72-3.83,3.83v15.12c0,1.05.43,2.01,1.12,2.7.57.69,1.44,1.13,2.4,1.13h12.94l5.04,6.85c.61.83,1.55,1.27,2.51,1.27.64,0,1.29-.2,1.84-.61,1.38-1.02,1.68-2.97.66-4.35Z"/>
      </g>
    </g>
    <polyline class="cls-9" points="116.04 59.78 116.04 26.69 355.26 26.47 354.97 147.85 370.93 147.79 370.91 163.3 418.4 163.3"/>
    <g id="_交通機関案内" data-name="交通機関案内">
      <polygon class="cls-35" points="390.49 705.99 373.15 705.96 381.31 714.11 376.14 714.1 365.96 703.92 366.07 703.92 366.08 703.91 365.96 703.91 376.16 693.8 381.36 693.82 373.22 701.87 390.5 701.91 390.49 705.99 390.49 705.99"/>
    </g>
    <g>
      <text class="cls-16" transform="translate(376.22 78.8)"><tspan x="0" y="0">中学校舎</tspan></text>
      <rect class="cls-1" x="368.4" y="72.83" width="6.57" height="6.57"/>
    </g>
    <g>
      <text class="cls-16" transform="translate(94.88 221.64)"><tspan x="0" y="0">中学校舎</tspan></text>
      <rect class="cls-1" x="87.06" y="215.66" width="6.57" height="6.57"/>
    </g>
    <text class="cls-20" transform="translate(264.43 53.96)"><tspan class="cls-28" x="0" y="0">４</tspan><tspan class="cls-34" x="7.34" y="-.29">階 </tspan><tspan class="cls-34"><tspan x="-2.92" y="10.19">学習室</tspan></tspan></text>
    <g>
      <line class="cls-2" x1="118.74" y1="99.51" x2="128.95" y2="89.3"/>
      <line class="cls-2" x1="128.95" y1="99.51" x2="118.74" y2="89.3"/>
    </g>
    <text class="cls-26" transform="translate(107.46 111.37)"><tspan x="0" y="0">立入禁止</tspan></text>
    <text class="cls-17" transform="translate(84.48 87.14)"><tspan x="0" y="0">この階まで</tspan></text>
    <text class="cls-17" transform="translate(262 78.15)"><tspan x="0" y="0">この階まで</tspan></text>
    <text class="cls-17" transform="translate(186.46 290.35)"><tspan x="0" y="0">この階まで</tspan></text>
    <g id="_装飾のボード" data-name="装飾のボード">
      <polyline class="cls-6" points="292.78 75.67 304.07 62.18 312.56 62.26"/>
    </g>
    <g>
      <polyline class="cls-12" points="395.99 153.22 379.13 153.22 371.05 166.74"/>
      <path class="cls-25" d="M369.41,165.64c-.56.94-.25,2.15.68,2.71.94.56,2.15.25,2.71-.68.56-.94.25-2.15-.68-2.71-.94-.56-2.15-.25-2.71.68Z"/>
    </g>
    <g>
      <circle class="cls-33" cx="123.84" cy="78.15" r="6.36"/>
      <path class="cls-21" d="M127.43,75.11s0,0,0,0c-.47-.47-1.23-.82-1.74-.6-.37.16-.56.47-.53.88.03.41-.13.79-.43,1.07-.13.12-.26.17-.39.16-.02,0-.03,0-.05,0h0s0,0,0,0l-.28.28c-.12.12-.32.14-.46.04-.95-.7-1.72-.96-2-.67l-1.83,1.83c-.41.41.33,1.81,1.65,3.13,1.32,1.32,2.72,2.06,3.13,1.65l1.83-1.83c.28-.28.03-1.05-.67-2-.1-.14-.09-.34.04-.46l.28-.28s0,0,0,0c0-.02,0-.03,0-.05-.01-.13.04-.27.16-.4.28-.31.66-.46,1.07-.43.41.03.71-.16.88-.53.23-.52-.13-1.28-.6-1.75ZM123.41,82.11c-.52-.29-1.11-.76-1.67-1.31-.56-.56-1.02-1.15-1.31-1.67-.15-.26-.22-.44-.25-.56.12.03.3.1.56.25.52.29,1.11.76,1.67,1.31.56.56,1.02,1.15,1.31,1.67.15.26.22.44.25.56-.12-.03-.3-.1-.56-.25Z"/>
    </g>
    <g>
      <circle class="cls-33" cx="400.91" cy="153.18" r="6.36"/>
      <path class="cls-21" d="M404.5,150.15s0,0,0,0c-.47-.47-1.23-.82-1.74-.6-.37.16-.56.47-.53.88.03.41-.13.79-.43,1.07-.13.12-.26.17-.39.16-.02,0-.03,0-.05,0h0s0,0,0,0l-.28.28c-.12.12-.32.14-.46.04-.95-.7-1.72-.96-2-.67l-1.83,1.83c-.41.41.33,1.81,1.65,3.13,1.32,1.32,2.72,2.06,3.13,1.65l1.83-1.83c.28-.28.03-1.05-.67-2-.1-.14-.09-.34.04-.46l.28-.28s0,0,0,0c0-.02,0-.03,0-.05-.01-.13.04-.27.16-.4.28-.31.66-.46,1.07-.43.41.03.71-.16.88-.53.23-.52-.13-1.28-.6-1.75ZM400.48,157.15c-.52-.29-1.11-.76-1.67-1.31-.56-.56-1.02-1.15-1.31-1.67-.15-.26-.22-.44-.25-.56.12.03.3.1.56.25.52.29,1.11.76,1.67,1.31.56.56,1.02,1.15,1.31,1.67.15.26.22.44.25.56-.12-.03-.3-.1-.56-.25Z"/>
    </g>
    <g>
      <g>
        <circle class="cls-33" cx="374.61" cy="90.6" r="6.74"/>
        <path class="cls-21" d="M378.42,87.38s0,0,0,0c-.5-.5-1.3-.87-1.85-.63-.4.17-.59.5-.56.93.03.44-.13.84-.46,1.13-.14.12-.28.18-.42.17-.02,0-.03,0-.05,0h0s0,0,0,0l-.29.29c-.13.13-.34.15-.49.04-1.01-.74-1.82-1.01-2.12-.71l-1.94,1.94c-.43.43.35,1.92,1.75,3.32,1.4,1.4,2.88,2.18,3.32,1.75l1.94-1.94c.3-.3.03-1.11-.71-2.12-.11-.15-.09-.36.04-.49l.29-.29s0,0,0,0c0-.02,0-.04,0-.06-.01-.14.05-.28.17-.42.29-.33.7-.49,1.13-.46.43.03.75-.16.93-.56.24-.55-.14-1.35-.64-1.86ZM374.15,94.8c-.55-.31-1.18-.8-1.77-1.39-.59-.59-1.09-1.22-1.39-1.77-.16-.28-.23-.47-.26-.6.13.03.32.11.6.26.55.31,1.18.8,1.77,1.39.59.59,1.08,1.22,1.39,1.77.16.28.23.47.26.6-.13-.03-.32-.11-.6-.26Z"/>
      </g>
      <text class="cls-24" transform="translate(383.33 89.52)"><tspan x="0" y="0">スタンプ</tspan><tspan x="0" y="7.02">設置箇所</tspan></text>
    </g>
  </g>
  <g id="_1F" data-name="1F">
    <g>
      <ellipse class="cls-23" cx="386.76" cy="46.3" rx="19.57" ry="19.62"/>
      <text class="cls-22" transform="translate(374.05 57.03)"><tspan class="cls-30" x="0" y="0">4</tspan><tspan class="cls-29" x="16.21" y=".57">F</tspan></text>
    </g>
    <g>
      <ellipse class="cls-23" cx="105.14" cy="188.66" rx="19.57" ry="19.62"/>
      <text class="cls-22" transform="translate(92.42 199.39)"><tspan class="cls-30" x="0" y="0">5</tspan><tspan class="cls-29" x="16.21" y=".57">F</tspan></text>
    </g>
  </g>
</svg>