<?xml version="1.0" encoding="UTF-8"?>
<svg xmlns="http://www.w3.org/2000/svg" viewBox="0 0 575.55 736.62">
  <defs>
    <style>
      .cls-1, .cls-2, .cls-3, .cls-4, .cls-5, .cls-6, .cls-7, .cls-8, .cls-9, .cls-10, .cls-11, .cls-12, .cls-13 {
        stroke: #231815;
      }

      .cls-1, .cls-3 {
        fill: #865498;
      }

      .cls-1, .cls-3, .cls-4, .cls-5, .cls-6, .cls-8, .cls-9, .cls-10, .cls-12, .cls-13 {
        stroke-miterlimit: 10;
      }

      .cls-1, .cls-9 {
        stroke-width: .25px;
      }

      .cls-14, .cls-15 {
        letter-spacing: -.02em;
      }

      .cls-16 {
        font-size: 5.34px;
        letter-spacing: -.01em;
      }

      .cls-16, .cls-17, .cls-18, .cls-19, .cls-20, .cls-21 {
        font-family: HeiseiKakuGoStd-W7-90ms-RKSJ-H, 'Heisei Kaku Gothic Std';
      }

      .cls-2, .cls-4, .cls-7, .cls-8, .cls-11 {
        fill: none;
      }

      .cls-2, .cls-4, .cls-7, .cls-11 {
        stroke-width: .5px;
      }

      .cls-2, .cls-7, .cls-11 {
        stroke-linejoin: bevel;
      }

      .cls-17 {
        font-size: 7.08px;
        letter-spacing: -.01em;
      }

      .cls-17, .cls-18, .cls-22 {
        fill: #231815;
      }

      .cls-23, .cls-20, .cls-24, .cls-10, .cls-21 {
        fill: #fff;
      }

      .cls-4 {
        stroke-linecap: round;
      }

      .cls-5, .cls-25 {
        fill: #4969aa;
      }

      .cls-18 {
        font-size: 6px;
        letter-spacing: -.01em;
      }

      .cls-26, .cls-27 {
        letter-spacing: -.05em;
      }

      .cls-19 {
        font-size: 6.96px;
        letter-spacing: -.01em;
      }

      .cls-28 {
        font-size: 8.54px;
        letter-spacing: -.14em;
      }

      .cls-6 {
        fill: #727171;
      }

      .cls-29 {
        font-size: 20.81px;
      }

      .cls-27, .cls-30, .cls-31, .cls-24, .cls-15 {
        font-family: MyriadPro-Semibold, 'Myriad Pro';
        font-weight: 600;
      }

      .cls-27, .cls-30, .cls-15 {
        font-size: 15.14px;
      }

      .cls-32 {
        font-size: 33.35px;
        letter-spacing: -.05em;
      }

      .cls-20 {
        font-size: 10.3px;
        letter-spacing: -.01em;
      }

      .cls-7 {
        stroke-dasharray: 2.94 2.94;
      }

      .cls-31 {
        font-size: 13.48px;
        letter-spacing: -.05em;
      }

      .cls-33 {
        fill: #dbdbdb;
      }

      .cls-9, .cls-13 {
        fill: #eb9826;
      }

      .cls-34 {
        font-size: 7.76px;
        letter-spacing: -.01em;
      }

      .cls-11 {
        stroke-dasharray: 2.87 2.87;
      }

      .cls-12 {
        fill: #4bb359;
      }

      .cls-35 {
        fill: #424142;
        fill-rule: evenodd;
      }
    </style>
  </defs>
  <g id="_最背景_灰色_" data-name="最背景(灰色)">
    <rect class="cls-33" x="71.92" y="20.49" width="352.53" height="290.15"/>
  </g>
  <g id="_路の背景_白_" data-name="路の背景(白)">
    <rect class="cls-23" x="116.04" y="26.69" width="10.68" height="163.87"/>
    <polygon class="cls-23" points="418.65 163.12 363.53 163.12 363.53 152.76 355.23 152.76 355.23 53.97 355.52 53.97 355.52 26.5 140.29 26.5 133.42 26.5 124.51 26.5 124.51 180.03 115.71 180.03 115.71 215.82 100.66 215.82 100.66 237.36 76.75 237.36 76.75 284.28 193.01 284.28 193.01 215.82 150.15 215.82 150.15 180.03 140.29 180.03 140.29 164.28 131.91 164.28 131.91 65.74 140.29 65.74 140.29 53.97 339.45 53.97 339.45 95.05 308 95.05 308 200.8 347.96 200.8 347.96 200.8 384.56 200.8 384.56 182.15 418.65 182.15 418.65 163.12"/>
  </g>
  <g id="_枠本体" data-name="枠本体">
    <rect class="cls-13" x="87.06" y="79.33" width="28.98" height="26.34"/>
    <rect class="cls-3" x="131.65" y="42.42" width="31.42" height="26.34"/>
    <rect class="cls-3" x="163.07" y="42.42" width="31.42" height="26.34"/>
    <rect class="cls-3" x="194.49" y="42.42" width="31.42" height="26.34"/>
    <rect class="cls-3" x="225.91" y="42.42" width="31.42" height="26.34"/>
    <rect class="cls-3" x="308" y="68.76" width="31.42" height="26.34"/>
    <rect class="cls-3" x="308" y="95.1" width="31.42" height="26.34"/>
    <rect class="cls-3" x="308" y="121.43" width="31.42" height="26.34"/>
    <rect class="cls-3" x="308" y="147.9" width="31.42" height="26.34"/>
    <rect class="cls-3" x="308" y="174.47" width="31.42" height="26.34"/>
    <rect class="cls-3" x="257.33" y="42.42" width="31.42" height="26.34"/>
    <rect class="cls-10" x="288.75" y="52.88" width="24.56" height="15.75"/>
    <polyline class="cls-3" points="370.92 163.3 418.4 163.3 418.4 200.8 370.92 200.8"/>
    <polyline class="cls-6" points="116.04 79.33 87.06 79.33 87.06 59.4 116.04 59.4"/>
    <polyline class="cls-6" points="339.77 68.64 313.3 68.64 313.3 52.88 339.77 52.88"/>
    <polyline class="cls-6" points="370.92 179.43 370.92 200.8 355.62 200.8 355.62 179.43"/>
    <polyline class="cls-6" points="150.35 227.07 150.35 200.18 168.56 200.18 168.56 227.07"/>
    <rect class="cls-13" x="87.06" y="105.71" width="28.98" height="26.34"/>
    <rect class="cls-13" x="87.06" y="132.08" width="28.98" height="26.34"/>
    <rect class="cls-13" x="87.06" y="158.46" width="28.98" height="26.34"/>
    <rect class="cls-13" x="87.06" y="184.83" width="28.98" height="26.34"/>
    <rect class="cls-13" x="87.06" y="211.21" width="28.98" height="26.34"/>
    <rect class="cls-13" x="76.96" y="258.17" width="28.98" height="26.25"/>
    <rect class="cls-13" x="105.9" y="258.17" width="28.98" height="26.25"/>
    <rect class="cls-13" x="134.88" y="258.17" width="28.98" height="26.25"/>
    <rect class="cls-13" x="163.86" y="258.17" width="28.98" height="26.25"/>
    <rect class="cls-13" x="168.56" y="200.18" width="24.28" height="26.89"/>
    <polyline class="cls-12" points="137.77 200.18 137.77 213.58 150.35 213.58 150.35 200.18"/>
    <polyline class="cls-6" points="150.35 227.07 150.35 213.68 137.77 213.68 137.77 227.07"/>
    <polyline class="cls-5" points="355.24 42.3 355.24 26.5 313.3 26.5 313.3 42.3"/>
    <polyline class="cls-8" points="87.06 237.54 76.96 237.54 76.96 284.41"/>
    <line class="cls-8" x1="192.84" y1="227.07" x2="192.84" y2="258.17"/>
    <g id="_装飾のボード" data-name="装飾のボード">
      <polyline class="cls-4" points="159.53 200.18 166.4 190.19 174.89 190.26"/>
    </g>
    <line class="cls-8" x1="339.42" y1="200.8" x2="355.62" y2="200.8"/>
    <g>
      <line class="cls-2" x1="200.24" y1="242.62" x2="201.74" y2="242.62"/>
      <line class="cls-7" x1="204.68" y1="242.62" x2="344.55" y2="242.62"/>
      <polyline class="cls-2" points="346.02 242.62 347.52 242.62 347.52 241.12"/>
      <line class="cls-11" x1="347.52" y1="238.25" x2="347.52" y2="211"/>
      <line class="cls-2" x1="347.52" y1="209.56" x2="347.52" y2="208.06"/>
      <polygon class="cls-22" points="201.89 244.66 202.23 244.3 200.43 242.62 202.23 240.94 201.89 240.57 199.69 242.62 201.89 244.66"/>
      <polygon class="cls-22" points="349.57 209.72 349.2 210.06 347.52 208.25 345.85 210.06 345.48 209.72 347.52 207.52 349.57 209.72"/>
    </g>
    <rect class="cls-25" x="131.39" y="158.46" width="25.09" height="31.34"/>
    <polyline class="cls-8" points="131.68 42.42 131.68 189.67 131.68 158.54 156.77 158.7 156.77 189.88 150.35 189.94 150.35 227.07"/>
  </g>
  <g id="_文字_ピクトグラム" data-name="文字・ピクトグラム">
    <g id="_女子" data-name="女子">
      <path d="M138.95,666.97c-3.75,0-6.8-3.05-6.8-6.8s3.05-6.8,6.8-6.8,6.8,3.05,6.8,6.8-3.05,6.8-6.8,6.8Z"/>
      <path d="M153.35,700.57l-7-15.27c-.02-.26-.05-.51-.09-.77l2.85-11.59c.13-1.5-.99-2.72-2.49-2.72h-15.33c-1.5,0-2.62,1.22-2.49,2.72l2.85,11.59c-.04.25-.07.51-.09.77l-7,15.27c-.19,2.12,1.4,3.86,3.53,3.86h6.23l1.61,26.18c.05,1.42,1.26,2.58,2.68,2.58h.68c1.42,0,2.63-1.16,2.68-2.58l1.61-26.18h6.23c2.13,0,3.72-1.73,3.53-3.86Z"/>
    </g>
    <g id="EV">
      <path d="M250.06,667.95v68.68h67.62v-68.68h-67.62ZM311.18,730.12h-54.61v-55.67h54.61v55.67Z"/>
      <path d="M289.51,690.28c0,3.11-2.52,5.64-5.64,5.64s-5.64-2.52-5.64-5.64,2.53-5.64,5.64-5.64,5.64,2.52,5.64,5.64Z"/>
      <path d="M288.34,724.9c-.09,2.07-1.86,3.76-3.92,3.76h-1.1c-2.07,0-3.83-1.69-3.92-3.76l-1-22.94c-.09-2.07,1.53-3.76,3.6-3.76h3.76c2.07,0,3.69,1.69,3.6,3.76l-1,22.94Z"/>
      <path d="M272.55,690.28c0,3.11-2.52,5.64-5.64,5.64s-5.64-2.52-5.64-5.64,2.52-5.64,5.64-5.64,5.64,2.52,5.64,5.64Z"/>
      <path d="M271.38,724.9c-.09,2.07-1.86,3.76-3.92,3.76h-1.1c-2.07,0-3.83-1.69-3.92-3.76l-1-22.94c-.09-2.07,1.53-3.76,3.6-3.76h3.76c2.07,0,3.69,1.69,3.6,3.76l-1,22.94Z"/>
      <path d="M306.47,690.28c0,3.11-2.52,5.64-5.64,5.64s-5.64-2.52-5.64-5.64,2.52-5.64,5.64-5.64,5.64,2.52,5.64,5.64Z"/>
      <path d="M305.3,724.9c-.09,2.07-1.86,3.76-3.92,3.76h-1.1c-2.07,0-3.83-1.69-3.92-3.76l-1-22.94c-.09-2.07,1.53-3.76,3.6-3.76h3.76c2.07,0,3.69,1.69,3.6,3.76l-1,22.94Z"/>
      <g>
        <polygon points="265.46 662.13 265.46 645.62 260.72 650.36 255.79 645.43 268.92 632.31 269.46 632.85 282.07 645.46 277.14 650.38 272.43 645.67 272.43 662.13 265.46 662.13"/>
        <polygon points="298.28 661.89 285.68 649.29 290.61 644.36 295.32 649.07 295.32 632.61 302.28 632.61 302.28 649.13 307.02 644.39 311.95 649.32 298.82 662.44 298.28 661.89"/>
      </g>
    </g>
    <g id="_男子" data-name="男子">
      <circle cx="95" cy="660.17" r="6.8"/>
      <path d="M103.17,670.23h-16.34c-1.66,0-2.99,1.36-2.96,3.02l.76,27.66c.02,1.02.98,1.62,1.88,1.84l2.76.89,1.22,26.85c.07,1.5,1.66,2.69,3.56,2.69h1.9c1.9,0,3.49-1.19,3.56-2.69l1.22-26.85,2.76-.89c.9-.23,1.86-.82,1.88-1.84l.76-27.66c.03-1.66-1.3-3.02-2.96-3.02Z"/>
    </g>
    <g id="_階段" data-name="階段">
      <polygon points="166.37 718.98 166.37 704.86 181.41 704.86 181.41 695.66 196.46 695.66 196.46 686.5 211.51 686.5 211.51 677.36 227.76 677.36 227.76 682.28 216.43 682.28 216.43 691.42 201.38 691.42 201.38 700.58 186.34 700.58 186.34 709.78 171.29 709.78 171.29 718.98 166.37 718.98"/>
      <g>
        <polygon points="187.78 664.19 176.51 675.46 176.51 670.31 171.23 670.31 171.23 684.47 185.39 684.47 185.39 679.19 180.24 679.19 191.51 667.92 187.78 664.19"/>
        <polygon points="208.74 703.96 208.74 709.24 213.88 709.24 202.61 720.5 206.35 724.24 217.62 712.97 217.62 718.11 222.89 718.11 222.89 703.96 208.74 703.96"/>
      </g>
    </g>
    <text class="cls-22" transform="translate(94.65 88.68)"><tspan class="cls-19"><tspan x="0" y="0">高校</tspan></tspan><tspan class="cls-27"><tspan x="-1.58" y="13.51">2A</tspan></tspan></text>
    <text class="cls-23" transform="translate(140.66 51.81)"><tspan class="cls-19"><tspan x="0" y="0">中学</tspan></tspan><tspan class="cls-15"><tspan x="1.05" y="13.51">2I</tspan></tspan></text>
    <text class="cls-23" transform="translate(171.88 51.81)"><tspan class="cls-19"><tspan x="0" y="0">中学</tspan></tspan><tspan class="cls-30"><tspan class="cls-26" x="-1.85" y="13.51">2</tspan><tspan class="cls-14" x="5.51" y="13.51">H</tspan></tspan></text>
    <text class="cls-23" transform="translate(203.3 51.81)"><tspan class="cls-19"><tspan x="0" y="0">中学</tspan></tspan><tspan class="cls-15"><tspan x="-2" y="13.51">2G</tspan></tspan></text>
    <text class="cls-23" transform="translate(234.72 51.81)"><tspan class="cls-19"><tspan x="0" y="0">中学</tspan></tspan><tspan class="cls-15"><tspan x="-.81" y="13.51">2F</tspan></tspan></text>
    <text class="cls-23" transform="translate(316.82 78.15)"><tspan class="cls-19"><tspan x="0" y="0">中学</tspan></tspan><tspan class="cls-15"><tspan x="-.85" y="13.51">2E</tspan></tspan></text>
    <text class="cls-23" transform="translate(316.82 104.48)"><tspan class="cls-19"><tspan x="0" y="0">中学</tspan></tspan><tspan class="cls-15"><tspan x="-2.13" y="13.51">2D</tspan></tspan></text>
    <text class="cls-23" transform="translate(316.82 130.82)"><tspan class="cls-19"><tspan x="0" y="0">中学</tspan></tspan><tspan class="cls-15"><tspan x="-1.41" y="13.51">2C</tspan></tspan></text>
    <text class="cls-23" transform="translate(316.82 157.29)"><tspan class="cls-19"><tspan x="0" y="0">中学</tspan></tspan><tspan class="cls-15"><tspan x="-1.32" y="13.51">2B</tspan></tspan></text>
    <text class="cls-23" transform="translate(316.82 183.85)"><tspan class="cls-19"><tspan x="0" y="0">中学</tspan></tspan><tspan class="cls-15"><tspan x="-1.77" y="13.51">2A</tspan></tspan></text>
    <text class="cls-22" transform="translate(94.65 115.49)"><tspan class="cls-19"><tspan x="0" y="0">高校</tspan></tspan><tspan class="cls-27"><tspan x="-1.13" y="13.51">2B</tspan></tspan></text>
    <text class="cls-22" transform="translate(94.65 141.38)"><tspan class="cls-19"><tspan x="0" y="0">高校</tspan></tspan><tspan class="cls-27"><tspan x="-1.22" y="13.51">2C</tspan></tspan></text>
    <text class="cls-22" transform="translate(94.65 167.74)"><tspan class="cls-19"><tspan x="0" y="0">高校</tspan></tspan><tspan class="cls-27"><tspan x="-1.94" y="13.51">2D</tspan></tspan></text>
    <text class="cls-22" transform="translate(94.65 194.01)"><tspan class="cls-19"><tspan x="0" y="0">高校</tspan></tspan><tspan class="cls-27"><tspan x="-.66" y="13.51">2E</tspan></tspan></text>
    <text class="cls-22" transform="translate(94.65 220.37)"><tspan class="cls-19"><tspan x="0" y="0">高校</tspan></tspan><tspan class="cls-27"><tspan x="-.62" y="13.51">2F</tspan></tspan></text>
    <text class="cls-22" transform="translate(84.55 267.4)"><tspan class="cls-19"><tspan x="0" y="0">高校</tspan></tspan><tspan class="cls-27"><tspan x="-1.81" y="13.51">2G</tspan></tspan></text>
    <text class="cls-22" transform="translate(113.49 267.4)"><tspan class="cls-19"><tspan x="0" y="0">高校</tspan></tspan><tspan class="cls-27"><tspan x="-1.85" y="13.51">2H</tspan></tspan></text>
    <text class="cls-22" transform="translate(142.47 267.4)"><tspan class="cls-19"><tspan x="0" y="0">高校</tspan></tspan><tspan class="cls-27"><tspan x="1.24" y="13.51">2I</tspan></tspan></text>
    <text class="cls-22" transform="translate(171.45 267.4)"><tspan class="cls-19"><tspan x="0" y="0">高校</tspan></tspan><tspan class="cls-30"><tspan x="-.11" y="13.51">2</tspan><tspan class="cls-26" x="8.01" y="13.51">J</tspan></tspan></text>
    <text class="cls-20" transform="translate(379.38 179.43)"><tspan x="0" y="0">美術室</tspan><tspan x="0" y="14">工作室</tspan></text>
    <g id="_階段-2" data-name="階段">
      <polygon class="cls-23" points="321.02 65.76 321.02 62.91 323.72 62.91 323.72 61.05 326.43 61.05 326.43 59.2 329.14 59.2 329.14 57.36 332.06 57.36 332.06 58.35 330.02 58.35 330.02 60.2 327.31 60.2 327.31 62.05 324.61 62.05 324.61 63.9 321.9 63.9 321.9 65.76 321.02 65.76"/>
      <g>
        <polygon class="cls-23" points="324.87 54.7 322.84 56.98 322.84 55.94 321.89 55.94 321.89 58.79 324.44 58.79 324.44 57.73 323.51 57.73 325.54 55.45 324.87 54.7"/>
        <polygon class="cls-23" points="328.64 62.73 328.64 63.79 329.56 63.79 327.54 66.07 328.21 66.82 330.23 64.55 330.23 65.58 331.18 65.58 331.18 62.73 328.64 62.73"/>
      </g>
    </g>
    <g id="_階段-3" data-name="階段">
      <polygon class="cls-23" points="95.4 74.93 95.4 71.76 98.41 71.76 98.41 69.69 101.43 69.69 101.43 67.63 104.44 67.63 104.44 65.58 107.7 65.58 107.7 66.69 105.43 66.69 105.43 68.74 102.41 68.74 102.41 70.8 99.4 70.8 99.4 72.87 96.38 72.87 96.38 74.93 95.4 74.93"/>
      <g>
        <polygon class="cls-23" points="99.69 62.62 97.43 65.15 97.43 64 96.37 64 96.37 67.18 99.21 67.18 99.21 65.99 98.18 65.99 100.44 63.46 99.69 62.62"/>
        <polygon class="cls-23" points="103.89 71.56 103.89 72.74 104.92 72.74 102.66 75.28 103.41 76.12 105.67 73.58 105.67 74.74 106.72 74.74 106.72 71.56 103.89 71.56"/>
      </g>
    </g>
    <g id="_階段-4" data-name="階段">
      <polygon class="cls-23" points="357.99 194.22 357.99 191.73 360.63 191.73 360.63 190.12 363.27 190.12 363.27 188.51 365.91 188.51 365.91 186.9 368.76 186.9 368.76 187.76 366.77 187.76 366.77 189.37 364.13 189.37 364.13 190.98 361.49 190.98 361.49 192.6 358.85 192.6 358.85 194.22 357.99 194.22"/>
      <g>
        <polygon class="cls-23" points="361.75 184.58 359.77 186.56 359.77 185.66 358.84 185.66 358.84 188.15 361.33 188.15 361.33 187.22 360.42 187.22 362.4 185.24 361.75 184.58"/>
        <polygon class="cls-23" points="365.42 191.58 365.42 192.5 366.33 192.5 364.35 194.49 365 195.14 366.98 193.16 366.98 194.07 367.91 194.07 367.91 191.58 365.42 191.58"/>
      </g>
    </g>
    <g id="_階段-5" data-name="階段">
      <polygon class="cls-23" points="153.32 219.6 153.32 216.73 156.36 216.73 156.36 214.86 159.4 214.86 159.4 213 162.45 213 162.45 211.15 165.73 211.15 165.73 212.15 163.44 212.15 163.44 214 160.4 214 160.4 215.86 157.36 215.86 157.36 217.73 154.31 217.73 154.31 219.6 153.32 219.6"/>
      <g>
        <polygon class="cls-23" points="157.65 208.47 155.37 210.76 155.37 209.71 154.3 209.71 154.3 212.59 157.17 212.59 157.17 211.52 156.13 211.52 158.4 209.23 157.65 208.47"/>
        <polygon class="cls-23" points="161.89 216.55 161.89 217.62 162.93 217.62 160.65 219.91 161.4 220.67 163.68 218.38 163.68 219.42 164.75 219.42 164.75 216.55 161.89 216.55"/>
      </g>
    </g>
    <g id="_男子-2" data-name="男子">
      <circle class="cls-23" cx="334.48" cy="29.37" r="1.03"/>
      <path class="cls-23" d="M335.72,30.89h-2.48c-.25,0-.45.21-.45.46l.11,4.21c0,.16.15.25.29.28l.42.14.19,4.08c.01.23.25.41.54.41h.29c.29,0,.53-.18.54-.41l.19-4.08.42-.14c.14-.03.28-.12.29-.28l.11-4.21c0-.25-.2-.46-.45-.46Z"/>
    </g>
    <g id="EV-2" data-name="EV">
      <path class="cls-23" d="M140.47,218.84v6.93h7.31v-6.93h-7.31ZM147.08,225.11h-5.9v-5.62h5.9v5.62Z"/>
      <path class="cls-23" d="M144.74,221.09c0,.31-.27.57-.61.57s-.61-.25-.61-.57.27-.57.61-.57.61.25.61.57Z"/>
      <path class="cls-23" d="M144.61,224.58c0,.21-.2.38-.42.38h-.12c-.22,0-.41-.17-.42-.38l-.11-2.31c0-.21.17-.38.39-.38h.41c.22,0,.4.17.39.38l-.11,2.31Z"/>
      <path class="cls-23" d="M142.9,221.09c0,.31-.27.57-.61.57s-.61-.25-.61-.57.27-.57.61-.57.61.25.61.57Z"/>
      <path class="cls-23" d="M142.78,224.58c0,.21-.2.38-.42.38h-.12c-.22,0-.41-.17-.42-.38l-.11-2.31c0-.21.17-.38.39-.38h.41c.22,0,.4.17.39.38l-.11,2.31Z"/>
      <path class="cls-23" d="M146.57,221.09c0,.31-.27.57-.61.57s-.61-.25-.61-.57.27-.57.61-.57.61.25.61.57Z"/>
      <path class="cls-23" d="M146.44,224.58c0,.21-.2.38-.42.38h-.12c-.22,0-.41-.17-.42-.38l-.11-2.31c0-.21.17-.38.39-.38h.41c.22,0,.4.17.39.38l-.11,2.31Z"/>
      <g>
        <polygon class="cls-23" points="142.14 218.25 142.14 216.58 141.62 217.06 141.09 216.56 142.51 215.24 142.57 215.29 143.93 216.57 143.4 217.06 142.89 216.59 142.89 218.25 142.14 218.25"/>
        <polygon class="cls-23" points="145.68 218.22 144.32 216.95 144.85 216.46 145.36 216.93 145.36 215.27 146.12 215.27 146.12 216.94 146.63 216.46 147.16 216.96 145.74 218.28 145.68 218.22"/>
      </g>
    </g>
    <g>
      <polyline class="cls-6" points="354.47 163.3 370.86 163.3 370.86 147.82 354.47 147.82"/>
      <g id="EV-3" data-name="EV">
        <path class="cls-23" d="M358.8,153.86v7.97h8.18v-7.97h-8.18ZM366.19,161.07h-6.6v-6.46h6.6v6.46Z"/>
        <path class="cls-23" d="M363.57,156.45c0,.36-.31.65-.68.65s-.68-.29-.68-.65.31-.65.68-.65.68.29.68.65Z"/>
        <path class="cls-23" d="M363.43,160.47c-.01.24-.22.44-.47.44h-.13c-.25,0-.46-.2-.47-.44l-.12-2.66c-.01-.24.18-.44.43-.44h.45c.25,0,.45.2.43.44l-.12,2.66Z"/>
        <path class="cls-23" d="M361.52,156.45c0,.36-.31.65-.68.65s-.68-.29-.68-.65.31-.65.68-.65.68.29.68.65Z"/>
        <path class="cls-23" d="M361.37,160.47c-.01.24-.22.44-.47.44h-.13c-.25,0-.46-.2-.47-.44l-.12-2.66c-.01-.24.18-.44.43-.44h.45c.25,0,.45.2.43.44l-.12,2.66Z"/>
        <path class="cls-23" d="M365.62,156.45c0,.36-.31.65-.68.65s-.68-.29-.68-.65.31-.65.68-.65.68.29.68.65Z"/>
        <path class="cls-23" d="M365.48,160.47c-.01.24-.22.44-.47.44h-.13c-.25,0-.46-.2-.47-.44l-.12-2.66c-.01-.24.18-.44.43-.44h.45c.25,0,.45.2.43.44l-.12,2.66Z"/>
        <g>
          <polygon class="cls-23" points="360.66 153.18 360.66 151.26 360.08 151.81 359.49 151.24 361.08 149.72 361.14 149.78 362.67 151.25 362.07 151.82 361.5 151.27 361.5 153.18 360.66 153.18"/>
          <polygon class="cls-23" points="364.63 153.15 363.1 151.69 363.7 151.12 364.27 151.66 364.27 149.75 365.11 149.75 365.11 151.67 365.68 151.12 366.28 151.69 364.69 153.22 364.63 153.15"/>
        </g>
      </g>
    </g>
    <g>
      <g>
        <path d="M59.98,677.87c-2.71,0-5.02-.95-6.68-2.74-1.67-1.8-2.55-4.33-2.56-7.32,0-2.99.9-5.53,2.56-7.33,1.66-1.79,3.97-2.74,6.68-2.74,3.24,0,5.93,1.45,7.21,3.89l.18.35-3.86,1.94-.2-.21c-.76-.82-1.92-1.35-2.96-1.35-2.63,0-4.33,2.14-4.34,5.46.01,3.31,1.72,5.46,4.34,5.46,1.04,0,2.2-.53,2.96-1.35l.2-.21,3.86,1.94-.18.35c-1.28,2.43-3.97,3.89-7.21,3.89Z"/>
        <polygon points="43.25 657.72 40.09 669.4 36.93 657.72 32.52 657.72 29.36 669.4 26.2 657.72 21.61 657.72 27.06 677.88 31.66 677.88 34.73 666.55 37.79 677.88 42.39 677.88 47.85 657.72 43.25 657.72"/>
      </g>
      <g>
        <path d="M51.44,723.76c-2.29,3.57-6.29,5.94-10.84,5.94-7.1,0-12.87-5.77-12.87-12.87,0-5.39,3.34-10.02,8.05-11.93v-4.68c-7.2,2.09-12.48,8.75-12.48,16.62,0,9.54,7.76,17.3,17.3,17.3,6.56,0,12.28-3.67,15.21-9.06l-4.37-1.31Z"/>
        <path d="M47.23,690.89c0,2.55-2.06,4.61-4.61,4.61s-4.61-2.06-4.61-4.61,2.06-4.61,4.61-4.61,4.61,2.06,4.61,4.61Z"/>
        <path d="M65.08,722.73l-5.98-8.12c-.59-.8-1.52-1.27-2.51-1.27h-9.9v-12.73c0-2.11-1.72-3.83-3.83-3.83h-.48c-2.11,0-3.83,1.72-3.83,3.83v15.12c0,1.05.43,2.01,1.12,2.7.57.69,1.44,1.13,2.4,1.13h12.94l5.04,6.85c.61.83,1.55,1.27,2.51,1.27.64,0,1.29-.2,1.84-.61,1.38-1.02,1.68-2.97.66-4.35Z"/>
      </g>
    </g>
    <g>
      <g>
        <path class="cls-23" d="M146.28,204.52c-.4,0-.75-.14-.99-.41-.25-.27-.38-.65-.38-1.09,0-.45.13-.82.38-1.09.25-.27.59-.41.99-.41.48,0,.88.22,1.07.58l.03.05-.57.29-.03-.03c-.11-.12-.29-.2-.44-.2-.39,0-.65.32-.65.81,0,.49.26.81.65.81.15,0,.33-.08.44-.2l.03-.03.57.29-.03.05c-.19.36-.59.58-1.07.58Z"/>
        <polygon class="cls-23" points="143.79 201.51 143.32 203.26 142.85 201.51 142.19 201.51 141.72 203.26 141.25 201.51 140.56 201.51 141.38 204.52 142.06 204.52 142.52 202.83 142.97 204.52 143.66 204.52 144.47 201.51 143.79 201.51"/>
      </g>
      <g>
        <path class="cls-23" d="M145.44,210.7c-.34.53-.94.89-1.61.89-1.06,0-1.92-.86-1.92-1.92,0-.8.5-1.5,1.2-1.78v-.7c-1.07.31-1.86,1.31-1.86,2.48,0,1.42,1.16,2.58,2.58,2.58.98,0,1.83-.55,2.27-1.35l-.65-.2Z"/>
        <path class="cls-23" d="M144.81,205.8c0,.38-.31.69-.69.69s-.69-.31-.69-.69.31-.69.69-.69.69.31.69.69Z"/>
        <path class="cls-23" d="M147.47,210.55l-.89-1.21c-.09-.12-.23-.19-.37-.19h-1.47v-1.9c0-.31-.26-.57-.57-.57h-.07c-.31,0-.57.26-.57.57v2.26c0,.16.06.3.17.4.09.1.21.17.36.17h1.93l.75,1.02c.09.12.23.19.37.19.1,0,.19-.03.27-.09.21-.15.25-.44.1-.65Z"/>
      </g>
    </g>
    <polyline class="cls-8" points="116.04 59.78 116.04 26.69 355.26 26.47 354.97 147.85 370.93 147.79 370.91 163.3 418.4 163.3"/>
    <g id="_交通機関案内" data-name="交通機関案内">
      <polygon class="cls-35" points="390.49 705.99 373.15 705.96 381.31 714.11 376.14 714.1 365.96 703.92 366.07 703.92 366.08 703.91 365.96 703.91 376.16 693.8 381.36 693.82 373.22 701.87 390.5 701.91 390.49 705.99 390.49 705.99"/>
    </g>
    <g>
      <text class="cls-17" transform="translate(376.84 91.33)"><tspan x="0" y="0">中学校舎</tspan></text>
      <rect class="cls-1" x="369.02" y="85.35" width="6.57" height="6.57"/>
    </g>
    <g>
      <text class="cls-17" transform="translate(376.84 80.87)"><tspan x="0" y="0">高校校舎</tspan></text>
      <rect class="cls-9" x="369.02" y="74.9" width="6.57" height="6.57"/>
    </g>
    <text class="cls-22" transform="translate(170.91 215.52)"><tspan class="cls-31"><tspan x="0" y="0">301</tspan></tspan><tspan class="cls-16"><tspan x="-.41" y="5.88">補助教室</tspan></tspan></text>
    <text class="cls-18" transform="translate(176.64 192.99)"><tspan x="0" y="0">この階まで</tspan></text>
    <text class="cls-18" transform="translate(225.24 252.07)"><tspan x="0" y="0">１階または２階経由でご移動下さい</tspan></text>
    <text class="cls-21" transform="translate(264.43 53.96)"><tspan class="cls-28" x="0" y="0">３</tspan><tspan class="cls-34" x="7.34" y="-.29">階 </tspan><tspan class="cls-34"><tspan x="-2.92" y="10.19">学習室</tspan></tspan></text>
    <g id="_男子-3" data-name="男子">
      <ellipse class="cls-23" cx="144.6" cy="165.04" rx="1.68" ry="1.69"/>
      <path class="cls-23" d="M146.62,167.54h-4.05c-.41,0-.74.34-.73.75l.19,6.87c0,.25.24.4.47.46l.69.22.3,6.67c.02.37.41.67.88.67h.47c.47,0,.86-.3.88-.67l.3-6.67.69-.22c.22-.06.46-.2.47-.46l.19-6.87c0-.41-.32-.75-.73-.75Z"/>
    </g>
  </g>
  <g id="_1F" data-name="1F">
    <g>
      <ellipse class="cls-22" cx="386.76" cy="46.3" rx="19.57" ry="19.62"/>
      <text class="cls-24" transform="translate(374.05 57.03)"><tspan class="cls-32" x="0" y="0">3</tspan><tspan class="cls-29" x="16.21" y=".57">F</tspan></text>
    </g>
  </g>
</svg>